<?xml version="1.0" standalone="no"?>
<!DOCTYPE svg PUBLIC "-//W3C//DTD SVG 1.1//EN" "http://www.w3.org/Graphics/SVG/1.1/DTD/svg11.dtd" >
<svg xmlns="http://www.w3.org/2000/svg">
<metadata>
This is a custom SVG webfont generated by Fontspring.
Designer    : FontSite.com
Foundry URL : http://www.fontsite.com
</metadata>
<defs>
<font id="webfont" horiz-adv-x="500" >
<font-face units-per-em="1000" ascent="777" descent="-223" />
<missing-glyph horiz-adv-x="250" />
<glyph unicode=" "  horiz-adv-x="250" />
<glyph unicode="&#x09;" horiz-adv-x="250" />
<glyph unicode="&#xa0;" horiz-adv-x="250" />
<glyph unicode="!" horiz-adv-x="311" d="M102 202l-2 20l-7 75q-3 25 -27 185q-6 38 -6 74q0 55 26.5 88t70.5 33t69 -32t25 -89q0 -27 -3.5 -47t-22.5 -113q-22 -108 -30 -194h-93zM67 73q0 34 24 57.5t59 23.5q32 0 56 -24t24 -57q0 -34 -24 -58t-57 -24q-34 0 -58 24t-24 58z" />
<glyph unicode="&#x22;" horiz-adv-x="377" d="M244 399l-24 268h116l-24 -268h-68zM65 399l-24 268h116l-24 -268h-68z" />
<glyph unicode="#" horiz-adv-x="600" d="M122 0l34 211h-102l14 87h101l14 85h-101l14 86h100l32 198h86l-31 -198h86l31 198h88l-31 -198h100l-14 -86h-100l-13 -85h102l-14 -87h-102l-33 -211h-88l33 211h-86l-33 -211h-87zM256 298h86l13 85h-86z" />
<glyph unicode="$" horiz-adv-x="627" d="M123 28q-40 21 -63.5 54.5t-23.5 69.5q0 35 23.5 58t58.5 23q32 0 54 -19t22 -47q0 -26 -17.5 -41t-49.5 -16q65 -50 190 -50q67 0 102 18q46 25 46 72q0 32 -29.5 47t-115.5 26q-123 16 -177 39q-105 43 -105 158q0 94 79 148q35 23 70 33.5t98 17.5v54h74v-54 q64 -4 98.5 -13.5t65.5 -30.5q58 -40 58 -102q0 -39 -22.5 -63t-58.5 -24q-33 0 -53.5 18t-20.5 47q0 24 13.5 39t35.5 15q11 0 27 -5q-26 26 -62 35q-50 13 -106 13q-68 0 -106.5 -23.5t-38.5 -64.5q0 -44 63 -59q24 -6 127 -20q121 -16 176 -62.5t55 -131.5 q0 -101 -87 -156q-37 -23 -72.5 -33t-91.5 -12v-101h-74v101q-60 6 -94 14.5t-68 27.5z" />
<glyph unicode="%" horiz-adv-x="882" d="M199 309q-75 0 -118.5 40t-43.5 110t44.5 112t117.5 42q72 0 116.5 -43t44.5 -112q0 -37 -17 -70.5t-46 -53.5q-36 -25 -98 -25zM123 40l495 566l45 -41l-496 -565zM199 360q48 0 48 99q0 52 -11 75.5t-36 23.5q-50 0 -50 -107q0 -91 49 -91zM424 143q0 70 44.5 112 t117.5 42q72 0 116.5 -43t44.5 -112q0 -37 -17 -70.5t-46 -53.5q-36 -25 -98 -25q-75 0 -118.5 40t-43.5 110zM537 134q0 -91 49 -91t49 100q0 53 -11 76t-37 23q-50 0 -50 -108z" />
<glyph unicode="&#x26;" horiz-adv-x="793" d="M22 195q0 83 65 142q26 23 88 50q-29 62 -29 106q0 68 49 115.5t119 47.5q64 0 108 -41.5t44 -101.5q0 -42 -21.5 -76t-76.5 -78q40 -69 116 -158q37 49 44.5 62t7.5 25q0 21 -37 21h-44v88h278v-88h-32q-33 0 -48 -10q-9 -5 -15.5 -14.5t-31.5 -49.5q-9 -14 -14 -23 q-10 -16 -52 -75q46 -50 86 -50q59 0 59 99q0 14 -3 47h88q1 -20 1 -45q0 -72 -23 -118q-19 -37 -58.5 -58t-91.5 -21q-87 0 -161 52q-79 -52 -180 -52t-168 58t-67 146zM320 433q4 4 10 7q47 33 47 77q0 22 -13.5 36t-34.5 14q-20 0 -33 -13t-13 -33q0 -29 37 -88zM171 208 q0 -53 37.5 -90.5t90.5 -37.5q35 0 75 26q-49 56 -69 82.5t-68 99.5l-14 21q-31 -32 -41.5 -52.5t-10.5 -48.5z" />
<glyph unicode="'" horiz-adv-x="198" d="M65 399l-24 268h116l-24 -268h-68z" />
<glyph unicode="(" horiz-adv-x="419" d="M35 230q0 204 91 316q103 128 276 134v-94q-62 -1 -98 -39q-41 -41 -57 -114.5t-16 -217.5q0 -119 16 -186.5t53 -103.5q39 -37 92 -40v-94q-114 6 -199 66q-82 59 -120 148.5t-38 224.5z" />
<glyph unicode=")" horiz-adv-x="419" d="M16 -115q61 1 99 39q41 41 57 114.5t16 218.5q0 118 -16 185.5t-53 103.5q-37 37 -92 41v93q114 -6 199 -66q82 -59 120 -148.5t38 -224.5q0 -204 -91 -316q-102 -128 -277 -134v94z" />
<glyph unicode="*" d="M185 315q-32 0 -57 23t-25 51q0 25 22 42q8 7 36 13q28 7 28 21q0 6 -6 11.5t-12 5.5q-4 0 -30 -13q-13 -7 -25 -7q-20 0 -36.5 21t-16.5 47q0 29 22 53t48 24q29 0 47 -35q10 -21 15.5 -27.5t13.5 -6.5q5 0 10 5t5 10q0 13 -21 32q-21 20 -21 38q0 26 22.5 43.5 t54.5 17.5q28 0 47 -15t19 -37q0 -27 -21 -48q-22 -23 -22 -32q0 -4 5.5 -9.5t10.5 -5.5q8 0 12.5 5.5t14.5 25.5q17 35 50 35q24 0 42.5 -25.5t18.5 -59.5q0 -24 -16 -40.5t-39 -16.5q-9 0 -39 16q-5 4 -12 4t-13 -6t-6 -12q0 -5 7.5 -11t17.5 -7q36 -5 46 -14 q18 -15 18 -37q0 -30 -25 -54t-56 -24q-27 0 -42 23q-10 17 -10 22l3 46q0 4 -6 9.5t-10 5.5q-7 0 -13 -7t-6 -15l1 -4l3 -19q1 -6 1 -14q0 -18 -17 -33t-38 -15z" />
<glyph unicode="+" d="M190 107v174h-183v118h183v174h121v-174h183v-118h-183v-174h-121z" />
<glyph unicode="," horiz-adv-x="247" d="M31 65q0 37 26 61.5t64 24.5q44 0 72.5 -30t28.5 -77q0 -41 -20 -79.5t-55 -63.5q-41 -30 -105 -34v57q78 15 90 76q-21 -9 -35 -9q-28 0 -47 21t-19 53z" />
<glyph unicode="-" horiz-adv-x="260" d="M0 180v119h260v-119h-260z" />
<glyph unicode="." horiz-adv-x="239" d="M38 73q0 34 24 57.5t59 23.5q32 0 56 -24t24 -57q0 -34 -24 -58t-57 -24q-34 0 -58 24t-24 58z" />
<glyph unicode="/" horiz-adv-x="391" d="M-21 -206l266 873h104l-264 -873h-106z" />
<glyph unicode="0" horiz-adv-x="627" d="M19 302q0 142 82.5 229.5t216.5 87.5q130 0 210 -90t80 -235q0 -132 -84 -220.5t-210 -88.5q-131 0 -213 88.5t-82 228.5zM313 68q51 0 77 54t26 196q0 112 -24 165t-75 53q-55 0 -80.5 -61t-25.5 -191q0 -112 24.5 -164t77.5 -52z" />
<glyph unicode="1" horiz-adv-x="627" d="M150 0v91h49q34 0 43 12q6 9 7.5 20t1.5 62v254h-101v88q120 3 141 78h141v-420q0 -51 1 -62t7 -20q9 -12 44 -12h39v-91h-373z" />
<glyph unicode="2" horiz-adv-x="627" d="M37 0q-1 103 39.5 164t152.5 123q90 49 110 70q29 29 29 74t-30 70t-85 25q-90 0 -117 -75q28 16 47 16q27 0 43 -17.5t16 -46.5q0 -40 -26.5 -66t-67.5 -26q-44 0 -72 32.5t-28 82.5q0 85 72.5 139t186.5 54q115 0 187.5 -54.5t72.5 -140.5q0 -84 -66 -139 q-43 -37 -142 -63q-109 -29 -139.5 -44t-62.5 -58q55 36 112 36q34 0 123 -20q27 -6 48 -6q29 0 41.5 19.5t13.5 63.5h89q-1 -97 -17 -135q-37 -93 -153 -93q-57 0 -145 37q-61 25 -90 25q-23 0 -33 -11t-10 -36h-99z" />
<glyph unicode="3" horiz-adv-x="627" d="M97 49q-56 44 -56 107q0 44 28 73.5t70 29.5q39 0 64 -24t25 -61q0 -31 -18 -51.5t-46 -20.5q-9 0 -15 1q35 -35 103 -35q60 0 97 30t37 79q0 58 -51 85q-19 10 -32.5 12.5t-54.5 2.5h-7v84q9 -1 20 -1q49 0 77.5 24t28.5 65q0 40 -31.5 63.5t-84.5 23.5q-67 0 -102 -43 q20 4 28 4q24 0 40.5 -18t16.5 -44q0 -35 -25 -59t-61 -24q-39 0 -65.5 28.5t-26.5 70.5q0 74 67 120q72 48 190 48t185.5 -43t67.5 -118q0 -50 -31 -81t-100 -51q155 -34 155 -154q0 -82 -75 -134.5t-194 -52.5q-64 0 -125 17.5t-99 46.5z" />
<glyph unicode="4" horiz-adv-x="627" d="M28 173v92l312 340h159v-340h100v-92h-100l1 -30q1 -33 10 -42.5t41 -9.5h48v-91h-386v91h54q32 0 41 9.5t10 42.5l1 30h-291zM149 265h170v179z" />
<glyph unicode="5" horiz-adv-x="627" d="M62 168q0 41 25.5 67t67.5 26q38 0 64 -23t26 -58q0 -64 -74 -73q35 -31 86 -31q56 0 90.5 39.5t34.5 103.5q0 58 -29 91.5t-78 33.5q-54 0 -86 -41h-89l19 310q101 -23 236 -23q95 0 203 14q1 -4 1 -9q0 -52 -75.5 -87.5t-184.5 -35.5q-45 0 -98 9l-4 -90q38 25 65 33.5 t71 8.5q108 0 180.5 -63.5t72.5 -157.5q0 -49 -23.5 -94.5t-63.5 -76.5q-74 -56 -191 -56q-105 0 -175.5 52t-70.5 131z" />
<glyph unicode="6" horiz-adv-x="627" d="M47 300q0 154 79 235q39 40 100 62t130 22q91 0 149.5 -37.5t58.5 -95.5q0 -38 -27 -65t-65 -27q-35 0 -58.5 21.5t-23.5 54.5q0 52 52 61q-30 15 -61 15q-98 0 -132 -95q-13 -39 -17 -134q31 31 64 44.5t81 13.5q93 0 154.5 -54.5t61.5 -137.5q0 -89 -70 -143.5 t-184 -54.5q-140 0 -216 82t-76 233zM244 178q0 -51 22.5 -80.5t61.5 -29.5q41 0 64.5 30t23.5 82q0 53 -22 82.5t-61 29.5q-41 0 -65 -30.5t-24 -83.5z" />
<glyph unicode="7" horiz-adv-x="627" d="M217 0q6 139 35.5 207.5t122.5 158.5q47 46 60 60t42 52q-48 -26 -83 -26q-26 0 -59 6q-61 10 -79 10q-43 0 -62.5 -25.5t-19.5 -81.5v-45h-94v279l94 1v-69q50 81 137 81q25 0 41 -4t87 -30q36 -12 53 -12t25.5 9.5t13.5 33.5h81q-5 -61 -28 -110t-100 -169 q-43 -66 -59 -132.5t-21 -193.5h-187z" />
<glyph unicode="8" horiz-adv-x="627" d="M28 160q0 65 59 104q26 17 75 30q-103 61 -103 146q0 81 80 133q69 46 188 46q109 0 175.5 -42t66.5 -110q0 -58 -47 -92q-21 -15 -67 -29q76 -28 108 -64q35 -43 35 -99q0 -93 -78 -148q-71 -50 -209 -50q-127 0 -205 48t-78 127zM297 408l86 -30q63 36 63 83 q0 34 -32.5 54.5t-88.5 20.5q-51 0 -80 -17.5t-29 -48.5q0 -20 16.5 -32.5t64.5 -29.5zM156 166q0 -44 45.5 -73t112.5 -29q55 0 90.5 21t35.5 53q0 26 -20 43.5t-69 33.5l-125 43q-44 -31 -57 -48t-13 -44z" />
<glyph unicode="9" horiz-adv-x="627" d="M72 120q0 41 25 66.5t65 25.5q37 0 60 -20.5t23 -53.5q0 -48 -50 -60q30 -17 60 -17q48 0 83 26.5t51 75.5q14 42 15 128q-48 -58 -141 -58t-155 54t-62 135q0 88 70 142.5t182 54.5q141 0 216.5 -82t75.5 -236q0 -164 -96 -246q-81 -70 -211 -70q-96 0 -153.5 37 t-57.5 98zM306 316q89 0 89 111q0 113 -82 113q-43 0 -67 -31t-24 -85q0 -50 22.5 -79t61.5 -29z" />
<glyph unicode=":" horiz-adv-x="239" d="M120 291q-34 0 -58 24t-24 58t24 57.5t59 23.5q32 0 56 -24t24 -57q0 -34 -24 -58t-57 -24zM38 73q0 34 24 57.5t59 23.5q32 0 56 -24t24 -57q0 -34 -24 -58t-57 -24q-34 0 -58 24t-24 58z" />
<glyph unicode=";" horiz-adv-x="247" d="M114 291q-34 0 -58 24t-24 58t24 57.5t59 23.5q32 0 56 -24t24 -57q0 -34 -24 -58t-57 -24zM31 65q0 37 26 61.5t64 24.5q44 0 72.5 -30t28.5 -77q0 -41 -20 -79.5t-55 -63.5q-41 -30 -105 -34v57q78 15 90 76q-21 -9 -35 -9q-28 0 -47 21t-19 53z" />
<glyph unicode="&#x3c;" d="M26 293v96l446 225v-109l-319 -165l319 -162v-108z" />
<glyph unicode="=" d="M7 371v111h487v-111h-487zM7 198v111h487v-111h-487z" />
<glyph unicode="&#x3e;" d="M29 70v108l315 162l-315 165v109l441 -225v-96z" />
<glyph unicode="?" horiz-adv-x="524" d="M190 191q1 52 13 82.5t55 86.5q60 80 60 124q0 41 -31 69.5t-75 28.5q-77 0 -105 -80q28 12 47 12q32 0 52.5 -22t20.5 -56q0 -37 -26 -61.5t-66 -24.5q-47 0 -78 37t-31 94q0 78 62 135q65 60 178 60q103 0 168 -51.5t65 -132.5q0 -51 -24 -91t-79 -77 q-66 -45 -86 -69.5t-23 -63.5h-97zM158 73q0 34 24 57.5t59 23.5q32 0 56 -24t24 -57q0 -34 -24 -58t-57 -24q-34 0 -58 24t-24 58z" />
<glyph unicode="@" horiz-adv-x="734" d="M33 238q0 147 102 248.5t250 101.5q136 0 225.5 -83.5t89.5 -210.5q0 -91 -49.5 -160.5t-114.5 -69.5q-28 0 -49.5 15t-28.5 40q-43 -64 -124 -64q-60 0 -100.5 45t-40.5 112q0 80 52.5 140t122.5 60q67 0 97 -48l8 38l87 -1l-37 -190q-6 -35 -6 -43q0 -32 23 -32 q30 0 56.5 50.5t26.5 108.5q0 94 -65.5 154t-168.5 60q-115 0 -193 -78.5t-78 -194.5q0 -112 71.5 -185t181.5 -73q85 0 156 49l47 -65q-84 -63 -199 -63q-146 0 -244 97t-98 242zM293 217q0 -32 18 -52t47 -20q34 0 59.5 31.5t25.5 73.5q0 31 -17.5 51t-45.5 20 q-35 0 -61 -31.5t-26 -72.5z" />
<glyph unicode="A" horiz-adv-x="735" d="M-19 0v91h32q31 0 45 13.5t30 60.5l170 502h232l155 -502q15 -50 31 -64q13 -10 45 -10h33v-91h-380v91h39q29 0 38.5 4.5t9.5 18.5q0 12 -13 51l-17 52h-205l-17 -52q-14 -42 -14 -49q0 -25 47 -25h43v-91h-304zM253 303h151l-73 225z" />
<glyph unicode="B" horiz-adv-x="769" d="M33 0v91h56q34 0 43 12q6 8 7.5 19t1.5 63v297q0 52 -1.5 63t-7.5 19q-9 12 -43 12h-56v91h481q71 0 114 -24q76 -43 76 -134q0 -62 -35 -100t-111 -60q72 -10 112 -35q72 -46 72 -131q0 -103 -83 -150q-35 -20 -77.5 -26.5t-139.5 -6.5h-409zM336 390h57q63 0 89.5 21.5 t26.5 71.5q0 49 -27 71t-87 22h-59v-186zM336 91h61q73 0 99 22q34 29 34 85q0 28 -12.5 53t-32.5 37q-23 14 -92 14h-57v-211z" />
<glyph unicode="C" horiz-adv-x="709" d="M159 45q-127 93 -127 285q0 186 120 281q89 71 220 71q65 0 103 -15t75 -55l14 55h102v-259h-102q-1 76 -30 120q-38 59 -120 59q-77 0 -119.5 -65t-42.5 -183q0 -125 42.5 -192t121.5 -67q97 0 132 90q13 32 16 98h102q0 -74 -23 -128q-66 -155 -273 -155 q-128 0 -211 60z" />
<glyph unicode="D" horiz-adv-x="834" d="M33 0v91h56q34 0 43 12q6 8 7.5 19t1.5 63v297q0 52 -1.5 63t-7.5 19q-9 12 -43 12h-56v91h414q84 0 136.5 -14.5t99.5 -49.5q118 -90 118 -263q0 -105 -43 -182.5t-123 -117.5t-214 -40h-388zM336 91h66q95 0 137 55q23 30 32.5 72t9.5 117q0 87 -13 136t-44 75 q-35 30 -123 30h-65v-485z" />
<glyph unicode="E" horiz-adv-x="770" d="M33 0v91h56q34 0 43 12q6 8 7.5 19t1.5 63v297q0 52 -1.5 63t-7.5 19q-9 12 -43 12h-56v91h687v-257h-105q0 78 -30 123q-20 30 -59 39q-16 4 -58 4h-132v-189h34q53 0 69 42q7 18 7 62h88v-300h-88v20q0 46 -18.5 66.5t-60.5 20.5h-31v-207h110q71 0 87 5q24 7 43.5 29 t27.5 50q9 31 11 98h105v-273h-687z" />
<glyph unicode="F" horiz-adv-x="715" d="M33 0v91h56q34 0 43 12q6 8 7.5 19t1.5 63v297q0 52 -1.5 63t-7.5 19q-9 12 -43 12h-56v91h684v-260h-104v13q0 64 -22 106q-15 28 -40 39t-75 11h-140v-190h37q77 0 77 93v11h88v-303h-88q0 43 -2.5 58t-12.5 27q-20 25 -61 25h-38v-112q0 -52 1.5 -63t7.5 -19 q9 -12 43 -12h56v-91h-411z" />
<glyph unicode="G" horiz-adv-x="787" d="M158 52q-60 46 -92.5 119t-32.5 161q0 158 93 254t246 96q69 0 109.5 -15.5t68.5 -52.5l16 53h104v-254h-104q-8 78 -33 116q-38 58 -115 58q-80 0 -122.5 -67t-42.5 -194q0 -139 66 -205q41 -41 98 -41q81 0 81 76v2v7q0 52 -1.5 63t-7.5 19q-9 12 -43 12h-42v91h364 v-91h-30q-34 0 -43 -12q-6 -8 -7.5 -19t-1.5 -63v-165h-88l-20 55q-57 -70 -190 -70q-142 0 -230 67z" />
<glyph unicode="H" horiz-adv-x="893" d="M33 0v91h56q34 0 43 12q6 8 7.5 19t1.5 63v297q0 52 -1.5 63t-7.5 19q-9 12 -43 12h-56v91h389v-91h-34q-34 0 -43 -12q-6 -8 -7.5 -19t-1.5 -63v-91h220v91q0 52 -1.5 63t-7.5 19q-9 12 -43 12h-34v91h389v-91h-56q-34 0 -43 -12q-6 -8 -7.5 -19t-1.5 -63v-297 q0 -52 1.5 -63t7.5 -19q9 -12 43 -12h56v-91h-389v91h34q34 0 43 12q6 9 7.5 20t1.5 62v115h-220v-115q0 -51 1.5 -62t7.5 -20q9 -12 43 -12h34v-91h-389z" />
<glyph unicode="I" horiz-adv-x="474" d="M33 0v91h56q34 0 43 12q6 8 7.5 19t1.5 63v297q0 52 -1.5 63t-7.5 19q-9 12 -43 12h-56v91h407v-91h-56q-34 0 -43 -12q-6 -8 -7.5 -19t-1.5 -63v-297q0 -52 1.5 -63t7.5 -19q9 -12 43 -12h56v-91h-407z" />
<glyph unicode="J" horiz-adv-x="613" d="M78 132q16 -28 39 -40t60 -12q71 0 96 40q17 26 17 109v253q0 52 -1.5 63t-7.5 19q-9 12 -43 12h-56v91h415v-91h-60q-34 0 -43 -12q-6 -8 -7.5 -19t-1.5 -63v-278q0 -58 -11.5 -93t-39.5 -63q-62 -63 -183 -63q-120 0 -189 49t-69 134q0 54 31 89t79 35q40 0 66.5 -26.5 t26.5 -65.5q0 -35 -21.5 -58t-54.5 -23q-17 0 -42 13z" />
<glyph unicode="K" horiz-adv-x="851" d="M33 0v91h56q34 0 43 12q6 9 7.5 20t1.5 62v297q0 52 -1.5 63t-7.5 19q-9 12 -43 12h-56v91h389v-91h-34q-34 0 -43 -12q-6 -8 -7.5 -19t-1.5 -63v-127l200 178q22 19 22 29q0 14 -25 14h-61v91h360v-92h-35q-31 0 -51 -10.5t-66 -50.5l-105 -92l164 -273q26 -42 36.5 -50 t43.5 -8h35v-91h-382v91h38q20 0 27 3.5t7 13.5q0 9 -14 32l-98 158l-96 -88v-25q0 -51 1 -62t7 -20q10 -12 44 -12h35v-91h-390z" />
<glyph unicode="L" horiz-adv-x="674" d="M33 0v91h56q34 0 43 12q6 8 7.5 19t1.5 63v297q0 52 -1.5 63t-7.5 19q-9 12 -43 12h-56v91h411v-91h-56q-34 0 -43 -12q-6 -8 -7.5 -19t-1.5 -63v-391h119q41 0 63 10.5t39 38.5q24 41 27 133h100v-273h-651z" />
<glyph unicode="M" horiz-adv-x="1055" d="M33 0v91h56q34 0 43 12q6 9 7.5 20t1.5 62v297q0 52 -1.5 63t-7.5 19q-9 12 -43 12h-56v91h389l105 -405l106 405h389v-91h-56q-34 0 -43 -12q-6 -8 -7.5 -19t-1.5 -63v-297q0 -51 1.5 -62t7.5 -20q9 -12 43 -12h56v-91h-389v91h34q34 0 43 12q6 8 7.5 19t1.5 63v374 l-153 -559h-157l-155 559v-374q0 -52 1.5 -63t7.5 -19q9 -12 43 -12h34v-91h-307z" />
<glyph unicode="N" horiz-adv-x="863" d="M33 0v91h56q34 0 43 12q6 9 7.5 20t1.5 62v297q0 52 -1.5 63t-7.5 19q-9 12 -43 12h-56v91h335l254 -461v276q0 52 -1.5 63t-7.5 19q-9 12 -43 12h-61v91h334v-91h-56q-34 0 -43 -12q-6 -8 -7.5 -19t-1.5 -63v-482h-216l-265 486v-301q0 -51 1.5 -62t7.5 -20 q9 -12 43 -12h62v-91h-335z" />
<glyph unicode="O" horiz-adv-x="785" d="M33 332q0 88 31.5 160.5t89.5 118.5q92 71 238 71q172 0 265.5 -91.5t93.5 -260.5q0 -157 -96.5 -251t-258.5 -94q-167 0 -265 93.5t-98 253.5zM282 141q35 -67 110 -67q84 0 116 80q23 58 23 177q0 134 -32 195t-103 61q-74 0 -108.5 -62.5t-34.5 -195.5t29 -188z" />
<glyph unicode="P" horiz-adv-x="721" d="M33 0v91h56q34 0 43 12q6 8 7.5 19t1.5 63v297q0 52 -1.5 63t-7.5 19q-9 12 -43 12h-56v91h442q66 0 97.5 -5t64.5 -21q94 -45 94 -156q0 -106 -84 -159q-34 -21 -69 -28t-110 -7h-132v-106q0 -52 1.5 -63t7.5 -19q9 -12 43 -12h56v-91h-411zM336 382h71q64 0 93.5 24 t29.5 76q0 50 -29.5 72t-95.5 22h-69v-194z" />
<glyph unicode="Q" horiz-adv-x="836" d="M162 48q-62 44 -95.5 117.5t-33.5 165.5q0 162 97 256.5t264 94.5q156 0 245 -77q52 -45 81.5 -118t29.5 -157q0 -120 -60 -214q25 -19 50 -19q18 0 29.5 16t11.5 41q0 1 -2 23h57q2 -44 2 -50q0 -86 -26 -124q-27 -43 -91 -43q-36 0 -67 14.5t-71 50.5 q-61 -23 -102.5 -31.5t-96.5 -8.5q-136 0 -222 63zM267 182q5 45 14 64q13 30 41.5 48t64.5 18q68 0 138 -61q5 54 5 92q0 128 -33.5 189t-103.5 61q-140 0 -140 -259q0 -72 14 -152zM305 149q0 -32 24.5 -53.5t61.5 -21.5q47 0 93 42q-23 25 -36 36q-34 31 -52.5 41 t-39.5 10q-23 0 -37 -15t-14 -39z" />
<glyph unicode="R" horiz-adv-x="807" d="M33 0v91h56q34 0 43 12q6 8 7.5 19t1.5 63v297q0 52 -1.5 63t-7.5 19q-9 12 -43 12h-56v91h446q80 0 114.5 -7t65.5 -29q65 -46 65 -125q0 -41 -19 -76t-53 -54q-29 -17 -92 -28q76 -11 102 -39t26 -97v-69q0 -33 6 -46t22 -13q17 0 22.5 15t5.5 64v24h65 q0 -10 0.5 -21.5t1 -18t0.5 -11.5q0 -72 -40 -111.5t-113 -39.5q-170 0 -167 198l1 65q0 36 -23 48q-12 6 -50 6h-83v-117q0 -51 1.5 -62t7.5 -20q9 -12 43 -12h56v-91h-411zM336 389l68 -1q65 -1 88 15q33 23 33 80q0 50 -25 71.5t-83 21.5h-81v-187z" />
<glyph unicode="S" horiz-adv-x="690" d="M40 0v258h101q8 -46 23.5 -72t47.5 -52q69 -54 160 -54q49 0 78.5 20t29.5 54q0 35 -27.5 53.5t-97.5 32.5q-149 27 -223 68q-92 49 -92 162q0 98 74 155t203 57q71 0 119.5 -15.5t91.5 -52.5l19 53h89v-249h-98q-10 75 -55 115q-54 48 -141 48q-55 0 -88.5 -20 t-33.5 -53q0 -30 27.5 -46t103.5 -30q98 -18 141.5 -32t83.5 -39q87 -54 87 -164q0 -101 -73 -158q-70 -54 -196 -54q-76 0 -128.5 14.5t-113.5 51.5l-19 -51h-93z" />
<glyph unicode="T" horiz-adv-x="662" d="M121 0v91h56q34 0 43 12q6 8 7.5 19t1.5 63v391q-67 2 -99.5 -40t-31.5 -129h-104v260h674v-260h-107v24q0 145 -112 145h-21v-391q0 -52 1.5 -63t7.5 -19q9 -12 43 -12h56v-91h-415z" />
<glyph unicode="U" horiz-adv-x="807" d="M169 65q-25 28 -34.5 61.5t-9.5 88.5v267q0 52 -1.5 63t-7.5 19q-9 12 -43 12h-56v91h407v-91h-52q-34 0 -43 -12q-6 -8 -7.5 -19t-1.5 -63v-233q0 -59 3 -80t13 -39q29 -50 110 -50q73 0 100 39q23 32 23 130v233q0 52 -1.5 63t-7.5 19q-9 12 -43 12h-48v91h321v-91h-56 q-34 0 -43 -12q-6 -8 -7.5 -19t-1.5 -63v-267q0 -61 -12 -97t-43 -67q-65 -66 -213 -66q-177 0 -245 80z" />
<glyph unicode="V" horiz-adv-x="705" d="M248 0l-146 477q-21 69 -34 84t-52 15h-31v91h387v-91h-48q-27 0 -35.5 -5t-8.5 -19q0 -9 8 -36l105 -365l109 373q7 26 7 32q1 12 -9 16t-40 4h-42v91h302v-91h-30q-34 0 -48 -16.5t-34 -82.5l-148 -477h-212z" />
<glyph unicode="W" horiz-adv-x="1024" d="M233 0l-145 496q-15 51 -28.5 65.5t-45.5 14.5h-36v91h345v-91h-27q-31 0 -31 -19q0 -5 5 -25l106 -381l96 315l-7 30q-9 37 -13.5 47.5t-12.5 18.5q-13 14 -41 14h-25v91h344v-91h-41q-34 0 -34 -22q0 -8 3 -22l96 -381l97 368q4 13 4 29t-8 22t-31 6h-40v91h284v-91 h-29q-30 0 -44 -16t-28 -64l-136 -496h-210l-76 273l-80 -273h-211z" />
<glyph unicode="X" horiz-adv-x="743" d="M-7 0v91h40q31 0 53 16t63 66l115 142l-134 188q-37 51 -44 57q-19 16 -44 16h-36v91h371v-91h-32q-26 0 -26 -15q0 -9 13 -29l65 -96l75 96q14 17 14 28q0 16 -29 16h-34v91h293v-91h-29q-32 0 -50 -15q-18 -16 -51 -56l-113 -137l144 -197q41 -56 51 -65q16 -15 48 -15 h34v-91h-394v91h41q36 0 36 16q0 7 -10 23l-78 119l-90 -119q-13 -17 -13 -25q0 -14 22 -14h47v-91h-318z" />
<glyph unicode="Y" horiz-adv-x="707" d="M144 0v91h65q34 0 43 12q6 9 7.5 20t1.5 62v76l-147 234q-39 62 -44 66q-17 15 -46 15h-38v91h396v-91h-42q-35 0 -35 -17q0 -6 11 -27l85 -155l88 155q12 20 12 29q0 15 -31 15h-43v91h295v-91h-38q-31 0 -48 -23q-9 -9 -40 -58l-150 -234v-76q0 -52 1.5 -63t7.5 -19 q9 -12 43 -12h65v-91h-419z" />
<glyph unicode="Z" horiz-adv-x="684" d="M36 0v114l378 455h-141q-44 0 -66 -13.5t-39 -51.5q-17 -40 -17 -98h-100v261h599v-98l-393 -478h137q54 0 82 12t45 43q21 36 24 121h105v-267h-614z" />
<glyph unicode="[" horiz-adv-x="362" d="M57 -196v863h279v-83h-103v-698h103v-82h-279z" />
<glyph unicode="\" horiz-adv-x="391" d="M305 -206l-264 873h104l266 -873h-106z" />
<glyph unicode="]" horiz-adv-x="362" d="M27 -114h103v698h-103v83h279v-863h-279v82z" />
<glyph unicode="^" d="M5 277l189 394h112l189 -394h-121l-124 252l-124 -252h-121z" />
<glyph unicode="_" d="M0 -46h500v-79h-500v79z" />
<glyph unicode="`" d="M230 520l-127 117q-14 14 -14 23q0 19 37 19h116l56 -159h-68z" />
<glyph unicode="a" horiz-adv-x="599" d="M42 115q0 63 45 92q30 21 115 37q82 15 110 33.5t28 58.5q0 34 -29 53.5t-78 19.5q-58 0 -89 -30q20 4 32 4q24 0 38.5 -14.5t14.5 -39.5q0 -28 -20.5 -45t-53.5 -17q-39 0 -64.5 23t-25.5 58q0 54 49 85q57 37 176 37q144 0 188 -55q18 -23 24 -48t6 -79v-158 q0 -32 4.5 -43.5t17.5 -11.5q15 0 20.5 13t5.5 48q0 17 -1 31h50q3 -51 3 -67q0 -54 -25 -79q-34 -36 -109 -36q-65 0 -102 28q-21 16 -29 52q-39 -80 -146 -80q-73 0 -114 34t-41 96zM213 126q0 -23 15 -37t39 -14q31 0 50.5 21t19.5 55v80q-25 -23 -51 -34 q-46 -21 -56 -31q-17 -17 -17 -40z" />
<glyph unicode="b" horiz-adv-x="625" d="M83 -6v495q0 59 -1 69.5t-8 16.5q-8 6 -38 6h-22v86h244v-275q32 43 64.5 60.5t79.5 17.5q100 0 152 -79q39 -58 39 -155q0 -121 -52 -186t-149 -65q-77 0 -122 32q-21 15 -41 47l-26 -70h-120zM254 224q0 -69 21 -109t57 -40q77 0 77 157q0 148 -75 148 q-37 0 -58.5 -42.5t-21.5 -113.5z" />
<glyph unicode="c" horiz-adv-x="533" d="M33 231q0 109 68 174t181 65q94 0 154.5 -45.5t60.5 -116.5q0 -45 -28.5 -74.5t-71.5 -29.5q-37 0 -62 22.5t-25 56.5q0 28 18.5 49.5t43.5 21.5q4 0 18 -2q-31 28 -68 28q-51 0 -78 -40.5t-27 -116.5q0 -148 95 -148q74 0 78 99h105q-12 -97 -62 -143t-145 -46 q-118 0 -186.5 66.5t-68.5 179.5z" />
<glyph unicode="d" horiz-adv-x="630" d="M33 227q0 64 18 118t50 83q45 42 118 42q51 0 85 -19t67 -66v104q0 57 -1.5 69t-7.5 17q-8 6 -38 6h-36v86h254v-491q0 -56 1.5 -68t7.5 -18q8 -6 36 -6h32v-84h-248v72q-23 -48 -54.5 -67.5t-84.5 -19.5q-92 0 -145.5 65t-53.5 177zM289 75q39 0 61.5 42.5t22.5 115.5 q0 67 -22 107t-60 40t-58.5 -41.5t-20.5 -117.5q0 -70 20 -108t57 -38z" />
<glyph unicode="e" horiz-adv-x="552" d="M114 41q-38 34 -59.5 84.5t-21.5 105.5q0 106 68 173t175 67q239 0 242 -268h-307v-17q0 -51 24.5 -81t66.5 -30q75 0 85 83h123q-22 -85 -81 -129t-151 -44q-102 0 -164 56zM212 280h138q-2 47 -11 68q-15 33 -55 33q-34 0 -50.5 -23.5t-21.5 -77.5z" />
<glyph unicode="f" horiz-adv-x="397" d="M35 0v87h32q32 0 39 7q6 6 7 17.5t1 67.5v190h-79v87h79v55q0 170 193 170q74 0 118.5 -30t44.5 -79q0 -34 -21.5 -54.5t-56.5 -20.5q-31 0 -50.5 16.5t-19.5 42.5q0 23 11 35.5t38 20.5q-13 6 -26 6q-65 0 -65 -68q0 -12 3 -65l2 -29h86v-87h-86v-190q0 -59 1 -70t8 -16 q8 -6 39 -6h37v-87h-335z" />
<glyph unicode="g" horiz-adv-x="618" d="M32 49q0 39 20.5 61.5t66.5 35.5q-40 32 -56 62t-16 72q0 83 62.5 136.5t159.5 53.5q49 0 83 -10.5t76 -38.5q30 31 51.5 42.5t50.5 11.5q46 0 76.5 -27.5t30.5 -68.5q0 -33 -18.5 -53.5t-47.5 -20.5q-27 0 -44.5 18.5t-17.5 46.5q0 25 22 51q-16 2 -18 2q-31 0 -58 -31 q34 -54 34 -103q0 -80 -62 -131t-160 -51q-55 0 -118 20q-14 -13 -14 -26q0 -45 101 -42l141 5q88 3 139 -35q45 -35 45 -98q0 -66 -48 -100q-62 -43 -217 -43q-278 0 -278 97q0 28 18.5 45t61.5 28q-37 19 -51.5 39t-14.5 52zM267 164q59 0 59 124q0 67 -13.5 97t-42.5 30 q-60 0 -60 -131q0 -57 15 -88.5t42 -31.5zM146 -103q0 -41 154 -41q87 0 122 16q21 9 21 27q0 20 -35.5 28t-128.5 8q-73 0 -103 -8.5t-30 -29.5z" />
<glyph unicode="h" horiz-adv-x="677" d="M27 0v87h34q31 0 39 7q6 6 7 17.5t1 67.5v310q0 57 -1.5 69t-7.5 17q-7 6 -38 6h-34v86h252v-273q49 76 160 76q97 0 137 -51q16 -19 20 -40.5t4 -78.5v-121q0 -59 1 -70t8 -16q6 -6 38 -6h27v-87h-300v87h5q31 0 38 7q6 6 7 17.5t1 67.5v70q0 58 -2.5 77.5t-11.5 31.5 q-17 22 -55 22q-37 0 -57 -22.5t-20 -64.5v-114q0 -57 1.5 -69t8.5 -17q6 -6 38 -6h11v-87h-311z" />
<glyph unicode="i" horiz-adv-x="366" d="M195 490q-38 0 -64.5 27t-26.5 65t27 64.5t66 26.5q37 0 63.5 -27t26.5 -64q0 -38 -27 -65t-65 -27zM33 0v87h34q33 0 40 9q5 6 6 17.5t1 65.5v98q0 57 -1.5 69t-7.5 17q-7 6 -38 6h-34v87h252v-277q0 -59 1 -70t8 -16q8 -6 37 -6h31v-87h-329z" />
<glyph unicode="j" horiz-adv-x="378" d="M214 490q-38 0 -65 27t-27 66q0 37 27.5 64t65.5 27q37 0 64 -27t27 -65t-27 -65t-65 -27zM23 -15q34 0 54 -19t20 -52q0 -40 -35 -63q12 -5 20 -5q23 0 36.5 18.5t13.5 50.5q0 20 -1 30q0 8 -0.5 17.5t-1 14t-0.5 6.5v294q0 59 -1 70t-8 16q-8 6 -38 6h-39v87h257v-473 q0 -53 -4 -76.5t-15 -45.5q-20 -37 -63.5 -57.5t-102.5 -20.5q-79 0 -128 32.5t-49 85.5q0 37 24 60.5t61 23.5z" />
<glyph unicode="k" horiz-adv-x="675" d="M27 0v87h34q32 0 39 7q6 5 7 15.5t1 69.5v310q0 59 -1 70t-8 16q-7 6 -38 6h-34v86h252v-427l121 104q8 6 8 13q0 12 -24 12h-44v87h306v-87h-44q-33 0 -64 -24l-54 -44l104 -169q16 -26 31.5 -35.5t42.5 -9.5h30v-87h-327v87h28q19 0 19 12q0 6 -17 33l-41 66l-75 -66 q0 -29 5.5 -37t25.5 -8h17v-87h-300z" />
<glyph unicode="l" horiz-adv-x="367" d="M27 0v87h34q32 0 39 7q6 5 7 15.5t1 69.5v310q0 59 -1 70t-8 16q-7 6 -38 6h-34v86h252v-488q0 -57 1.5 -69t7.5 -17q6 -6 38 -6h31v-87h-330z" />
<glyph unicode="m" horiz-adv-x="961" d="M33 0v87h33q34 0 40 9q5 6 6 16.5t1 66.5v98q0 59 -1 70t-8 16q-8 6 -38 6h-33v87h248v-77q23 45 53 64q40 28 104 28q82 0 118 -45q12 -17 23 -47q45 92 155 92q100 0 132 -60q10 -19 13 -41.5t3 -80.5v-110q0 -59 1 -70t8 -16q7 -6 38 -6h28v-87h-296v87h16q19 0 25 9 q7 10 7 30v11v42v106q0 56 -9 71q-16 26 -52 26t-55 -29q-14 -22 -14 -68v-106v-48q0 -27 6 -35.5t26 -8.5h15v-87h-264v87h19q19 0 25 9q7 10 7 30v53v106q0 54 -13.5 75t-48.5 21q-70 0 -70 -96v-106v-48q0 -30 7.5 -37t39.5 -7v-87h-295z" />
<glyph unicode="n" horiz-adv-x="673" d="M33 0v86h31q32 0 39 7q6 6 7 16.5t1 69.5v98q0 59 -1 70t-8 17q-8 6 -38 6h-31v86h247v-66q33 46 67 63.5t93 17.5q101 0 135 -53q14 -21 17.5 -44.5t3.5 -88.5v-106q0 -59 1 -70t8 -17t38 -6h26v-86h-297v86h4q32 0 39 7q6 6 7 18t1 68v105q0 44 -10 64q-17 33 -58 33 q-35 0 -55 -25.5t-20 -71.5v-105q0 -59 1 -70t8 -17t38 -6h7v-86h-301z" />
<glyph unicode="o" horiz-adv-x="591" d="M111 46q-78 69 -78 181t70 177.5t191 65.5t192.5 -65.5t71.5 -176.5q0 -122 -92 -192q-67 -51 -171 -51q-113 0 -184 61zM294 68q42 0 61.5 41t19.5 131q0 78 -18 112.5t-58 34.5q-83 0 -83 -163q0 -82 18.5 -119t59.5 -37z" />
<glyph unicode="p" horiz-adv-x="640" d="M98 -28v305q0 59 -1 70t-8 16q-7 7 -38 7h-31v86h249v-70q27 46 61 65.5t86 19.5q89 0 139.5 -63.5t50.5 -176.5q0 -136 -64 -202q-43 -44 -124 -44q-53 0 -84.5 16t-64.5 60v-89q0 -59 1 -70t8 -16q8 -6 38 -6h28v-86h-331v86h38q32 0 39 7q6 5 7 16t1 69zM270 214 q0 -69 20.5 -107.5t56.5 -38.5q76 0 76 154q0 82 -18 120.5t-56 38.5t-58.5 -43.5t-20.5 -123.5z" />
<glyph unicode="q" horiz-adv-x="636" d="M33 223q0 113 55.5 180.5t149.5 67.5q48 0 77 -16.5t58 -60.5v62h249v-86h-31q-32 0 -39 -7q-6 -6 -7 -18t-1 -68v-305q0 -57 1.5 -69t7.5 -17q7 -6 38 -6h31v-86h-333v86h37q32 0 39 7q6 6 7 16.5t1 68.5v93q-29 -44 -62.5 -62t-83.5 -18q-89 0 -141.5 64t-52.5 174z M293 75q83 0 83 158q0 148 -82 148q-78 0 -78 -163q0 -143 77 -143z" />
<glyph unicode="r" horiz-adv-x="490" d="M33 0v87h36q32 0 39 7q6 5 7 15.5t1 69.5v98q0 59 -1 70t-8 16q-6 6 -38 6h-36v87h249v-87q20 42 40 66q30 36 79 36q46 0 73 -29.5t27 -78.5q0 -44 -23.5 -71t-61.5 -27q-34 0 -55 21t-21 53q0 47 44 61q-14 4 -19 4q-16 1 -34.5 -14.5t-30.5 -38.5q-18 -35 -18 -109 v-63q0 -59 1 -70t8 -16q6 -6 38 -6h34v-87h-330z" />
<glyph unicode="s" horiz-adv-x="530" d="M37 0v166h79q15 -46 52 -69q46 -29 102 -29q65 0 65 37q0 15 -15 24.5t-56 19.5q-121 32 -165 58q-67 39 -67 112q0 71 59 111.5t162 40.5q46 0 77.5 -8.5t70.5 -31.5l9 25h70v-153h-79q-19 85 -128 85q-66 0 -66 -40q0 -26 75 -44q125 -32 171 -61q49 -32 49 -96 q0 -73 -55.5 -117.5t-146.5 -44.5q-100 0 -175 51l-9 -36h-79z" />
<glyph unicode="t" horiz-adv-x="465" d="M145 35q-20 23 -27.5 51t-7.5 85v198h-91v81q145 10 145 193h117v-187h120v-87h-120v-198q0 -56 7.5 -76t29.5 -20q21 0 29.5 19t8.5 67v64h85v-49q0 -59 -6 -87t-25 -53q-38 -51 -127 -51q-93 0 -138 50z" />
<glyph unicode="u" horiz-adv-x="643" d="M107 30q-19 23 -24 46.5t-5 91.5v109q0 57 -1.5 69t-7.5 17q-7 6 -38 6h-28v87h242v-283q0 -56 14.5 -78t51.5 -22q79 0 79 100v104q0 59 -1 70t-8 16q-7 6 -38 6h-36v87h250v-277q0 -59 1 -70t8 -16q8 -6 38 -6h35v-87h-249v67q-44 -82 -156 -82q-90 0 -127 45z" />
<glyph unicode="v" horiz-adv-x="582" d="M191 0l-104 305q-13 40 -25 52t-38 12h-27v87h321v-87h-33q-20 0 -27 -4t-7 -14q0 -9 6 -25l75 -222l77 222q5 17 5 26q0 17 -25 17h-35v87h231v-87h-22q-28 0 -41.5 -12.5t-26.5 -51.5l-106 -305h-198z" />
<glyph unicode="w" horiz-adv-x="833" d="M169 0l-88 304q-11 38 -23 52t-34 14h-29v86h292v-86h-15q-31 0 -31 -18q0 -11 2 -16l59 -223l65 223q4 13 4 20q0 14 -25 14h-23v86h277v-86h-22q-27 0 -27 -17q0 -7 3 -17l60 -223l64 223q3 12 3 17q0 17 -22 17h-23v86h200v-86h-20q-27 0 -35.5 -10t-22.5 -56 l-88 -304h-189l-63 221l-62 -221h-187z" />
<glyph unicode="x" horiz-adv-x="617" d="M1 0v87h35q25 0 39.5 8t53.5 45l85 80l-102 107q-40 43 -75 43h-26v86h323v-86h-18q-17 0 -17 -9q0 -8 9 -17l42 -43l52 45q7 7 7 14q0 10 -17 10h-22v86h239v-86h-23q-27 0 -40.5 -6.5t-46.5 -34.5l-97 -83l101 -106q36 -38 48.5 -45.5t38.5 -7.5h26v-87h-332v87h15 q24 0 24 11q0 6 -7 15l-49 54l-53 -53q-8 -8 -8 -15q0 -12 17 -12h21v-87h-243z" />
<glyph unicode="y" horiz-adv-x="597" d="M5 -96q0 44 26.5 72.5t67.5 28.5q36 0 58.5 -21t22.5 -54q0 -31 -17.5 -50t-46.5 -19q-10 0 -16 1q23 -16 44 -16q33 0 59.5 26.5t55.5 88.5l-158 344q-19 41 -25 49q-12 15 -39 15h-37v87h337v-87h-37q-17 0 -23 -3t-6 -11q0 -7 7 -24l72 -182l78 182q6 16 6 22 q0 16 -28 16h-36v87h231v-87h-27q-21 0 -32.5 -12t-29.5 -52l-155 -344q-49 -109 -94 -142q-49 -35 -116 -35q-65 0 -103.5 32.5t-38.5 87.5z" />
<glyph unicode="z" horiz-adv-x="506" d="M26 0v104l239 265h-69q-49 0 -62 -26q-8 -16 -10 -82h-87v195h442v-87l-249 -282h62q59 0 81 23q18 19 18 72v35h88v-217h-453z" />
<glyph unicode="{" d="M126 -58v155q0 44 -12 63.5t-43 25.5v92q32 7 43.5 26t11.5 64v155q0 78 35 111t118 33q21 0 111 -2v-90l-19 1q-44 3 -62 -9q-13 -8 -15.5 -19.5t-2.5 -64.5v-125q0 -50 -12 -75.5t-48 -50.5q34 -22 47 -49t13 -77v-124q0 -61 5 -71q7 -13 23 -17.5t52 -4.5h19v-89 q-92 -3 -113 -3q-82 0 -116.5 33t-34.5 112z" />
<glyph unicode="|" d="M193 -167v834h115v-834h-115z" />
<glyph unicode="}" d="M110 -111h19q49 0 62 9q13 7 15.5 18.5t2.5 65.5v124q0 50 13 77t47 49q-36 25 -48 50.5t-12 75.5v125q0 61 -5 71q-15 26 -75 22l-19 -1v90q64 2 112 2q82 0 117 -33t35 -111v-155q0 -45 11.5 -64t43.5 -26v-92q-31 -6 -43 -25.5t-12 -63.5v-155q0 -79 -34.5 -112 t-117.5 -33q-42 0 -112 3v89z" />
<glyph unicode="~" horiz-adv-x="664" d="M141 574l-52 61q37 66 68.5 93t72.5 27q36 0 119 -36q71 -31 89 -31q23 0 41.5 17t43.5 60l53 -60q-38 -64 -68 -89t-70 -25q-21 0 -40 6.5t-112 45.5q-36 15 -55 15q-25 0 -44.5 -18t-45.5 -66z" />
<glyph unicode="&#xa1;" horiz-adv-x="311" d="M149 304q-34 0 -58 24t-24 58t24 57.5t59 23.5q32 0 56 -24t24 -57q0 -34 -24 -58t-57 -24zM79 62q9 59 23 193h93q13 -111 50 -288q6 -29 6 -66q0 -56 -25 -88t-69 -32t-70.5 33t-26.5 88q0 32 19 160z" />
<glyph unicode="&#xa2;" horiz-adv-x="627" d="M294 19v75q-211 33 -211 233q0 137 97 203q44 30 114 39v63h67v-63q84 -9 133 -51.5t49 -106.5q0 -47 -26.5 -75t-70.5 -28q-38 0 -63 22t-25 56q0 30 18.5 51.5t45.5 20.5l18 -1q-24 28 -64 28q-59 0 -85.5 -36.5t-26.5 -119.5q0 -155 98 -155q40 0 58.5 23.5t19.5 73.5 h102q4 -74 -44.5 -122t-136.5 -55v-75h-67z" />
<glyph unicode="&#xa3;" horiz-adv-x="627" d="M61 87q53 37 72 61t19 55q0 39 -28 80h-63v65h31q-23 47 -23 84q0 82 76.5 134.5t195.5 52.5q117 0 192.5 -49.5t75.5 -125.5q0 -44 -27 -72.5t-69 -28.5q-38 0 -64.5 25t-26.5 60q0 28 19 47t48 19q10 0 16 -1q-23 21 -46.5 29t-61.5 8q-63 0 -101.5 -23.5t-38.5 -61.5 q0 -18 4 -30t25 -52l2 -3q2 -2 3 -5.5t3 -6.5h83v-65h-62q6 -19 6 -38q0 -30 -13 -50t-56 -57q51 14 74 14q43 0 99 -42q35 -25 55 -25q24 0 35 22q7 14 8 57h83v-19q0 -74 -36 -117t-98 -43q-47 0 -126 31q-69 27 -110 27q-31 0 -54 -9.5t-58 -37.5z" />
<glyph unicode="&#xa4;" horiz-adv-x="667" d="M91 68l-69 69l102 103q-44 64 -44 137q0 70 45 138l-104 103l70 70l103 -104q68 44 141 44q70 0 137 -42l103 101l69 -69l-102 -102q46 -70 46 -139q0 -72 -44 -137l103 -103l-69 -69l-103 102q-65 -45 -142 -45q-68 0 -140 45zM334 239q56 0 96.5 40.5t40.5 97.5 q0 56 -40 96.5t-95 40.5q-58 0 -98.5 -40t-40.5 -98q0 -56 40.5 -96.5t96.5 -40.5z" />
<glyph unicode="&#xa5;" horiz-adv-x="627" d="M124 0v91h45q34 0 43 12q6 9 7.5 20t1.5 62v12h-151v67h149l-50 79h-112v67h70l-16 25q-39 61 -44 66q-18 15 -46 15h-18v91h329v-91h-22q-35 0 -35 -17q0 -9 11 -27l68 -117l70 117q12 21 12 29q0 15 -31 15h-16v91h234v-91h-18q-31 0 -49 -23l-1 -1q-1 -2 -3.5 -5.5 l-6.5 -9l-11.5 -16.5t-16.5 -26l-16 -25h71v-67h-115l-53 -79h155v-67h-157v-12q0 -52 1.5 -63t7.5 -19q9 -12 43 -12h45v-91h-375z" />
<glyph unicode="&#xa6;" d="M193 321v346h115v-346h-115zM193 153h115v-320h-115v320z" />
<glyph unicode="&#xa7;" horiz-adv-x="626" d="M72 -56q0 34 26 58.5t63 24.5q34 0 55.5 -18.5t21.5 -48.5t-34 -60q32 -20 75 -20q59 0 99 25.5t40 63.5q0 33 -27 51.5t-103 38.5q-115 30 -162 56q-75 41 -75 119q0 50 27.5 88.5t76.5 57.5q-69 49 -69 122q0 77 68.5 128t171.5 51q91 0 149 -34.5t58 -88.5 q0 -34 -23 -56.5t-58 -22.5q-32 0 -54 17.5t-22 43.5q0 18 20 46q1 1 4 7q-36 16 -74 16q-49 0 -82.5 -22t-33.5 -54q0 -31 36 -51q22 -12 172 -58q80 -24 118 -61.5t38 -91.5q0 -46 -25 -80t-81 -65q43 -26 61 -54.5t18 -68.5q0 -87 -72 -141t-188 -54q-94 0 -154.5 38.5 t-60.5 97.5zM232 204q111 -41 154 -41q28 0 49 20t21 47q0 42 -64 68q-118 46 -154 46q-30 0 -51 -19.5t-21 -47.5q0 -23 17.5 -42.5t48.5 -30.5z" />
<glyph unicode="&#xa8;" d="M351 525q-30 0 -51 21.5t-21 51.5q0 29 21.5 50t51.5 21q29 0 50 -21.5t21 -50.5t-21 -50.5t-51 -21.5zM149 525q-30 0 -51 21t-21 52q0 29 21.5 50t51.5 21q29 0 50 -21.5t21 -50.5q0 -30 -21 -51t-51 -21z" />
<glyph unicode="&#xa9;" horiz-adv-x="760" d="M33 333q0 146 102 247.5t250 101.5q139 0 240 -103t101 -246q0 -144 -101.5 -246t-244.5 -102t-245 102.5t-102 245.5zM102 333q0 -118 81.5 -202t196.5 -84q114 0 195 84t81 202q0 117 -80.5 201.5t-191.5 84.5q-118 0 -200 -83t-82 -203zM190 331q0 87 51.5 138.5 t138.5 51.5q63 0 96 -34l7 26h62v-144h-62q-3 95 -80 95q-40 0 -62.5 -33.5t-22.5 -94.5q0 -65 22.5 -99.5t64.5 -34.5q74 0 78 100h62q0 -76 -42.5 -116.5t-122.5 -40.5q-89 0 -139.5 49.5t-50.5 136.5z" />
<glyph unicode="&#xaa;" horiz-adv-x="400" d="M135 257q-47 0 -75 22t-28 59q0 33 25 53q20 16 80 26q49 8 67.5 19t18.5 31q0 19 -17.5 30t-47.5 11q-29 0 -42 -8l-2 -1q3 1 9 1q16 0 26 -10t10 -26q0 -18 -14 -29t-37 -11q-26 0 -43.5 14.5t-17.5 36.5q0 76 149 76q93 0 121 -34q20 -24 20 -77v-93q0 -29 11 -29 q8 0 10.5 7.5t2.5 33.5q0 8 -1 13h39q2 -27 2 -42q0 -72 -89 -72q-41 0 -67 17q-7 4 -16 20l-3 4l-1 -1q-8 -17 -33.5 -29t-56.5 -12zM180 318q19 0 30 11.5t11 29.5v40q-13 -9 -28 -15q-26 -11 -35 -19t-9 -20t8.5 -19.5t22.5 -7.5z" />
<glyph unicode="&#xab;" horiz-adv-x="398" d="M278 85q-63 84 -63 148q0 58 63 142h77q-39 -79 -39 -147q0 -66 39 -143h-77zM106 85q-62 85 -62 148q0 32 13.5 63.5t48.5 78.5h77q-38 -82 -38 -148t38 -142h-77z" />
<glyph unicode="&#xac;" d="M32 129v105h434v-234h-115v129h-319z" />
<glyph unicode="&#xad;" horiz-adv-x="260" d="M0 180v119h260v-119h-260z" />
<glyph unicode="&#xae;" horiz-adv-x="760" d="M33 333q0 146 102 247.5t250 101.5q139 0 240 -103t101 -246q0 -144 -101.5 -246t-244.5 -102t-245 102.5t-102 245.5zM102 333q0 -118 81.5 -202t196.5 -84q114 0 195 84t81 202q0 117 -80.5 201.5t-191.5 84.5q-118 0 -200 -83t-82 -203zM183 153v55h27q18 0 21.5 6.5 t3.5 40.5v157q0 34 -3.5 40t-21.5 6h-27v55h235q45 0 64 -3.5t37 -16.5q37 -24 37 -66q0 -21 -10.5 -42.5t-24.5 -28.5l-29 -10q-5 -2 -6 -4l2 -2q1 -1 10 -3q38 -8 38 -68v-37q0 -28 12 -28q8 0 10 7t2 32v13v3h42q2 -15 2 -30q0 -40 -23 -62t-64 -22q-56 0 -78 33 q-12 18 -15 36.5t-3 73.5q0 16 -7 21t-29 5h-36v-59q0 -35 3.5 -41t22.5 -6h24v-55h-216zM349 366h32q33 0 46 10.5t13 36.5q0 24 -13 34.5t-43 10.5h-35v-92z" />
<glyph unicode="&#xaf;" d="M85 547v81h329v-81h-329z" />
<glyph unicode="&#xb0;" d="M251 357q-65 0 -109.5 44.5t-44.5 109.5q0 61 45.5 105t108.5 44q64 0 109 -44.5t45 -106.5q0 -63 -45 -107.5t-109 -44.5zM251 432q31 0 54 23t23 54t-22.5 53.5t-54.5 22.5t-54.5 -22t-22.5 -53q0 -32 22.5 -55t54.5 -23z" />
<glyph unicode="&#xb1;" d="M190 114v167h-183v118h183v174h121v-174h183v-118h-183v-167h-121zM7 -53v119h487v-119h-487z" />
<glyph unicode="&#xb2;" horiz-adv-x="418" d="M29 267q-1 64 25 100.5t100 73.5q57 28 72 42.5t15 39.5q0 53 -70 53q-21 0 -40.5 -8.5t-27.5 -21.5v-2l3 1l24 5q15 0 28 -13q10 -12 10 -28q0 -25 -19 -42.5t-45 -17.5q-29 0 -49 21t-20 51q0 50 48.5 84t120.5 34q75 0 123.5 -34t48.5 -86q0 -89 -137 -121 q-82 -20 -107 -38l-5 -4h3q39 10 46 10q23 0 84 -12q16 -4 31 -4q16 0 23 11t8 38h64l-1 -5q0 -6 1 -13q5 -45 -21 -84q-28 -39 -91 -39q-37 0 -94 22q-40 15 -56 15q-15 0 -20 -5.5t-5 -22.5h-70z" />
<glyph unicode="&#xb3;" horiz-adv-x="418" d="M213 258q-79 0 -130.5 29.5t-51.5 73.5q0 28 19 46.5t48 18.5q26 0 43 -15t17 -38q0 -20 -12.5 -33t-32.5 -13q27 -13 55 -13q38 0 61 16.5t23 44.5q0 33 -31 46q-17 8 -62 9v56h3h13q30 0 47.5 13t17.5 36q0 22 -19.5 35t-51.5 13q-26 0 -55 -15q47 -4 47 -42 q0 -22 -17 -37t-41 -15q-26 0 -44 18t-18 44q0 46 46 74t122 28q77 0 121 -26t44 -71q0 -29 -14 -44.5t-56 -34.5l16 -6q69 -26 69 -84q0 -50 -49 -82t-127 -32z" />
<glyph unicode="&#xb4;" d="M203 520l55 159h117q37 0 37 -19q0 -9 -14 -23l-128 -117h-67z" />
<glyph unicode="&#xb5;" horiz-adv-x="627" d="M53 -30q23 87 23 195v107v20v19q0 34 -7 41.5t-39 7.5h-27v85h236v-277q0 -55 14 -76.5t50 -21.5q77 0 77 98v102q0 58 -1 68.5t-8 15.5q-7 6 -37 6h-35v85h244v-271q0 -58 1 -68.5t8 -15.5q8 -6 37 -6h34v-84h-243v65q-42 -80 -149 -80q-2 0 -36 2l7.5 -19.5t5.5 -13.5 q25 -61 25 -89q0 -35 -27 -56t-72 -21q-44 0 -72 23t-28 58q0 25 19 101z" />
<glyph unicode="&#xb6;" horiz-adv-x="663" d="M216 -92v413h-13q-79 0 -128 47t-49 123q0 105 82 149q51 27 148 27h266v-85h-79v-674h-84v674h-64v-674h-79z" />
<glyph unicode="&#xb7;" horiz-adv-x="239" d="M120 157q-34 0 -58 24t-24 58t24 57.5t59 23.5q32 0 56 -24t24 -57q0 -34 -24 -58t-57 -24z" />
<glyph unicode="&#xb8;" d="M179 -80l57 80h68l-46 -56h5q9 1 19 1q41 0 65 -18.5t24 -49.5q0 -40 -35.5 -65.5t-89.5 -25.5q-50 0 -108 24l20 42q45 -17 69 -17q18 0 29 10t11 27q0 14 -10 24t-24 10q-13 0 -30 -10z" />
<glyph unicode="&#xb9;" horiz-adv-x="418" d="M101 266v61h35q22 0 26 6.5t4 45.5v147h-65v58q80 3 91 46h96v-251q0 -39 4 -45.5t26 -6.5h28v-61h-245z" />
<glyph unicode="&#xba;" horiz-adv-x="395" d="M197 258q-77 0 -124 40t-47 106q0 68 46 107.5t125 39.5t125.5 -39.5t46.5 -106.5q0 -66 -47.5 -106.5t-124.5 -40.5zM196 314q49 0 49 98q0 45 -10.5 64.5t-34.5 19.5q-50 0 -50 -93q0 -89 46 -89z" />
<glyph unicode="&#xbb;" horiz-adv-x="398" d="M214 85q38 84 38 147q0 64 -38 143h77q62 -85 62 -148q0 -57 -62 -142h-77zM42 85q39 81 39 147t-39 143h77q63 -84 63 -148q0 -59 -63 -142h-77z" />
<glyph unicode="&#xbc;" horiz-adv-x="944" d="M101 266v61h35q22 0 26 6.5t4 45.5v147h-65v58q80 3 91 46h96v-251q0 -39 4 -45.5t26 -6.5h28v-61h-245zM262 0l350 600h70l-350 -600h-70zM549 102v59l202 202h106v-200h64v-61h-64v-14q0 -18 5 -22.5t25 -4.5h34v-61h-253v61h38q18 0 23.5 4.5t5.5 22.5v14h-186z M638 163h97v94z" />
<glyph unicode="&#xbd;" horiz-adv-x="944" d="M101 266v61h35q22 0 26 6.5t4 45.5v147h-65v58q80 3 91 46h96v-251q0 -39 4 -45.5t26 -6.5h28v-61h-245zM262 0l350 600h70l-350 -600h-70zM555 0q-1 64 25 100.5t100 74.5q57 29 72 43t15 39q0 53 -70 53q-30 0 -52 -16q-16 -11 -16 -16h3l24 5q14 0 26 -12.5t12 -28.5 q0 -25 -19 -42.5t-45 -17.5q-29 0 -49 21t-20 51q0 51 48.5 85t120.5 34q75 0 123.5 -34t48.5 -86q0 -90 -137 -122q-76 -18 -107 -38l-5 -4h3q39 10 47 10q22 0 83 -12q16 -4 31 -4q17 0 24 11t7 38h64q5 -68 -24 -104.5t-88 -36.5q-37 0 -94 22q-40 15 -56 15 q-14 0 -19.5 -6t-5.5 -22h-70z" />
<glyph unicode="&#xbe;" horiz-adv-x="944" d="M213 258q-79 0 -130.5 29.5t-51.5 73.5q0 28 19 46.5t48 18.5q26 0 43 -15t17 -38q0 -20 -12.5 -33t-32.5 -13q27 -13 55 -13q38 0 61 16.5t23 44.5q0 33 -31 46q-17 8 -62 9v56h3h13q30 0 47.5 13t17.5 36q0 22 -19.5 35t-51.5 13q-26 0 -55 -15q47 -4 47 -42 q0 -22 -17 -37t-41 -15q-26 0 -44 18t-18 44q0 46 46 74t122 28q77 0 121 -26t44 -71q0 -29 -14 -44.5t-56 -34.5l16 -6q69 -26 69 -84q0 -50 -49 -82t-127 -32zM261 0l351 600h70l-351 -600h-70zM549 102v59l202 202h106v-200h64v-61h-64v-14q0 -18 5 -22.5t25 -4.5h34v-61 h-254v61h38q19 0 24.5 5t5.5 22v14h-186zM638 163h97v94z" />
<glyph unicode="&#xbf;" horiz-adv-x="524" d="M285 304q-34 0 -58 24t-24 58t24 57.5t59 23.5q32 0 56 -24t24 -57q0 -34 -24 -58t-57 -24zM25 -34q0 51 24.5 90.5t78.5 76.5q65 45 85.5 70t23.5 64h97q-1 -52 -13 -82.5t-55 -86.5q-60 -80 -60 -124q0 -41 31 -69.5t75 -28.5q77 0 105 80q-27 -13 -47 -13 q-32 0 -52.5 22t-20.5 56q0 38 26 62.5t66 24.5q47 0 78 -37.5t31 -93.5q0 -77 -62 -136q-65 -60 -178 -60q-103 0 -168 51.5t-65 133.5z" />
<glyph unicode="&#xc0;" horiz-adv-x="735" d="M374 725l-201 98q-14 8 -14 22q0 12 7.5 16t29.5 4h150l102 -140h-74zM-19 0v91h32q31 0 45 13.5t30 60.5l170 502h232l155 -502q15 -50 31 -64q13 -10 45 -10h33v-91h-380v91h39q29 0 38.5 4.5t9.5 18.5q0 12 -13 51l-17 52h-205l-17 -52q-14 -42 -14 -49q0 -25 47 -25 h43v-91h-304zM253 303h151l-73 225z" />
<glyph unicode="&#xc1;" horiz-adv-x="735" d="M304 725l102 140h150q21 0 28.5 -4t7.5 -16q0 -15 -13 -22l-201 -98h-74zM-19 0v91h32q31 0 45 13.5t30 60.5l170 502h232l155 -502q15 -50 31 -64q13 -10 45 -10h33v-91h-380v91h39q29 0 38.5 4.5t9.5 18.5q0 12 -13 51l-17 52h-205l-17 -52q-14 -42 -14 -49 q0 -25 47 -25h43v-91h-304zM253 303h151l-73 225z" />
<glyph unicode="&#xc2;" horiz-adv-x="735" d="M165 725l136 140h143l138 -140h-152l-84 71l-93 -71h-88zM-19 0v91h32q31 0 45 13.5t30 60.5l170 502h232l155 -502q15 -50 31 -64q13 -10 45 -10h33v-91h-380v91h39q29 0 38.5 4.5t9.5 18.5q0 12 -13 51l-17 52h-205l-17 -52q-14 -42 -14 -49q0 -25 47 -25h43v-91h-304z M253 303h151l-73 225z" />
<glyph unicode="&#xc3;" horiz-adv-x="735" d="M191 738q5 49 16 72q22 44 86 44q24 0 44.5 -4t94.5 -24q15 -4 28 -4q25 0 28 31h69q-5 -64 -28 -90.5t-73 -26.5q-39 0 -110 20q-43 12 -59 12q-24 0 -30 -30h-66zM-19 0v91h32q31 0 45 13.5t30 60.5l170 502h232l155 -502q15 -50 31 -64q13 -10 45 -10h33v-91h-380v91 h39q29 0 38.5 4.5t9.5 18.5q0 12 -13 51l-17 52h-205l-17 -52q-14 -42 -14 -49q0 -25 47 -25h43v-91h-304zM253 303h151l-73 225z" />
<glyph unicode="&#xc4;" horiz-adv-x="735" d="M493 723q-30 0 -51 21t-21 52q0 29 21.5 50t51.5 21q29 0 50 -21.5t21 -50.5q0 -30 -21 -51t-51 -21zM256 723q-30 0 -51 21t-21 52q0 29 21.5 50t51.5 21q29 0 50 -21.5t21 -50.5q0 -30 -21 -51t-51 -21zM-19 0v91h32q31 0 45 13.5t30 60.5l170 502h232l155 -502 q15 -50 31 -64q13 -10 45 -10h33v-91h-380v91h39q29 0 38.5 4.5t9.5 18.5q0 12 -13 51l-17 52h-205l-17 -52q-14 -42 -14 -49q0 -25 47 -25h43v-91h-304zM253 303h151l-73 225z" />
<glyph unicode="&#xc5;" horiz-adv-x="735" d="M375 710q-41 0 -70 29t-29 70q0 40 29.5 69t70.5 29q40 0 68.5 -29t28.5 -69q0 -41 -28.5 -70t-69.5 -29zM375 772q15 0 25.5 10.5t10.5 25.5q0 14 -10.5 25t-24.5 11q-16 0 -26.5 -10.5t-10.5 -25.5t10.5 -25.5t25.5 -10.5zM-19 0v91h32q31 0 45 13.5t30 60.5l170 502 h232l155 -502q15 -50 31 -64q13 -10 45 -10h33v-91h-380v91h39q29 0 38.5 4.5t9.5 18.5q0 12 -13 51l-17 52h-205l-17 -52q-14 -42 -14 -49q0 -25 47 -25h43v-91h-304zM253 303h151l-73 225z" />
<glyph unicode="&#xc6;" horiz-adv-x="1116" d="M-6 0v91q46 -2 70 15t60 78l206 354q6 9 6 20q0 18 -37 18h-60v91h828v-257h-103q-4 90 -35.5 128t-101.5 38h-145v-189h39q44 0 61 23t17 83h85v-301h-85q0 43 -1.5 55t-8.5 23q-19 29 -64 29h-43v-208h117q62 0 79 3q53 10 76 85q10 34 10 93h103v-272h-688v91h56 q34 0 43 12q6 8 7.5 19t1.5 63v74h-188l-67 -114q-14 -25 -14 -34q0 -20 45 -20h36v-91h-305zM348 345h139v231z" />
<glyph unicode="&#xc7;" horiz-adv-x="709" d="M204 19q-83 41 -127.5 121.5t-44.5 189.5q0 186 120 281q89 71 220 71q65 0 103 -15t75 -55l14 55h102v-259h-102q-1 76 -30 120q-38 59 -120 59q-77 0 -119.5 -65t-42.5 -183q0 -124 42.5 -191t121.5 -67q97 0 132 90q13 32 16 97h102q2 -125 -72 -202.5t-198 -79.5 l-34 -42h5q9 1 19 1q41 0 65 -18.5t24 -49.5q0 -40 -35.5 -65.5t-89.5 -25.5q-50 0 -108 24l20 42q41 -17 69 -17q18 0 29 10t11 27q0 14 -10 24t-25 10q-12 0 -29 -10l-24 24l48 67q-72 5 -127 32z" />
<glyph unicode="&#xc8;" horiz-adv-x="770" d="M425 725l-201 98q-14 8 -14 22q0 12 7.5 16t29.5 4h150l102 -140h-74zM33 0v91h56q34 0 43 12q6 8 7.5 19t1.5 63v297q0 52 -1.5 63t-7.5 19q-9 12 -43 12h-56v91h687v-257h-105q0 78 -30 123q-20 30 -59 39q-16 4 -58 4h-132v-189h34q53 0 69 42q7 18 7 62h88v-300h-88 v20q0 46 -18.5 66.5t-60.5 20.5h-31v-207h110q71 0 87 5q24 7 43.5 29t27.5 50q9 31 11 98h105v-273h-687z" />
<glyph unicode="&#xc9;" horiz-adv-x="770" d="M318 725l102 140h150q21 0 28.5 -4t7.5 -16q0 -15 -13 -22l-201 -98h-74zM33 0v91h56q34 0 43 12q6 8 7.5 19t1.5 63v297q0 52 -1.5 63t-7.5 19q-9 12 -43 12h-56v91h687v-257h-105q0 78 -30 123q-20 30 -59 39q-16 4 -58 4h-132v-189h34q53 0 69 42q7 18 7 62h88v-300 h-88v20q0 46 -18.5 66.5t-60.5 20.5h-31v-207h110q71 0 87 5q24 7 43.5 29t27.5 50q9 31 11 98h105v-273h-687z" />
<glyph unicode="&#xca;" horiz-adv-x="770" d="M188 725l136 140h143l138 -140h-152l-84 71l-93 -71h-88zM33 0v91h56q34 0 43 12q6 8 7.5 19t1.5 63v297q0 52 -1.5 63t-7.5 19q-9 12 -43 12h-56v91h687v-257h-105q0 78 -30 123q-20 30 -59 39q-16 4 -58 4h-132v-189h34q53 0 69 42q7 18 7 62h88v-300h-88v20 q0 46 -18.5 66.5t-60.5 20.5h-31v-207h110q71 0 87 5q24 7 43.5 29t27.5 50q9 31 11 98h105v-273h-687z" />
<glyph unicode="&#xcb;" horiz-adv-x="770" d="M513 723q-30 0 -51 21t-21 52q0 29 21.5 50t51.5 21q29 0 50 -21.5t21 -50.5q0 -30 -21 -51t-51 -21zM276 723q-30 0 -51 21t-21 52q0 29 21.5 50t51.5 21q29 0 50 -21.5t21 -50.5q0 -30 -21 -51t-51 -21zM33 0v91h56q34 0 43 12q6 8 7.5 19t1.5 63v297q0 52 -1.5 63 t-7.5 19q-9 12 -43 12h-56v91h687v-257h-105q0 78 -30 123q-20 30 -59 39q-16 4 -58 4h-132v-189h34q53 0 69 42q7 18 7 62h88v-300h-88v20q0 46 -18.5 66.5t-60.5 20.5h-31v-207h110q71 0 87 5q24 7 43.5 29t27.5 50q9 31 11 98h105v-273h-687z" />
<glyph unicode="&#xcc;" horiz-adv-x="474" d="M248 725l-201 98q-14 8 -14 22q0 12 7.5 16t29.5 4h150l102 -140h-74zM33 0v91h56q34 0 43 12q6 8 7.5 19t1.5 63v297q0 52 -1.5 63t-7.5 19q-9 12 -43 12h-56v91h407v-91h-56q-34 0 -43 -12q-6 -8 -7.5 -19t-1.5 -63v-297q0 -52 1.5 -63t7.5 -19q9 -12 43 -12h56v-91 h-407z" />
<glyph unicode="&#xcd;" horiz-adv-x="474" d="M164 725l102 140h150q21 0 28.5 -4t7.5 -16q0 -15 -13 -22l-201 -98h-74zM33 0v91h56q34 0 43 12q6 8 7.5 19t1.5 63v297q0 52 -1.5 63t-7.5 19q-9 12 -43 12h-56v91h407v-91h-56q-34 0 -43 -12q-6 -8 -7.5 -19t-1.5 -63v-297q0 -52 1.5 -63t7.5 -19q9 -12 43 -12h56v-91 h-407z" />
<glyph unicode="&#xce;" horiz-adv-x="474" d="M28 725l136 140h143l138 -140h-152l-84 71l-93 -71h-88zM32 0v91h56q34 0 43 12q6 8 7.5 19t1.5 63v297q0 52 -1.5 63t-7.5 19q-9 12 -43 12h-56v91h407v-91h-56q-34 0 -43 -12q-6 -8 -7.5 -19t-1.5 -63v-297q0 -52 1.5 -63t7.5 -19q9 -12 43 -12h56v-91h-407z" />
<glyph unicode="&#xcf;" horiz-adv-x="474" d="M332 723q-30 0 -51 21t-21 52q0 29 21.5 50t51.5 21q29 0 50 -21.5t21 -50.5q0 -30 -21 -51t-51 -21zM142 723q-30 0 -51 21t-21 52q0 29 21.5 50t51.5 21q29 0 50 -21.5t21 -50.5q0 -30 -21 -51t-51 -21zM33 0v91h56q34 0 43 12q6 8 7.5 19t1.5 63v297q0 52 -1.5 63 t-7.5 19q-9 12 -43 12h-56v91h407v-91h-56q-34 0 -43 -12q-6 -8 -7.5 -19t-1.5 -63v-297q0 -52 1.5 -63t7.5 -19q9 -12 43 -12h56v-91h-407z" />
<glyph unicode="&#xd0;" horiz-adv-x="834" d="M33 0v91h55q34 0 43 12q6 8 7.5 19t1.5 63v116h-107v90h107v91q0 52 -1.5 63t-7.5 19q-9 12 -43 12h-55v91h413q84 0 136.5 -14.5t99.5 -49.5q118 -91 118 -263q0 -105 -43 -182.5t-123 -117.5t-214 -40h-387zM335 91h67q95 0 137 55q23 30 32 72t9 117q0 87 -13 136 t-44 75q-19 17 -45.5 23.5t-76.5 6.5h-66v-185h135v-90h-135v-210z" />
<glyph unicode="&#xd1;" horiz-adv-x="863" d="M255 738q5 49 16 72q22 44 86 44q24 0 44.5 -4t94.5 -24q15 -4 28 -4q25 0 28 31h69q-5 -64 -28 -90.5t-73 -26.5q-39 0 -110 20q-43 12 -59 12q-24 0 -30 -30h-66zM33 0v91h56q34 0 43 12q6 9 7.5 20t1.5 62v297q0 52 -1.5 63t-7.5 19q-9 12 -43 12h-56v91h335l254 -461 v276q0 52 -1.5 63t-7.5 19q-9 12 -43 12h-61v91h334v-91h-56q-34 0 -43 -12q-6 -8 -7.5 -19t-1.5 -63v-482h-216l-265 486v-301q0 -51 1.5 -62t7.5 -20q9 -12 43 -12h62v-91h-335z" />
<glyph unicode="&#xd2;" horiz-adv-x="785" d="M406 725l-201 98q-14 8 -14 22q0 12 7.5 16t29.5 4h150l102 -140h-74zM33 332q0 88 31.5 160.5t89.5 118.5q92 71 238 71q172 0 265.5 -91.5t93.5 -260.5q0 -157 -96.5 -251t-258.5 -94q-167 0 -265 93.5t-98 253.5zM282 141q35 -67 110 -67q84 0 116 80q23 58 23 177 q0 134 -32 195t-103 61q-74 0 -108.5 -62.5t-34.5 -195.5t29 -188z" />
<glyph unicode="&#xd3;" horiz-adv-x="785" d="M317 725l102 140h150q21 0 28.5 -4t7.5 -16q0 -15 -13 -22l-201 -98h-74zM33 332q0 88 31.5 160.5t89.5 118.5q92 71 238 71q172 0 265.5 -91.5t93.5 -260.5q0 -157 -96.5 -251t-258.5 -94q-167 0 -265 93.5t-98 253.5zM282 141q35 -67 110 -67q84 0 116 80q23 58 23 177 q0 134 -32 195t-103 61q-74 0 -108.5 -62.5t-34.5 -195.5t29 -188z" />
<glyph unicode="&#xd4;" horiz-adv-x="785" d="M190 725l136 140h143l138 -140h-152l-84 71l-93 -71h-88zM33 332q0 88 31.5 160.5t89.5 118.5q92 71 238 71q172 0 265.5 -91.5t93.5 -260.5q0 -157 -96.5 -251t-258.5 -94q-167 0 -265 93.5t-98 253.5zM282 141q35 -67 110 -67q84 0 116 80q23 58 23 177q0 134 -32 195 t-103 61q-74 0 -108.5 -62.5t-34.5 -195.5t29 -188z" />
<glyph unicode="&#xd5;" horiz-adv-x="785" d="M216 738q5 49 16 72q22 44 86 44q24 0 44.5 -4t94.5 -24q15 -4 28 -4q25 0 28 31h69q-5 -64 -28 -90.5t-73 -26.5q-39 0 -110 20q-43 12 -59 12q-24 0 -30 -30h-66zM33 332q0 88 31.5 160.5t89.5 118.5q92 71 238 71q172 0 265.5 -91.5t93.5 -260.5q0 -157 -96.5 -251 t-258.5 -94q-167 0 -265 93.5t-98 253.5zM282 141q35 -67 110 -67q84 0 116 80q23 58 23 177q0 134 -32 195t-103 61q-74 0 -108.5 -62.5t-34.5 -195.5t29 -188z" />
<glyph unicode="&#xd6;" horiz-adv-x="785" d="M511 723q-30 0 -51 21t-21 52q0 29 21.5 50t51.5 21q29 0 50 -21.5t21 -50.5q0 -30 -21 -51t-51 -21zM274 723q-30 0 -51 21t-21 52q0 29 21.5 50t51.5 21q29 0 50 -21.5t21 -50.5q0 -30 -21 -51t-51 -21zM33 332q0 88 31.5 160.5t89.5 118.5q92 71 238 71 q172 0 265.5 -91.5t93.5 -260.5q0 -157 -96.5 -251t-258.5 -94q-167 0 -265 93.5t-98 253.5zM282 141q35 -67 110 -67q84 0 116 80q23 58 23 177q0 134 -32 195t-103 61q-74 0 -108.5 -62.5t-34.5 -195.5t29 -188z" />
<glyph unicode="&#xd7;" d="M101 107l-84 84l149 149l-149 149l84 84l149 -149l149 149l83 -84l-149 -149l149 -149l-83 -84l-149 149z" />
<glyph unicode="&#xd8;" horiz-adv-x="785" d="M119 -30l50 76q-44 33 -71 70q-59 83 -59 211q0 166 94.5 259.5t262.5 93.5q79 0 155 -25l48 80l69 -44l-44 -74q130 -95 130 -286q0 -204 -141 -292q-88 -55 -214 -55q-96 0 -159 28l-54 -83zM268 191l214 360q-35 34 -83 34q-81 0 -114 -79q-26 -62 -26 -190 q0 -50 9 -125zM309 106q37 -33 87 -33q89 0 121 97q17 53 17 155q0 83 -10 142z" />
<glyph unicode="&#xd9;" horiz-adv-x="807" d="M434 725l-201 98q-14 8 -14 22q0 12 7.5 16t29.5 4h150l102 -140h-74zM169 65q-25 28 -34.5 61.5t-9.5 88.5v267q0 52 -1.5 63t-7.5 19q-9 12 -43 12h-56v91h407v-91h-52q-34 0 -43 -12q-6 -8 -7.5 -19t-1.5 -63v-233q0 -59 3 -80t13 -39q29 -50 110 -50q73 0 100 39 q23 32 23 130v233q0 52 -1.5 63t-7.5 19q-9 12 -43 12h-48v91h321v-91h-56q-34 0 -43 -12q-6 -8 -7.5 -19t-1.5 -63v-267q0 -61 -12 -97t-43 -67q-65 -66 -213 -66q-177 0 -245 80z" />
<glyph unicode="&#xda;" horiz-adv-x="807" d="M337 725l102 140h150q21 0 28.5 -4t7.5 -16q0 -15 -13 -22l-201 -98h-74zM169 65q-25 28 -34.5 61.5t-9.5 88.5v267q0 52 -1.5 63t-7.5 19q-9 12 -43 12h-56v91h407v-91h-52q-34 0 -43 -12q-6 -8 -7.5 -19t-1.5 -63v-233q0 -59 3 -80t13 -39q29 -50 110 -50q73 0 100 39 q23 32 23 130v233q0 52 -1.5 63t-7.5 19q-9 12 -43 12h-48v91h321v-91h-56q-34 0 -43 -12q-6 -8 -7.5 -19t-1.5 -63v-267q0 -61 -12 -97t-43 -67q-65 -66 -213 -66q-177 0 -245 80z" />
<glyph unicode="&#xdb;" horiz-adv-x="807" d="M215 725l136 140h143l138 -140h-152l-84 71l-93 -71h-88zM169 65q-25 28 -34.5 61.5t-9.5 88.5v267q0 52 -1.5 63t-7.5 19q-9 12 -43 12h-56v91h407v-91h-52q-34 0 -43 -12q-6 -8 -7.5 -19t-1.5 -63v-233q0 -59 3 -80t13 -39q29 -50 110 -50q73 0 100 39q23 32 23 130 v233q0 52 -1.5 63t-7.5 19q-9 12 -43 12h-48v91h321v-91h-56q-34 0 -43 -12q-6 -8 -7.5 -19t-1.5 -63v-267q0 -61 -12 -97t-43 -67q-65 -66 -213 -66q-177 0 -245 80z" />
<glyph unicode="&#xdc;" horiz-adv-x="807" d="M539 723q-30 0 -51 21t-21 52q0 29 21.5 50t51.5 21q29 0 50 -21.5t21 -50.5q0 -30 -21 -51t-51 -21zM302 723q-30 0 -51 21t-21 52q0 29 21.5 50t51.5 21q29 0 50 -21.5t21 -50.5q0 -30 -21 -51t-51 -21zM169 65q-25 28 -34.5 61.5t-9.5 88.5v267q0 52 -1.5 63t-7.5 19 q-9 12 -43 12h-56v91h407v-91h-52q-34 0 -43 -12q-6 -8 -7.5 -19t-1.5 -63v-233q0 -59 3 -80t13 -39q29 -50 110 -50q73 0 100 39q23 32 23 130v233q0 52 -1.5 63t-7.5 19q-9 12 -43 12h-48v91h321v-91h-56q-34 0 -43 -12q-6 -8 -7.5 -19t-1.5 -63v-267q0 -61 -12 -97 t-43 -67q-65 -66 -213 -66q-177 0 -245 80z" />
<glyph unicode="&#xdd;" horiz-adv-x="707" d="M290 725l102 140h150q21 0 28.5 -4t7.5 -16q0 -15 -13 -22l-201 -98h-74zM144 0v91h65q34 0 43 12q6 9 7.5 20t1.5 62v76l-147 234q-39 62 -44 66q-17 15 -46 15h-38v91h396v-91h-42q-35 0 -35 -17q0 -6 11 -27l85 -155l88 155q12 20 12 29q0 15 -31 15h-43v91h295v-91 h-38q-31 0 -48 -23q-9 -9 -40 -58l-150 -234v-76q0 -52 1.5 -63t7.5 -19q9 -12 43 -12h65v-91h-419z" />
<glyph unicode="&#xde;" horiz-adv-x="721" d="M33 0v91h56q34 0 43 12q6 8 7.5 19t1.5 63v297q0 52 -1.5 63t-7.5 19q-9 12 -43 12h-56v91h411v-91h-56q-33 0 -42.5 -11.5t-9.5 -52.5v-10h139q140 0 189 -28q67 -38 67 -129q0 -44 -18.5 -79.5t-49.5 -52.5q-50 -28 -195 -28h-132v-10q0 -61 7.5 -72.5t44.5 -11.5h56 v-91h-411zM336 276h71q63 0 89 10q34 15 34 58q0 50 -43 61q-27 6 -82 6h-69v-135z" />
<glyph unicode="&#xdf;" horiz-adv-x="673" d="M17 0v86h26q30 0 39 7q6 6 7 16.5t1 69.5v294q0 58 7 86.5t26 50.5q60 66 226 66q113 0 173.5 -36t60.5 -104q0 -100 -124 -128q88 -20 129 -69.5t41 -136.5q0 -100 -51.5 -158.5t-139.5 -58.5q-74 0 -106.5 35.5t-32.5 114.5q0 28 1 52h84q-1 -21 -1 -53q0 -66 30 -66 q19 0 26 25.5t7 94.5q0 70 -6 100.5t-25 49.5q-32 32 -91 32q-14 0 -24 -1v87q26 -3 36 -3q80 0 80 71q0 32 -21 50.5t-56 18.5q-42 0 -61 -28q-17 -25 -17 -92v-473h-244z" />
<glyph unicode="&#xe0;" horiz-adv-x="599" d="M302 520l-127 117q-14 14 -14 23q0 19 37 19h116l56 -159h-68zM42 115q0 63 45 92q30 21 115 37q82 15 110 33.5t28 58.5q0 34 -29 53.5t-78 19.5q-58 0 -89 -30q20 4 32 4q24 0 38.5 -14.5t14.5 -39.5q0 -28 -20.5 -45t-53.5 -17q-39 0 -64.5 23t-25.5 58q0 54 49 85 q57 37 176 37q144 0 188 -55q18 -23 24 -48t6 -79v-158q0 -32 4.5 -43.5t17.5 -11.5q15 0 20.5 13t5.5 48q0 17 -1 31h50q3 -51 3 -67q0 -54 -25 -79q-34 -36 -109 -36q-65 0 -102 28q-21 16 -29 52q-39 -80 -146 -80q-73 0 -114 34t-41 96zM213 126q0 -23 15 -37t39 -14 q31 0 50.5 21t19.5 55v80q-25 -23 -51 -34q-46 -21 -56 -31q-17 -17 -17 -40z" />
<glyph unicode="&#xe1;" horiz-adv-x="599" d="M232 520l55 159h117q37 0 37 -19q0 -9 -14 -23l-128 -117h-67zM42 115q0 63 45 92q30 21 115 37q82 15 110 33.5t28 58.5q0 34 -29 53.5t-78 19.5q-58 0 -89 -30q20 4 32 4q24 0 38.5 -14.5t14.5 -39.5q0 -28 -20.5 -45t-53.5 -17q-39 0 -64.5 23t-25.5 58q0 54 49 85 q57 37 176 37q144 0 188 -55q18 -23 24 -48t6 -79v-158q0 -32 4.5 -43.5t17.5 -11.5q15 0 20.5 13t5.5 48q0 17 -1 31h50q3 -51 3 -67q0 -54 -25 -79q-34 -36 -109 -36q-65 0 -102 28q-21 16 -29 52q-39 -80 -146 -80q-73 0 -114 34t-41 96zM213 126q0 -23 15 -37t39 -14 q31 0 50.5 21t19.5 55v80q-25 -23 -51 -34q-46 -21 -56 -31q-17 -17 -17 -40z" />
<glyph unicode="&#xe2;" horiz-adv-x="599" d="M127 520l105 159h129l110 -159h-141l-53 81l-72 -81h-78zM42 115q0 63 45 92q30 21 115 37q82 15 110 33.5t28 58.5q0 34 -29 53.5t-78 19.5q-58 0 -89 -30q20 4 32 4q24 0 38.5 -14.5t14.5 -39.5q0 -28 -20.5 -45t-53.5 -17q-39 0 -64.5 23t-25.5 58q0 54 49 85 q57 37 176 37q144 0 188 -55q18 -23 24 -48t6 -79v-158q0 -32 4.5 -43.5t17.5 -11.5q15 0 20.5 13t5.5 48q0 17 -1 31h50q3 -51 3 -67q0 -54 -25 -79q-34 -36 -109 -36q-65 0 -102 28q-21 16 -29 52q-39 -80 -146 -80q-73 0 -114 34t-41 96zM213 126q0 -23 15 -37t39 -14 q31 0 50.5 21t19.5 55v80q-25 -23 -51 -34q-46 -21 -56 -31q-17 -17 -17 -40z" />
<glyph unicode="&#xe3;" horiz-adv-x="599" d="M125 533q4 46 16 73q23 53 83 53q34 0 92 -19q42 -14 61 -14q18 0 24 6t10 26h63q-5 -58 -19 -83q-24 -43 -85 -43q-39 0 -99 22q-35 12 -50 12q-16 0 -23.5 -7.5t-9.5 -25.5h-63zM42 115q0 63 45 92q30 21 115 37q82 15 110 33.5t28 58.5q0 34 -29 53.5t-78 19.5 q-58 0 -89 -30q20 4 32 4q24 0 38.5 -14.5t14.5 -39.5q0 -28 -20.5 -45t-53.5 -17q-39 0 -64.5 23t-25.5 58q0 54 49 85q57 37 176 37q144 0 188 -55q18 -23 24 -48t6 -79v-158q0 -32 4.5 -43.5t17.5 -11.5q15 0 20.5 13t5.5 48q0 17 -1 31h50q3 -51 3 -67q0 -54 -25 -79 q-34 -36 -109 -36q-65 0 -102 28q-21 16 -29 52q-39 -80 -146 -80q-73 0 -114 34t-41 96zM213 126q0 -23 15 -37t39 -14q31 0 50.5 21t19.5 55v80q-25 -23 -51 -34q-46 -21 -56 -31q-17 -17 -17 -40z" />
<glyph unicode="&#xe4;" horiz-adv-x="599" d="M397 525q-30 0 -51 21.5t-21 51.5q0 29 21.5 50t51.5 21q29 0 50 -21.5t21 -50.5t-21 -50.5t-51 -21.5zM195 525q-30 0 -51 21t-21 52q0 29 21.5 50t51.5 21q29 0 50 -21.5t21 -50.5q0 -30 -21 -51t-51 -21zM42 115q0 63 45 92q30 21 115 37q82 15 110 33.5t28 58.5 q0 34 -29 53.5t-78 19.5q-58 0 -89 -30q20 4 32 4q24 0 38.5 -14.5t14.5 -39.5q0 -28 -20.5 -45t-53.5 -17q-39 0 -64.5 23t-25.5 58q0 54 49 85q57 37 176 37q144 0 188 -55q18 -23 24 -48t6 -79v-158q0 -32 4.5 -43.5t17.5 -11.5q15 0 20.5 13t5.5 48q0 17 -1 31h50 q3 -51 3 -67q0 -54 -25 -79q-34 -36 -109 -36q-65 0 -102 28q-21 16 -29 52q-39 -80 -146 -80q-73 0 -114 34t-41 96zM213 126q0 -23 15 -37t39 -14q31 0 50.5 21t19.5 55v80q-25 -23 -51 -34q-46 -21 -56 -31q-17 -17 -17 -40z" />
<glyph unicode="&#xe5;" horiz-adv-x="599" d="M297 509q-41 0 -70 29t-29 70q0 40 29.5 68.5t70.5 28.5q40 0 68.5 -29t28.5 -69q0 -41 -28.5 -69.5t-69.5 -28.5zM297 571q15 0 25.5 10.5t10.5 24.5q0 15 -10.5 25.5t-24.5 10.5q-16 0 -26.5 -10.5t-10.5 -24.5q0 -15 10.5 -25.5t25.5 -10.5zM42 115q0 63 45 92 q30 21 115 37q82 15 110 33.5t28 58.5q0 34 -29 53.5t-78 19.5q-58 0 -89 -30q20 4 32 4q24 0 38.5 -14.5t14.5 -39.5q0 -28 -20.5 -45t-53.5 -17q-39 0 -64.5 23t-25.5 58q0 54 49 85q57 37 176 37q144 0 188 -55q18 -23 24 -48t6 -79v-158q0 -32 4.5 -43.5t17.5 -11.5 q15 0 20.5 13t5.5 48q0 17 -1 31h50q3 -51 3 -67q0 -54 -25 -79q-34 -36 -109 -36q-65 0 -102 28q-21 16 -29 52q-39 -80 -146 -80q-73 0 -114 34t-41 96zM213 126q0 -23 15 -37t39 -14q31 0 50.5 21t19.5 55v80q-25 -23 -51 -34q-46 -21 -56 -31q-17 -17 -17 -40z" />
<glyph unicode="&#xe6;" horiz-adv-x="849" d="M42 114q0 72 54 104q27 17 113 32q72 12 102.5 31.5t30.5 54.5q0 36 -29 57t-80 21q-55 0 -81 -27q14 2 16 2q29 0 46 -14.5t17 -39.5q0 -28 -22 -45t-57 -17q-38 0 -62 21.5t-24 56.5q0 51 47 84q51 36 173 36q66 0 100.5 -8t63.5 -30q52 38 133 38q128 0 189 -89 q25 -37 34.5 -76t9.5 -105h-307q2 -129 89 -129q71 0 95 89h123q-50 -176 -238 -176q-67 0 -110 18.5t-84 63.5q-33 -45 -72.5 -63.5t-103.5 -18.5q-78 0 -122 34t-44 95zM512 278h138q-2 54 -17 78.5t-47 24.5q-39 0 -60 -34q-14 -24 -14 -69zM211 131q0 -24 15 -38t41 -14 q32 0 51 22t19 60v73q-12 -12 -29 -22q-2 -1 -8.5 -4l-18 -8t-24.5 -10q-46 -20 -46 -59z" />
<glyph unicode="&#xe7;" horiz-adv-x="533" d="M189 -80l49 69q-96 13 -150.5 77t-54.5 165q0 109 68 174t181 65q94 0 154.5 -45.5t60.5 -116.5q0 -45 -28.5 -74.5t-71.5 -29.5q-37 0 -62 22.5t-25 56.5q0 28 18.5 49.5t43.5 21.5q4 0 18 -2q-31 28 -68 28q-51 0 -78 -40.5t-27 -116.5q0 -148 95 -148q74 0 78 99h105 q-9 -90 -58.5 -138.5t-134.5 -49.5l-34 -42h5q9 1 19 1q41 0 65 -18.5t24 -49.5q0 -40 -35.5 -65.5t-89.5 -25.5q-50 0 -108 24l20 42q41 -17 69 -17q18 0 29 10t11 27q0 14 -10 24t-25 10q-12 0 -29 -10z" />
<glyph unicode="&#xe8;" horiz-adv-x="552" d="M286 520l-127 117q-14 14 -14 23q0 19 37 19h116l56 -159h-68zM114 41q-38 34 -59.5 84.5t-21.5 105.5q0 106 68 173t175 67q239 0 242 -268h-307v-17q0 -51 24.5 -81t66.5 -30q75 0 85 83h123q-22 -85 -81 -129t-151 -44q-102 0 -164 56zM212 280h138q-2 47 -11 68 q-15 33 -55 33q-34 0 -50.5 -23.5t-21.5 -77.5z" />
<glyph unicode="&#xe9;" horiz-adv-x="552" d="M217 520l55 159h117q37 0 37 -19q0 -9 -14 -23l-128 -117h-67zM114 41q-38 34 -59.5 84.5t-21.5 105.5q0 106 68 173t175 67q239 0 242 -268h-307v-17q0 -51 24.5 -81t66.5 -30q75 0 85 83h123q-22 -85 -81 -129t-151 -44q-102 0 -164 56zM212 280h138q-2 47 -11 68 q-15 33 -55 33q-34 0 -50.5 -23.5t-21.5 -77.5z" />
<glyph unicode="&#xea;" horiz-adv-x="552" d="M110 520l105 159h129l110 -159h-141l-53 81l-72 -81h-78zM114 41q-38 34 -59.5 84.5t-21.5 105.5q0 106 68 173t175 67q239 0 242 -268h-307v-17q0 -51 24.5 -81t66.5 -30q75 0 85 83h123q-22 -85 -81 -129t-151 -44q-102 0 -164 56zM212 280h138q-2 47 -11 68 q-15 33 -55 33q-34 0 -50.5 -23.5t-21.5 -77.5z" />
<glyph unicode="&#xeb;" horiz-adv-x="552" d="M377 525q-30 0 -51 21.5t-21 51.5q0 29 21.5 50t51.5 21q29 0 50 -21.5t21 -50.5t-21 -50.5t-51 -21.5zM175 525q-30 0 -51 21t-21 52q0 29 21.5 50t51.5 21q29 0 50 -21.5t21 -50.5q0 -30 -21 -51t-51 -21zM114 41q-38 34 -59.5 84.5t-21.5 105.5q0 106 68 173t175 67 q239 0 242 -268h-307v-17q0 -51 24.5 -81t66.5 -30q75 0 85 83h123q-22 -85 -81 -129t-151 -44q-102 0 -164 56zM212 280h138q-2 47 -11 68q-15 33 -55 33q-34 0 -50.5 -23.5t-21.5 -77.5z" />
<glyph unicode="&#xec;" horiz-adv-x="366" d="M195 520l-127 117q-14 14 -14 23q0 19 37 19h116l56 -159h-68zM33 0v87h34q33 0 40 9q5 6 6 17.5t1 65.5v98q0 57 -1.5 69t-7.5 17q-7 6 -38 6h-34v87h252v-277q0 -59 1 -70t8 -16q8 -6 37 -6h31v-87h-329z" />
<glyph unicode="&#xed;" horiz-adv-x="366" d="M122 520l55 159h117q37 0 37 -19q0 -9 -14 -23l-128 -117h-67zM33 0v87h34q33 0 40 9q5 6 6 17.5t1 65.5v98q0 57 -1.5 69t-7.5 17q-7 6 -38 6h-34v87h252v-277q0 -59 1 -70t8 -16q8 -6 37 -6h31v-87h-329z" />
<glyph unicode="&#xee;" horiz-adv-x="366" d="M18 520l102 159h122l104 -159h-137l-48 81l-67 -81h-76zM33 0v87h34q33 0 40 9q5 6 6 17.5t1 65.5v98q0 57 -1.5 69t-7.5 17q-7 6 -38 6h-34v87h252v-277q0 -59 1 -70t8 -16q8 -6 37 -6h31v-87h-329z" />
<glyph unicode="&#xef;" horiz-adv-x="366" d="M268 532q-28 0 -47 19t-19 47q0 27 19.5 46t47.5 19q26 0 45 -19.5t19 -45.5q0 -27 -19 -46.5t-46 -19.5zM99 532q-28 0 -47 19t-19 47q0 27 19.5 46t47.5 19q26 0 45 -19.5t19 -45.5q0 -27 -19 -46.5t-46 -19.5zM33 0v87h34q33 0 40 9q5 6 6 17.5t1 65.5v98 q0 57 -1.5 69t-7.5 17q-7 6 -38 6h-34v87h252v-277q0 -59 1 -70t8 -16q8 -6 37 -6h31v-87h-329z" />
<glyph unicode="&#xf0;" horiz-adv-x="591" d="M33 228q0 110 65.5 173.5t184.5 69.5l-35 58l-87 -35l-29 67l79 31l-51 75h111l36 -37l87 37l29 -66l-63 -24l89 -94q60 -64 84.5 -117t24.5 -120q0 -121 -70.5 -191t-192.5 -70q-119 0 -190.5 66.5t-71.5 176.5zM294 68q42 0 61 41t19 130q0 78 -17.5 112.5t-57.5 34.5 q-81 0 -81 -162q0 -82 18 -119t58 -37z" />
<glyph unicode="&#xf1;" horiz-adv-x="673" d="M162 533q4 46 16 73q23 53 83 53q34 0 92 -19q42 -14 61 -14q18 0 24 6t10 26h63q-5 -58 -19 -83q-24 -43 -85 -43q-39 0 -99 22q-35 12 -50 12q-16 0 -23.5 -7.5t-9.5 -25.5h-63zM33 0v86h31q32 0 39 7q6 6 7 16.5t1 69.5v98q0 59 -1 70t-8 17q-8 6 -38 6h-31v86h247 v-66q33 46 67 63.5t93 17.5q101 0 135 -53q14 -21 17.5 -44.5t3.5 -88.5v-106q0 -59 1 -70t8 -17t38 -6h26v-86h-297v86h4q32 0 39 7q6 6 7 18t1 68v105q0 44 -10 64q-17 33 -58 33q-35 0 -55 -25.5t-20 -71.5v-105q0 -59 1 -70t8 -17t38 -6h7v-86h-301z" />
<glyph unicode="&#xf2;" horiz-adv-x="591" d="M306 520l-127 117q-14 14 -14 23q0 19 37 19h116l56 -159h-68zM111 46q-78 69 -78 181t70 177.5t191 65.5t192.5 -65.5t71.5 -176.5q0 -122 -92 -192q-67 -51 -171 -51q-113 0 -184 61zM294 68q42 0 61.5 41t19.5 131q0 78 -18 112.5t-58 34.5q-83 0 -83 -163 q0 -82 18.5 -119t59.5 -37z" />
<glyph unicode="&#xf3;" horiz-adv-x="591" d="M235 520l55 159h117q37 0 37 -19q0 -9 -14 -23l-128 -117h-67zM111 46q-78 69 -78 181t70 177.5t191 65.5t192.5 -65.5t71.5 -176.5q0 -122 -92 -192q-67 -51 -171 -51q-113 0 -184 61zM294 68q42 0 61.5 41t19.5 131q0 78 -18 112.5t-58 34.5q-83 0 -83 -163 q0 -82 18.5 -119t59.5 -37z" />
<glyph unicode="&#xf4;" horiz-adv-x="591" d="M134 520l105 159h129l110 -159h-141l-53 81l-72 -81h-78zM111 46q-78 69 -78 181t70 177.5t191 65.5t192.5 -65.5t71.5 -176.5q0 -122 -92 -192q-67 -51 -171 -51q-113 0 -184 61zM294 68q42 0 61.5 41t19.5 131q0 78 -18 112.5t-58 34.5q-83 0 -83 -163q0 -82 18.5 -119 t59.5 -37z" />
<glyph unicode="&#xf5;" horiz-adv-x="591" d="M128 533q4 46 16 73q23 53 83 53q34 0 92 -19q42 -14 61 -14q18 0 24 6t10 26h63q-5 -58 -19 -83q-24 -43 -85 -43q-39 0 -99 22q-35 12 -50 12q-16 0 -23.5 -7.5t-9.5 -25.5h-63zM111 46q-78 69 -78 181t70 177.5t191 65.5t192.5 -65.5t71.5 -176.5q0 -122 -92 -192 q-67 -51 -171 -51q-113 0 -184 61zM294 68q42 0 61.5 41t19.5 131q0 78 -18 112.5t-58 34.5q-83 0 -83 -163q0 -82 18.5 -119t59.5 -37z" />
<glyph unicode="&#xf6;" horiz-adv-x="591" d="M396 525q-30 0 -51 21.5t-21 51.5q0 29 21.5 50t51.5 21q29 0 50 -21.5t21 -50.5t-21 -50.5t-51 -21.5zM194 525q-30 0 -51 21t-21 52q0 29 21.5 50t51.5 21q29 0 50 -21.5t21 -50.5q0 -30 -21 -51t-51 -21zM111 46q-78 69 -78 181t70 177.5t191 65.5t192.5 -65.5 t71.5 -176.5q0 -122 -92 -192q-67 -51 -171 -51q-113 0 -184 61zM294 68q42 0 61.5 41t19.5 131q0 78 -18 112.5t-58 34.5q-83 0 -83 -163q0 -82 18.5 -119t59.5 -37z" />
<glyph unicode="&#xf7;" d="M251 437q-31 0 -52.5 21.5t-21.5 51.5q0 31 21.5 52.5t52.5 21.5q30 0 51.5 -21.5t21.5 -52.5q0 -30 -21.5 -51.5t-51.5 -21.5zM7 281v118h487v-118h-487zM177 169q0 31 21.5 52.5t52.5 21.5q30 0 51.5 -21.5t21.5 -52.5q0 -30 -21.5 -51.5t-51.5 -21.5q-31 0 -52.5 21.5 t-21.5 51.5z" />
<glyph unicode="&#xf8;" horiz-adv-x="595" d="M89 -34l42 65q-54 43 -76 87t-22 109q0 111 69.5 177t186.5 66q53 0 111 -17l44 73l59 -33l-39 -64q46 -29 71.5 -82t25.5 -119q0 -113 -70 -178t-194 -65q-53 0 -104 17l-44 -70zM222 168l120 201q-19 18 -48 18q-78 0 -78 -143q0 -28 6 -76zM249 86q27 -18 50 -18 q22 0 40 14t26 36q13 41 13 100q0 14 -3 49q0 2 -2 26z" />
<glyph unicode="&#xf9;" horiz-adv-x="643" d="M314 520l-127 117q-14 14 -14 23q0 19 37 19h116l56 -159h-68zM107 30q-19 23 -24 46.5t-5 91.5v109q0 57 -1.5 69t-7.5 17q-7 6 -38 6h-28v87h242v-283q0 -56 14.5 -78t51.5 -22q79 0 79 100v104q0 59 -1 70t-8 16q-7 6 -38 6h-36v87h250v-277q0 -59 1 -70t8 -16 q8 -6 38 -6h35v-87h-249v67q-44 -82 -156 -82q-90 0 -127 45z" />
<glyph unicode="&#xfa;" horiz-adv-x="643" d="M244 520l55 159h117q37 0 37 -19q0 -9 -14 -23l-128 -117h-67zM107 30q-19 23 -24 46.5t-5 91.5v109q0 57 -1.5 69t-7.5 17q-7 6 -38 6h-28v87h242v-283q0 -56 14.5 -78t51.5 -22q79 0 79 100v104q0 59 -1 70t-8 16q-7 6 -38 6h-36v87h250v-277q0 -59 1 -70t8 -16 q8 -6 38 -6h35v-87h-249v67q-44 -82 -156 -82q-90 0 -127 45z" />
<glyph unicode="&#xfb;" horiz-adv-x="643" d="M136 520l105 159h129l110 -159h-141l-53 81l-72 -81h-78zM107 30q-19 23 -24 46.5t-5 91.5v109q0 57 -1.5 69t-7.5 17q-7 6 -38 6h-28v87h242v-283q0 -56 14.5 -78t51.5 -22q79 0 79 100v104q0 59 -1 70t-8 16q-7 6 -38 6h-36v87h250v-277q0 -59 1 -70t8 -16q8 -6 38 -6 h35v-87h-249v67q-44 -82 -156 -82q-90 0 -127 45z" />
<glyph unicode="&#xfc;" horiz-adv-x="643" d="M409 525q-30 0 -51 21.5t-21 51.5q0 29 21.5 50t51.5 21q29 0 50 -21.5t21 -50.5t-21 -50.5t-51 -21.5zM207 525q-30 0 -51 21t-21 52q0 29 21.5 50t51.5 21q29 0 50 -21.5t21 -50.5q0 -30 -21 -51t-51 -21zM107 30q-19 23 -24 46.5t-5 91.5v109q0 57 -1.5 69t-7.5 17 q-7 6 -38 6h-28v87h242v-283q0 -56 14.5 -78t51.5 -22q79 0 79 100v104q0 59 -1 70t-8 16q-7 6 -38 6h-36v87h250v-277q0 -59 1 -70t8 -16q8 -6 38 -6h35v-87h-249v67q-44 -82 -156 -82q-90 0 -127 45z" />
<glyph unicode="&#xfd;" horiz-adv-x="597" d="M248 520l55 159h117q37 0 37 -19q0 -9 -14 -23l-128 -117h-67zM5 -96q0 44 26.5 72.5t67.5 28.5q36 0 58.5 -21t22.5 -54q0 -31 -17.5 -50t-46.5 -19q-10 0 -16 1q23 -16 44 -16q33 0 59.5 26.5t55.5 88.5l-158 344q-19 41 -25 49q-12 15 -39 15h-37v87h337v-87h-37 q-17 0 -23 -3t-6 -11q0 -7 7 -24l72 -182l78 182q6 16 6 22q0 16 -28 16h-36v87h231v-87h-27q-21 0 -32.5 -12t-29.5 -52l-155 -344q-49 -109 -94 -142q-49 -35 -116 -35q-65 0 -103.5 32.5t-38.5 87.5z" />
<glyph unicode="&#xfe;" horiz-adv-x="640" d="M98 -28v517q0 59 -1 69.5t-8 16.5t-38 6h-31v86h249v-281q27 45 61 64.5t86 19.5q90 0 140.5 -63.5t50.5 -176.5q0 -135 -64 -201q-43 -44 -124 -44q-53 0 -85 16t-65 60v-89q0 -59 1 -70t8 -16q8 -6 38 -6h29v-86h-332v86h38q32 0 39 7q6 5 7 16t1 69zM270 213 q0 -68 21 -105.5t58 -37.5q77 0 77 151q0 82 -18 119.5t-57 37.5t-60 -43t-21 -122z" />
<glyph unicode="&#xff;" horiz-adv-x="597" d="M416 525q-30 0 -51 21.5t-21 51.5q0 29 21.5 50t51.5 21q29 0 50 -21.5t21 -50.5t-21 -50.5t-51 -21.5zM214 525q-30 0 -51 21t-21 52q0 29 21.5 50t51.5 21q29 0 50 -21.5t21 -50.5q0 -30 -21 -51t-51 -21zM5 -96q0 44 26.5 72.5t67.5 28.5q36 0 58.5 -21t22.5 -54 q0 -31 -17.5 -50t-46.5 -19q-10 0 -16 1q23 -16 44 -16q33 0 59.5 26.5t55.5 88.5l-158 344q-19 41 -25 49q-12 15 -39 15h-37v87h337v-87h-37q-17 0 -23 -3t-6 -11q0 -7 7 -24l72 -182l78 182q6 16 6 22q0 16 -28 16h-36v87h231v-87h-27q-21 0 -32.5 -12t-29.5 -52 l-155 -344q-49 -109 -94 -142q-49 -35 -116 -35q-65 0 -103.5 32.5t-38.5 87.5z" />
<glyph unicode="&#x152;" horiz-adv-x="1122" d="M163 48q-130 101 -130 288q0 160 89.5 253t243.5 93q32 0 149 -14q22 -2 52 -2h23q22 0 46 0.5t25 0.5h411v-252h-105q-1 84 -36 124q-18 22 -45 29.5t-84 7.5h-115v-189h39q47 0 65 35q10 18 11 72h86v-302h-86q-1 60 -15 80q-18 27 -62 27h-38v-208h115q61 0 85.5 7.5 t44.5 32.5q35 42 35 122v23h105v-276h-411q-117 0 -146.5 -1t-100.5 -10q-40 -4 -63 -4q-108 0 -188 63zM400 74q57 0 78 35q9 14 11.5 26.5t2.5 47.5v303q0 51 -15 70q-25 30 -84 30q-76 0 -108 -60.5t-32 -201.5q0 -129 35.5 -189.5t111.5 -60.5z" />
<glyph unicode="&#x153;" horiz-adv-x="888" d="M123 38q-90 73 -90 192q0 107 73 173.5t191 66.5q99 0 163 -49q60 49 150 49q132 0 197 -92q25 -35 35 -74t12 -107h-310q-1 -59 22.5 -90.5t69.5 -31.5q73 0 88 80h121q-11 -57 -52 -100q-67 -70 -184 -70q-50 0 -82.5 10.5t-66.5 38.5q-67 -49 -166 -49q-106 0 -171 53 zM298 68q23 0 41.5 14.5t23.5 37.5q7 32 7 109q0 95 -15 126q-15 33 -57 33q-81 0 -81 -159q0 -161 81 -161zM542 274h145q-4 57 -20.5 81.5t-51.5 24.5q-34 0 -51.5 -25t-21.5 -81z" />
<glyph unicode="&#x178;" horiz-adv-x="707" d="M492 723q-30 0 -51 21t-21 52q0 29 21.5 50t51.5 21q29 0 50 -21.5t21 -50.5q0 -30 -21 -51t-51 -21zM255 723q-30 0 -51 21t-21 52q0 29 21.5 50t51.5 21q29 0 50 -21.5t21 -50.5q0 -30 -21 -51t-51 -21zM144 0v91h65q34 0 43 12q6 9 7.5 20t1.5 62v76l-147 234 q-39 62 -44 66q-17 15 -46 15h-38v91h396v-91h-42q-35 0 -35 -17q0 -6 11 -27l85 -155l88 155q12 20 12 29q0 15 -31 15h-43v91h295v-91h-38q-31 0 -48 -23q-9 -9 -40 -58l-150 -234v-76q0 -52 1.5 -63t7.5 -19q9 -12 43 -12h65v-91h-419z" />
<glyph unicode="&#x2c6;" d="M78 520l105 159h129l110 -159h-141l-53 81l-72 -81h-78z" />
<glyph unicode="&#x2dc;" d="M76 533q4 46 16 73q23 53 83 53q34 0 92 -19q42 -14 61 -14q18 0 24 6t10 26h63q-5 -58 -19 -83q-24 -43 -85 -43q-39 0 -99 22q-35 12 -50 12q-16 0 -23.5 -7.5t-9.5 -25.5h-63z" />
<glyph unicode="&#x2000;" horiz-adv-x="453" />
<glyph unicode="&#x2001;" horiz-adv-x="907" />
<glyph unicode="&#x2002;" horiz-adv-x="453" />
<glyph unicode="&#x2003;" horiz-adv-x="907" />
<glyph unicode="&#x2004;" horiz-adv-x="302" />
<glyph unicode="&#x2005;" horiz-adv-x="226" />
<glyph unicode="&#x2006;" horiz-adv-x="151" />
<glyph unicode="&#x2007;" horiz-adv-x="151" />
<glyph unicode="&#x2008;" horiz-adv-x="113" />
<glyph unicode="&#x2009;" horiz-adv-x="181" />
<glyph unicode="&#x200a;" horiz-adv-x="50" />
<glyph unicode="&#x2010;" horiz-adv-x="260" d="M0 180v119h260v-119h-260z" />
<glyph unicode="&#x2011;" horiz-adv-x="260" d="M0 180v119h260v-119h-260z" />
<glyph unicode="&#x2013;" horiz-adv-x="593" d="M33 180v119h527v-119h-527z" />
<glyph unicode="&#x2014;" horiz-adv-x="767" d="M0 180v119h767v-119h-767z" />
<glyph unicode="&#x2018;" horiz-adv-x="230" d="M120 424q-40 0 -64.5 27t-24.5 71q0 65 41 105.5t119 53.5v-44q-63 -14 -81 -72q14 10 30 10q28 0 46.5 -21t18.5 -51q0 -33 -24.5 -56t-60.5 -23z" />
<glyph unicode="&#x2019;" horiz-adv-x="230" d="M44 423v45q63 14 81 71q-14 -9 -30 -9q-28 0 -46.5 21t-18.5 51q0 34 24.5 57t60.5 23q40 0 64.5 -27t24.5 -71q0 -133 -160 -161z" />
<glyph unicode="&#x201a;" horiz-adv-x="230" d="M30 62q0 34 24.5 57t60.5 23q40 0 64.5 -27t24.5 -71q0 -65 -41 -106t-119 -54v44q63 14 81 72q-14 -10 -30 -10q-28 0 -46.5 21t-18.5 51z" />
<glyph unicode="&#x201c;" horiz-adv-x="449" d="M339 424q-40 0 -64.5 27t-24.5 71q0 65 41 105.5t119 53.5v-44q-63 -14 -81 -72q14 10 30 10q28 0 46.5 -21t18.5 -51q0 -33 -24.5 -56t-60.5 -23zM119 424q-40 0 -64.5 27t-24.5 72q0 64 41 104.5t119 53.5v-44q-62 -13 -81 -72q14 10 30 10q27 0 46 -21t19 -51 q0 -33 -24.5 -56t-60.5 -23z" />
<glyph unicode="&#x201d;" horiz-adv-x="449" d="M264 423v45q62 13 81 71q-14 -9 -30 -9q-28 0 -46.5 21t-18.5 51q0 34 24.5 57t60.5 23q40 0 64.5 -27t24.5 -72q0 -65 -41 -106t-119 -54zM44 423v45q63 14 81 71q-14 -9 -31 -9q-27 0 -45.5 21t-18.5 51q0 34 24.5 57t60.5 23q40 0 64.5 -27t24.5 -71q0 -133 -160 -161 z" />
<glyph unicode="&#x201e;" horiz-adv-x="449" d="M250 63q0 33 24.5 56t60.5 23q40 0 64.5 -27.5t24.5 -71.5q0 -64 -41 -105t-119 -54v44q62 14 81 72q-14 -9 -30 -9q-28 0 -46.5 21t-18.5 51zM30 63q0 33 24.5 56t60.5 23q40 0 64.5 -27t24.5 -71q0 -64 -41 -105t-119 -55v44q62 14 81 72q-14 -9 -30 -9q-28 0 -46.5 21 t-18.5 51z" />
<glyph unicode="&#x2022;" horiz-adv-x="666" d="M335 200q-57 0 -98 40.5t-41 97.5q0 58 41 98.5t100 40.5q55 0 95.5 -41t40.5 -97q0 -58 -40.5 -98.5t-97.5 -40.5z" />
<glyph unicode="&#x2026;" horiz-adv-x="718" d="M517 73q0 34 24 57.5t59 23.5q32 0 56 -24t24 -57q0 -34 -24 -58t-57 -24q-34 0 -58 24t-24 58zM277 73q0 34 24 57.5t59 23.5q32 0 56 -24t24 -57q0 -34 -24 -58t-57 -24q-34 0 -58 24t-24 58zM38 73q0 34 24 57.5t59 23.5q32 0 56 -24t24 -57q0 -34 -24 -58t-57 -24 q-34 0 -58 24t-24 58z" />
<glyph unicode="&#x202f;" horiz-adv-x="181" />
<glyph unicode="&#x2039;" horiz-adv-x="226" d="M106 85q-62 85 -62 148q0 32 13.5 63.5t48.5 78.5h77q-38 -82 -38 -148t38 -142h-77z" />
<glyph unicode="&#x203a;" horiz-adv-x="226" d="M42 85q39 81 39 147t-39 143h77q63 -84 63 -148q0 -59 -63 -142h-77z" />
<glyph unicode="&#x205f;" horiz-adv-x="226" />
<glyph unicode="&#x20ac;" horiz-adv-x="751" d="M19 244l28 67h53q-1 8 -1 19q0 18 1 28h-81l28 67h62q24 120 112 188.5t218 68.5q66 0 103.5 -15t74.5 -55l14 55h102v-259h-102q-1 76 -30 120q-38 59 -120 59q-61 0 -101 -41.5t-54 -120.5h235l-28 -67h-213q-1 -10 -1 -19q0 -14 1 -28h194l-28 -67h-159 q31 -164 156 -164q97 0 132 90q13 32 16 98h102q0 -76 -23 -128q-66 -155 -273 -155q-136 0 -220 66t-110 193h-88z" />
<glyph unicode="&#x2122;" horiz-adv-x="1056" d="M424 286v58h38q21 0 25 6.5t4 42.5v167q0 36 -4 42.5t-25 6.5h-37v58h244l62 -218l63 218h245v-58h-37q-21 0 -25 -6.5t-4 -42.5v-167q0 -36 3.5 -42.5t24.5 -6.5h38v-58h-246v58h25q21 0 25 6.5t4 42.5v188l-90 -295h-100l-90 295v-188q0 -36 4 -42.5t25 -6.5h24v-58 h-196zM71 286v58h38q21 0 25 6.5t4 42.5v217q-76 0 -75 -96h-70v153h422v-153h-73v3v14q0 79 -66 79h-9v-217q0 -36 3.5 -42.5t24.5 -6.5h38v-58h-262z" />
</font>
</defs>
</svg>
