<?xml version="1.0" standalone="no"?>
<!DOCTYPE svg PUBLIC "-//W3C//DTD SVG 1.1//EN" "http://www.w3.org/Graphics/SVG/1.1/DTD/svg11.dtd" >
<svg xmlns="http://www.w3.org/2000/svg">
<metadata>
This is a custom SVG webfont generated by Fontspring.
Designer    : FontSite.com
Foundry URL : http://www.fontsite.com
</metadata>
<defs>
<font id="webfont" horiz-adv-x="876" >
<font-face units-per-em="1000" ascent="777" descent="-223" />
<missing-glyph horiz-adv-x="250" />
<glyph unicode=" "  horiz-adv-x="250" />
<glyph unicode="&#x09;" horiz-adv-x="250" />
<glyph unicode="&#xa0;" horiz-adv-x="250" />
<glyph unicode="!" horiz-adv-x="484" d="M198 233l-63 248q-17 69 -17 104q0 51 33.5 80t92.5 29q57 0 90 -33q30 -29 30 -75q0 -43 -13 -94l-64 -259h-89zM117 91q0 44 35 72.5t90 28.5q54 0 89 -28.5t35 -72.5q0 -45 -36 -74.5t-91 -29.5q-51 0 -86.5 30.5t-35.5 73.5z" />
<glyph unicode="&#x22;" horiz-adv-x="394" d="M243 399l-24 268h147l-24 -268h-99zM52 399l-24 268h147l-24 -268h-99z" />
<glyph unicode="#" d="M160 0l29 182h-151l18 117h151l13 82h-150l18 117h150l28 169h131l-27 -169h185l27 169h133l-27 -169h150l-18 -117h-150l-13 -82h151l-18 -117h-151l-29 -182h-134l30 182h-185l-29 -182h-132zM339 299h185l13 82h-185z" />
<glyph unicode="$" d="M41 127q0 43 34 69.5t87 26.5q49 0 82.5 -19t33.5 -48t-36 -52q60 -28 138 -28h9v178q-127 19 -168 29q-82 20 -126 67t-44 113q0 68 46.5 120t131.5 77q42 12 160 18v83h79v-83q124 -5 189 -24q67 -19 104.5 -51.5t37.5 -70.5q0 -35 -32.5 -58.5t-80.5 -23.5 q-50 0 -84.5 19.5t-34.5 47.5q0 25 33 47q-13 10 -52 18.5t-80 9.5v-164q132 -16 200 -35q165 -45 165 -184q0 -97 -80 -155q-90 -66 -285 -66v-105h-79v105q-348 8 -348 139zM322 447q25 -7 67 -13v158q-60 -3 -93.5 -24t-33.5 -55q0 -48 60 -66zM468 78q52 3 80 12 q63 22 63 74q0 44 -47 63q-22 8 -80 16q-3 1 -16 3v-168z" />
<glyph unicode="%" horiz-adv-x="1109" d="M303 332q-101 0 -157.5 45.5t-56.5 127.5q0 83 53.5 128.5t150.5 45.5q103 0 157.5 -46t54.5 -134q0 -80 -52.5 -123.5t-149.5 -43.5zM202 0l601 668l125 -1l-609 -667h-117zM236 416q19 -31 61 -31q40 0 58.5 26.5t18.5 85.5q0 62 -12 92q-17 37 -66 37q-42 0 -58 -27 q-16 -25 -16 -102q0 -59 14 -81zM604 157q0 83 53.5 128.5t150.5 45.5q103 0 157.5 -46t54.5 -134q0 -80 -52.5 -123.5t-149.5 -43.5q-101 0 -157.5 45.5t-56.5 127.5zM737 149q0 -59 14 -81q19 -31 61 -31q40 0 58.5 26.5t18.5 85.5q0 62 -12 92q-17 37 -66 37 q-42 0 -58 -27q-16 -25 -16 -102z" />
<glyph unicode="&#x26;" horiz-adv-x="1066" d="M67 185q0 154 207 211q-38 62 -38 116q0 76 55 123t145 47q76 0 123 -38.5t47 -99.5q0 -72 -66 -119q-21 -15 -68 -36q33 -42 84.5 -93t88.5 -77q47 61 54.5 74t7.5 29q0 22 -10.5 29t-41.5 7h-28v96h325v-96h-24q-44 0 -60.5 -11.5t-69.5 -81.5q-48 -65 -81 -95 q50 -28 82 -28q35 0 53 16t23 51q4 21 4 55h95q0 -79 -10 -132q-12 -69 -60 -109t-118 -40q-103 0 -203 81q-120 -83 -254 -83q-121 0 -191.5 55t-70.5 149zM425 448q76 41 76 91q0 25 -18 42.5t-43 17.5q-23 0 -39 -16.5t-16 -41.5q0 -37 40 -93zM253 226q0 -55 46 -95 t111 -40q57 0 101 29q-111 82 -193 204q-30 -14 -47.5 -40t-17.5 -58z" />
<glyph unicode="'" horiz-adv-x="203" d="M52 399l-24 268h147l-24 -268h-99z" />
<glyph unicode="(" horiz-adv-x="684" d="M203 223q0 237 162 367q94 76 227 103v-86q-90 -22 -140 -120q-40 -81 -40 -264q0 -201 53 -286q46 -76 127 -98v-85q-153 31 -255 127q-134 125 -134 342z" />
<glyph unicode=")" horiz-adv-x="684" d="M92 -161q91 24 140 121q40 83 40 263q0 202 -53 287q-47 77 -127 97v86q153 -31 255 -127q134 -127 134 -343q0 -237 -161 -366q-96 -76 -228 -103v85z" />
<glyph unicode="*" horiz-adv-x="505" d="M109 301q-24 21 -24 47q0 34 48 58l51 25q32 15 32 26q0 16 -28 15l-15 -1l-56 -9q-25 -4 -33 -4q-26 0 -41 15.5t-15 41.5q0 33 20 58t46 25q13 0 21 -5t27 -24l51 -50q19 -19 29 -19q15 0 15 14q0 9 -16 35l-23 36q-21 34 -21 55q0 23 20.5 38t52.5 15q34 0 56 -15.5 t22 -38.5q0 -21 -21 -54l-23 -36q-15 -24 -15 -32q0 -5 4.5 -9t9.5 -4q9 0 37 25l31 29q25 23 36.5 30t27.5 7q25 0 44 -25.5t19 -59.5q0 -25 -16.5 -41t-41.5 -16q-8 0 -34 4l-48 8q-30 5 -34 5q-5 0 -9.5 -4.5t-4.5 -9.5q0 -14 35 -29l41 -18q52 -23 52 -56 q0 -29 -23.5 -52t-54.5 -23q-24 0 -37 14t-18 46l-8 49q-5 32 -9.5 40.5t-14.5 8.5q-15 0 -21 -36l-8 -52q-11 -74 -56 -74q-27 0 -59 27z" />
<glyph unicode="+" d="M125 272v123h247v198h133v-198h247v-123h-247v-199h-133v199h-247z" />
<glyph unicode="," horiz-adv-x="445" d="M92 93q0 42 33.5 70.5t83.5 28.5q62 0 103 -43.5t41 -110.5q0 -89 -64 -144.5t-171 -59.5v68q58 4 90 22q24 13 39.5 37.5t15.5 50.5q0 9 -1 16q-32 -29 -70 -29q-41 0 -70.5 27.5t-29.5 66.5z" />
<glyph unicode="-" horiz-adv-x="426" d="M0 169v166h426v-166h-426z" />
<glyph unicode="." horiz-adv-x="434" d="M92 91q0 44 35 72.5t90 28.5t90 -28.5t35 -72.5t-36.5 -74t-90.5 -30q-52 0 -87.5 30t-35.5 74z" />
<glyph unicode="/" horiz-adv-x="394" d="M-28 -231l276 898h153l-279 -898h-150z" />
<glyph unicode="0" d="M157 49q-129 85 -129 271q0 188 129 273q56 36 122.5 52t164.5 16q197 0 300.5 -86.5t103.5 -250.5q0 -189 -129 -275q-103 -68 -281 -68t-281 68zM305 141q36 -67 132 -67t132 67q25 47 25 159q0 135 -13 173q-32 95 -144 95q-96 0 -132 -67q-15 -27 -20 -60t-5 -100 v-40q0 -67 5 -100t20 -60z" />
<glyph unicode="1" d="M143 0v105h104q36 0 51.5 4.5t23.5 17.5q8 14 8 75v239h-187v103q101 -1 152 23t72 82h208v-461q0 -55 13.5 -69t66.5 -14h99v-105h-611z" />
<glyph unicode="2" d="M24 -6q2 124 19 177.5t75 105.5q42 38 87.5 57t133.5 35l87 16q42 8 80 21q55 21 55 70q0 43 -43 67.5t-118 24.5q-86 0 -153 -33q28 -13 39.5 -26.5t11.5 -33.5q0 -35 -33.5 -57.5t-86.5 -22.5q-59 0 -95.5 28t-36.5 74q0 78 95.5 121t269.5 43q196 0 301 -49 q48 -22 77 -66.5t29 -96.5q0 -128 -145 -176q-67 -21 -158 -28l-117 -9q-131 -10 -185 -40.5t-61 -101.5q62 64 212 64q38 0 111 -8l113 -12q27 -3 48 -3q55 0 78.5 20.5t30.5 73.5h89v-27q0 -101 -38 -157q-23 -34 -60.5 -49t-100.5 -15q-82 0 -175 20l-115 25 q-73 16 -113 16q-80 0 -93 -48h-115z" />
<glyph unicode="3" d="M34 154q0 47 38 77t98 30q53 0 86.5 -23.5t33.5 -61.5q0 -49 -67 -81q53 -22 154 -22q87 0 135 29.5t48 83.5q0 63 -68 87q-33 11 -105 11h-63v95h67q86 0 123 15q52 22 52 73q0 101 -192 101q-81 0 -138 -28q60 -27 60 -69q0 -32 -34 -54.5t-83 -22.5q-62 0 -100 28.5 t-38 74.5q0 44 37 80t103 57q89 27 252 27q181 0 279 -45.5t98 -129.5q0 -58 -48.5 -97t-139.5 -53q107 -12 158 -49t51 -102q0 -89 -95 -143q-104 -61 -323 -61q-180 0 -279.5 45.5t-99.5 127.5z" />
<glyph unicode="4" d="M26 194v125l417 330h212v-355h182v-100h-182v-26q0 -37 16 -53q13 -10 65 -10h101v-105h-608v105h114q47 0 64 13t17 50v26h-398zM157 294h267v217z" />
<glyph unicode="5" d="M44 139q0 45 34.5 70t96.5 25q52 0 83 -19.5t31 -51.5q0 -46 -63 -59q47 -30 147 -30q86 0 137.5 35.5t51.5 94.5t-51 94.5t-136 35.5q-110 0 -174 -54h-133l29 388q204 -28 392 -28q140 0 250 22l18 -67q-64 -38 -162 -61t-200 -23q-46 0 -190 13l-15 -150 q66 43 126.5 59t161.5 16q165 0 260 -60.5t95 -165.5q0 -57 -31.5 -107.5t-84.5 -78.5q-106 -56 -294 -56q-182 0 -280.5 41t-98.5 117z" />
<glyph unicode="6" d="M141 61q-110 86 -110 251q0 176 113.5 262.5t343.5 86.5q159 0 245.5 -34.5t86.5 -97.5q0 -37 -32.5 -60.5t-82.5 -23.5q-53 0 -86 17.5t-33 46.5q0 12 5 20.5t22 23.5q-42 15 -113 15q-62 0 -111.5 -17t-73.5 -47q-37 -47 -37 -137q0 -14 1 -27q32 36 70 52 q77 34 181 34q134 0 226 -49q44 -23 68 -64.5t24 -92.5q0 -115 -106.5 -177t-305.5 -62q-194 0 -295 80zM284 196q0 -55 43.5 -88.5t115.5 -33.5q71 0 115 34t44 89q0 56 -42.5 90t-111.5 34q-76 0 -120 -33.5t-44 -91.5z" />
<glyph unicode="7" d="M284 0q1 131 51.5 212t164.5 139l67 34q79 40 117 71.5t51 67.5q-95 -76 -228 -76q-74 0 -152 22l-39 11q-46 13 -81 13q-37 0 -54.5 -30.5t-17.5 -96.5v-65h-112v333h112v-90q59 108 186 108q62 0 140 -26l87 -29q14 -5 25 -8.5t19 -5.5t15 -3.5t10.5 -2.5t9 -1.5 t7 -0.5h8h8.5q76 0 82 59h97v-19q0 -125 -102 -225q-11 -10 -20 -19l-25 -26q-8 -8 -17 -16q-92 -92 -126.5 -161t-38.5 -169h-244z" />
<glyph unicode="8" d="M95 43q-70 47 -70 117q0 52 37.5 85.5t117.5 55.5q-43 14 -64 24q-36 18 -57 51.5t-21 74.5q0 55 34.5 101.5t93.5 69.5q100 39 257 39q187 0 294 -43q43 -17 67 -48t24 -69q0 -46 -34.5 -74.5t-108.5 -43.5q58 -9 95 -27q91 -44 91 -147q0 -63 -38.5 -114.5 t-104.5 -75.5q-106 -38 -277 -38q-245 0 -336 62zM313 431q68 -16 195 -16q58 0 78 17q25 22 25 51q0 40 -50.5 62t-141.5 22q-157 0 -157 -79q0 -19 14 -35t37 -22zM227 187q0 -49 57 -77.5t153 -28.5q83 0 130.5 25t47.5 68q0 40 -40 57q-16 6 -77 11l-158 11q-28 2 -37 2 q-34 0 -55 -18.5t-21 -49.5z" />
<glyph unicode="9" d="M49 114q0 36 34.5 59t89.5 23q48 0 81 -18t33 -45q0 -22 -28 -43q45 -16 127 -16q55 0 101 17t68 45q39 49 39 134q0 11 -3 38q-15 -26 -45 -43q-77 -45 -193 -45q-153 0 -239 55t-86 154q0 63 38.5 113t108.5 79q99 40 252 40q205 0 304 -75q111 -83 111 -252 q0 -100 -41 -175.5t-118 -118.5q-105 -59 -313 -59q-147 0 -234 36t-87 97zM269 447q0 -55 43 -89.5t111 -34.5q76 0 119.5 32.5t43.5 88.5q0 59 -42 91.5t-118 32.5q-71 0 -114 -33t-43 -88z" />
<glyph unicode=":" horiz-adv-x="434" d="M215 292q-52 0 -87.5 30t-35.5 74t35 72t90 28t90 -28.5t35 -72.5t-36.5 -73.5t-90.5 -29.5zM92 91q0 44 35 72.5t90 28.5t90 -28.5t35 -72.5t-36.5 -74t-90.5 -30q-52 0 -87.5 30t-35.5 74z" />
<glyph unicode=";" horiz-adv-x="445" d="M219 292q-51 0 -86.5 30.5t-35.5 73.5q0 44 35 72t90 28q54 0 89 -28.5t35 -72.5t-36 -73.5t-91 -29.5zM92 93q0 42 33.5 70.5t83.5 28.5q62 0 103 -43.5t41 -110.5q0 -89 -64 -144.5t-171 -59.5v68q58 4 90 22q24 13 39.5 37.5t15.5 50.5q0 9 -1 16q-32 -29 -70 -29 q-41 0 -70.5 27.5t-29.5 66.5z" />
<glyph unicode="&#x3c;" horiz-adv-x="500" d="M33 280v109l433 220v-128l-296 -147l295 -148l1 -128z" />
<glyph unicode="=" d="M125 360v123h627v-123h-627zM125 183v123h627v-123h-627z" />
<glyph unicode="&#x3e;" horiz-adv-x="500" d="M33 58v129l296 147l-295 147l-1 128l433 -221v-109z" />
<glyph unicode="?" horiz-adv-x="864" d="M336 230q2 53 20.5 82.5t69.5 59.5l27 16q71 42 71 103q0 48 -40.5 76.5t-109.5 28.5q-81 0 -134 -32q58 -20 58 -69q0 -35 -33.5 -58t-85.5 -23q-58 0 -94 29.5t-36 76.5q0 88 113 133q92 37 261 37q195 0 281 -50q84 -48 84 -137q0 -40 -20 -76t-54 -58t-95 -42 l-55 -18q-66 -22 -87.5 -36.5t-23.5 -42.5h-117zM274 91q0 44 35 72.5t90 28.5t90 -28.5t35 -72.5t-36.5 -74t-90.5 -30q-52 0 -87.5 30t-35.5 74z" />
<glyph unicode="@" horiz-adv-x="931" d="M166 -8q-65 48 -101.5 117.5t-36.5 143.5q0 72 36 141t100 120q132 104 325 104q179 0 296.5 -87t117.5 -219q0 -95 -65 -167.5t-150 -72.5q-37 0 -65.5 15.5t-36.5 40.5q-57 -65 -163 -65q-79 0 -132 46.5t-53 116.5q0 83 68.5 145.5t160.5 62.5q88 0 128 -50l9 39h117 l-49 -197q-8 -33 -8 -46q0 -32 29 -32q39 0 73 52t34 112q0 98 -85 160.5t-221 62.5q-149 0 -251 -82t-102 -202q0 -56 25.5 -107.5t71.5 -88.5q90 -73 257 -73q116 0 237 32l26 -84q-116 -31 -265 -31q-202 0 -327 93zM371 230q0 -32 23.5 -52.5t60.5 -20.5q43 0 76.5 32.5 t33.5 74.5q0 32 -23 52.5t-59 20.5q-45 0 -78.5 -32t-33.5 -75z" />
<glyph unicode="A" horiz-adv-x="1175" d="M-10 0v107h28q49 0 70 14.5t61 76.5l305 469h273l307 -488q31 -49 49.5 -60.5t65.5 -11.5h36v-107h-565v107h91q51 0 51 22q0 5 -12 27l-33 58h-408l-27 -46q-14 -24 -14 -35q0 -15 11 -20.5t41 -5.5h83v-107h-413zM367 312h289l-143 229z" />
<glyph unicode="B" horiz-adv-x="1186" d="M36 0v107h75q54 0 68 12q10 9 13 25t3 68v243q0 54 -3 70.5t-16 24.5q-15 10 -65 10h-75v107h813q121 0 177 -22q51 -20 80 -57.5t29 -84.5q0 -126 -200 -150q72 -5 121 -26q102 -45 102 -140q0 -57 -39 -100.5t-109 -66.5q-65 -20 -192 -20h-782zM447 391h277 q67 0 92 13q42 23 42 71q0 53 -47 74q-23 11 -89 11h-275v-169zM447 107h294q66 0 93 15q42 24 42 74q0 27 -14.5 47.5t-40.5 30.5q-25 10 -94 10h-280v-177z" />
<glyph unicode="C" horiz-adv-x="1051" d="M203 49q-81 42 -125.5 117t-44.5 170t44.5 168t127.5 116q144 73 336 73q147 0 247 -42q31 -13 69 -39l16 55h131v-243h-147q-22 51 -52 82q-78 78 -211 78q-127 0 -203.5 -67t-76.5 -179q0 -113 78.5 -183.5t203.5 -70.5q136 0 222 89q34 34 52 93h149 q-18 -66 -44 -108.5t-71 -78.5q-128 -104 -351 -104q-205 0 -350 74z" />
<glyph unicode="D" horiz-adv-x="1259" d="M36 0v107h75q54 0 67 12q11 9 14 24.5t3 68.5v243q0 55 -3 71t-16 24q-15 10 -65 10h-75v107h715q173 0 279 -42q94 -38 145.5 -112.5t51.5 -172.5q0 -97 -52 -174t-141 -112q-134 -54 -328 -54h-670zM447 107h220q133 0 198 44q91 60 91 182q0 68 -30.5 121.5 t-85.5 80.5q-50 25 -175 25h-218v-453z" />
<glyph unicode="E" horiz-adv-x="1126" d="M37 0v107h75q54 0 68 12q10 9 13 25t3 68v243q0 54 -3 70.5t-16 24.5q-15 10 -65 10h-75v107h1031v-262h-125v28q0 70 -29 99q-19 19 -38 23.5t-76 4.5h-352v-166h168q52 0 64.5 11.5t12.5 59.5v35h123v-319h-123v32q0 47 -19 63q-13 11 -63 11h-163v-180h368q48 0 70 6 t35 24q22 28 22 99v36h125v-272h-1031z" />
<glyph unicode="F" horiz-adv-x="1058" d="M37 0v107h75q54 0 68 12q10 9 13 25t3 68v243q0 54 -3 70.5t-16 24.5q-15 10 -65 10h-75v107h1006v-262h-123v25q0 64 -22 95q-15 20 -38.5 27.5t-73.5 7.5h-338v-168h163q42 0 58 17q10 10 10 50v37h116v-317h-116v24q0 52 -17.5 67t-77.5 15h-136v-73q0 -54 3 -70.5 t16 -24.5q15 -10 65 -10h75v-107h-570z" />
<glyph unicode="G" horiz-adv-x="1166" d="M32 337q0 166 137 261t378 95q218 0 337 -93l22 72h122v-246h-144q-32 66 -84 100q-86 58 -202 58q-131 0 -215 -73q-74 -63 -74 -176t76 -182.5t200 -69.5q92 0 163 41t71 93q0 24 -14 32.5t-53 8.5h-55v107h453v-107h-25q-52 0 -63.5 -12t-11.5 -64v-182h-187l-24 73 q-112 -99 -323 -99q-220 0 -352 99t-132 264z" />
<glyph unicode="H" horiz-adv-x="1328" d="M37 0v107h75q54 0 68 12q10 9 13 25t3 68v243q0 54 -3 70.5t-16 24.5q-15 10 -65 10h-75v107h570v-107h-75q-54 0 -68 -12q-10 -9 -13 -25t-3 -68v-60h433v60q0 54 -3 70.5t-16 24.5q-15 10 -65 10h-75v107h570v-107h-75q-54 0 -68 -12q-10 -9 -13 -25t-3 -68v-243 q0 -54 3 -70.5t16 -24.5q15 -10 65 -10h75v-107h-570v107h75q54 0 68 12q10 9 13 25t3 68v68h-433v-68q0 -54 3 -70.5t16 -24.5q15 -10 65 -10h75v-107h-570z" />
<glyph unicode="I" horiz-adv-x="636" d="M37 0v107h75q54 0 68 12q10 9 13 25t3 68v243q0 54 -3 70.5t-16 24.5q-15 10 -65 10h-75v107h563v-107h-75q-54 0 -68 -12q-10 -9 -13 -25t-3 -68v-243q0 -54 3 -70.5t16 -24.5q15 -10 65 -10h75v-107h-563z" />
<glyph unicode="J" horiz-adv-x="826" d="M15 160q0 59 40 95.5t105 36.5q53 0 88.5 -27t35.5 -67q0 -35 -25.5 -58.5t-63.5 -23.5q-16 0 -40 7q22 -53 101 -53q41 0 76 18.5t52 49.5q16 31 16 112v205q0 54 -3 70.5t-16 24.5q-15 10 -65 10h-91v107h577v-107h-66q-54 0 -68 -12q-10 -8 -13 -24.5t-3 -68.5v-209 q0 -75 -14 -115.5t-52 -75.5q-88 -80 -269 -80q-143 0 -222.5 48.5t-79.5 136.5z" />
<glyph unicode="K" horiz-adv-x="1284" d="M37 0v107h75q54 0 68 12q10 9 13 25t3 68v243q0 54 -3 70.5t-16 24.5q-15 10 -65 10h-75v107h557v-107h-62q-54 0 -68 -12q-10 -8 -13 -24.5t-3 -68.5v-101l346 161q32 15 32 29q0 16 -42 16h-79v107h547v-107h-28q-53 0 -104 -18q-52 -19 -97 -39l-177 -81l282 -255 q41 -38 66 -49t68 -11h25v-107h-592v107h73q46 0 46 16q0 5 -1 7.5t-5.5 7.5t-16.5 16l-177 161l-166 -76v-27q0 -54 3 -70.5t16 -24.5q15 -10 65 -10h62v-107h-557z" />
<glyph unicode="L" horiz-adv-x="992" d="M36 0v107h75q54 0 68 12q11 9 13.5 25t2.5 68v243q0 54 -3 70.5t-16 24.5q-15 10 -65 10h-75v107h576v-107h-81q-54 0 -68 -12q-11 -9 -13.5 -25t-2.5 -68v-348h265q84 0 109 22t25 95v57h130v-281h-940z" />
<glyph unicode="M" horiz-adv-x="1622" d="M36 0v107h75q54 0 67 12q11 9 14 24.5t3 68.5v243q0 55 -3 71t-16 24q-15 10 -65 10h-75v107h501l284 -442l286 442h479v-107h-75q-54 0 -68 -12q-10 -9 -13 -25t-3 -68v-243q0 -54 3 -70.5t16 -24.5q15 -10 65 -10h75v-107h-570v107h75q54 0 67 12q11 9 14 24.5t3 68.5 v330l-348 -542h-164l-338 523v-311q0 -54 3 -70.5t16 -24.5q15 -10 64 -10h62v-107h-434z" />
<glyph unicode="N" horiz-adv-x="1269" d="M37 0v107h75q54 0 68 12q10 9 13 25t3 68v243q0 54 -3 70.5t-16 24.5q-15 10 -65 10h-75v107h446l481 -453v241q0 54 -3 70.5t-16 24.5q-15 10 -65 10h-75v107h428v-107h-56q-53 0 -67 -12q-10 -8 -13 -24.5t-3 -68.5v-455h-276l-492 461v-249q0 -54 3 -70.5t16 -24.5 q15 -10 65 -10h75v-107h-448z" />
<glyph unicode="O" horiz-adv-x="1187" d="M213 42q-85 40 -133 117t-48 173q0 103 53.5 182.5t148.5 119.5q142 59 365 59q211 0 353 -59q95 -40 148.5 -119.5t53.5 -182.5q0 -96 -48 -173t-133 -117q-143 -67 -380 -67t-380 67zM309 337q0 -113 77.5 -183t203.5 -70q128 0 208 69t80 180q0 110 -78 180.5 t-200 70.5q-128 0 -217 -72q-74 -62 -74 -175z" />
<glyph unicode="P" horiz-adv-x="1138" d="M36 0v107h75q54 0 67 12q11 9 14 24.5t3 68.5v243q0 55 -3 71t-16 24q-15 10 -65 10h-75v107h766q144 0 213 -38q99 -56 99 -162q0 -67 -42 -115.5t-119 -70.5q-71 -20 -196 -20h-310v-49q0 -54 3 -70.5t16 -24.5q15 -10 65 -10h96v-107h-591zM447 368h237q72 0 101 13 q23 10 37.5 32.5t14.5 50.5q0 29 -16 52.5t-44 33.5t-96 10h-234v-192z" />
<glyph unicode="Q" horiz-adv-x="1254" d="M234 35q-94 37 -148 117.5t-54 181.5q0 100 53 178.5t148 120.5q136 60 360 60q252 0 395 -77q80 -43 123.5 -117t43.5 -167q0 -186 -179 -283q69 -43 114 -43q58 0 58 91v24h90l1 -34q3 -98 -38.5 -148.5t-121.5 -50.5q-82 0 -170 47q-15 8 -97 59q-82 -19 -216 -19 q-214 0 -362 60zM431 121q-11 30 -11 45q0 41 33 67.5t83 26.5q111 0 274 -113q70 94 70 174q0 92 -53 162q-35 48 -96.5 74.5t-136.5 26.5q-121 0 -203 -68q-82 -67 -82 -186q0 -74 32 -129t90 -80zM485 126q0 -51 108 -51q50 0 89 12q-104 74 -151 74q-20 0 -33 -10 t-13 -25z" />
<glyph unicode="R" horiz-adv-x="1284" d="M36 0v107h75q54 0 68 12q10 9 13 25t3 68v243q0 54 -3 70.5t-16 24.5q-15 10 -65 10h-75v107h835q113 0 162 -20t76 -57t27 -84q0 -68 -52.5 -108.5t-152.5 -49.5q93 -10 129.5 -42.5t36.5 -106.5v-16l2 -34q2 -42 9 -54.5t29 -12.5t30.5 15t8.5 52v46h93v-35 q0 -87 -28 -123q-47 -58 -190 -58q-117 0 -166 41q-36 30 -42 108l-5 56q-5 61 -25.5 76.5t-89.5 15.5h-276v-64q0 -54 3 -70.5t16 -24.5q15 -10 65 -10h87v-107h-582zM447 383h272q79 0 105 20q35 25 35 71q0 47 -36 69q-14 9 -19.5 11t-25.5 4t-62 2h-269v-177z" />
<glyph unicode="S" horiz-adv-x="989" d="M44 0v218h152q17 -61 101 -102q79 -38 210 -38q200 0 200 77q0 55 -105 62l-226 17q-130 10 -198 33q-71 22 -108.5 69t-37.5 113q0 69 42 123.5t116 82.5q101 38 247 38q226 0 335 -80l19 54h126v-203h-145q-13 33 -36.5 52.5t-66.5 36.5q-85 31 -204 31 q-193 0 -193 -71q0 -16 10 -30t26 -20q25 -10 96 -15l225 -16q132 -9 201 -33q61 -22 93.5 -65.5t32.5 -103.5q0 -62 -37 -117t-98 -85q-107 -53 -277 -53q-145 0 -244 28q-44 12 -106 50l-22 -53h-128z" />
<glyph unicode="T" horiz-adv-x="1025" d="M227 0v107h75q54 0 68 12q11 9 13.5 25t2.5 68v348h-131q-62 0 -89 -30q-22 -25 -22 -93v-31h-121v261h978v-261h-125v36q0 67 -22 92.5t-79 25.5h-137v-348q0 -54 3 -70.5t16 -24.5q15 -10 65 -10h75v-107h-570z" />
<glyph unicode="U" horiz-adv-x="1183" d="M226 70q-40 36 -56.5 78t-16.5 107v200q0 54 -3 70.5t-16 24.5q-15 10 -65 10h-75v107h575v-107h-75q-54 0 -68 -12q-11 -9 -13.5 -25t-2.5 -68v-144q0 -104 36 -148q30 -37 87 -58t127 -21q72 0 129 21.5t83 59.5q17 24 23 51t6 82v157q0 55 -3 71t-16 24q-15 10 -65 10 h-75v107h448v-107h-75q-54 0 -68 -12q-10 -9 -13 -25t-3 -68v-171q0 -82 -13 -124.5t-49 -80.5q-101 -104 -362 -104q-276 0 -381 95z" />
<glyph unicode="V" horiz-adv-x="1154" d="M466 0l-316 488q-28 44 -49.5 58t-60.5 14h-42v107h573v-107h-33q-56 0 -72 -5q-25 -7 -25 -26q0 -12 18 -41l213 -339l191 329q23 40 23 55q0 27 -52 27h-73v107h395v-107h-28q-44 0 -62 -11.5t-47 -60.5l-296 -488h-257z" />
<glyph unicode="W" horiz-adv-x="1638" d="M379 0l-241 471q-29 57 -46 72q-19 17 -60 17h-34v107h513v-107h-47q-67 0 -67 -28q0 -12 16 -44l172 -343l174 343l-11 24q-5 11 -15.5 23.5t-17.5 16.5q-16 8 -44 8h-47v107h517v-107h-57q-28 0 -44 -2q-22 -6 -22 -26q0 -8 15 -41q11 -22 15 -29l153 -317l170 336 q15 29 15 45q0 20 -13 27t-48 7h-64v107h379v-107h-28q-41 0 -59 -21q-22 -28 -63 -105l-229 -434h-266l-169 347l-176 -347h-271z" />
<glyph unicode="X" horiz-adv-x="1158" d="M-2 0v107h20q53 0 80 11q29 13 66 41l241 175l-252 193q-30 23 -44.5 28t-54.5 5h-36v107h603v-107h-67q-26 0 -33 -2.5t-7 -10.5v-4.5t1.5 -4t5 -5.5l10 -8.5l16.5 -13.5l111 -89l115 89q31 24 31 33q0 16 -34 16h-59v107h422v-107h-33q-42 0 -71 -13q-34 -15 -71 -42 l-206 -151l223 -174q61 -47 88.5 -60t69.5 -13h26v-107h-612v107h64q43 0 43 22q0 12 -24 30l-132 99l-125 -97q-26 -20 -31 -25t-5 -12q0 -10 9 -13.5t34 -3.5h65v-107h-447z" />
<glyph unicode="Y" horiz-adv-x="1108" d="M284 0v107h87q54 0 68 12q10 9 13 25t3 68v18l-308 280q-34 31 -56 40.5t-60 9.5h-33v107h585v-107h-67q-46 0 -46 -20q0 -8 4.5 -14.5t30.5 -32.5l137 -136l134 133q25 25 32 34t7 17q0 19 -41 19h-68v107h403v-107h-26q-48 0 -70 -13l-8 -7q-8 -6 -26.5 -22t-39.5 -36 l-238 -231v-39q0 -49 2 -63t11 -25q10 -11 24 -14t60 -3h62v-107h-576z" />
<glyph unicode="Z" horiz-adv-x="978" d="M23 0v112l536 448h-288q-76 0 -96 -23q-21 -24 -21 -96v-11h-125v237h895v-107l-542 -448h316q57 0 83.5 12t35.5 43q6 19 7 109h129v-276h-930z" />
<glyph unicode="[" horiz-adv-x="618" d="M216 -220v887h369v-85h-172v-715h172v-87h-369z" />
<glyph unicode="\" horiz-adv-x="394" d="M270 -231l-278 898h152l277 -898h-151z" />
<glyph unicode="]" horiz-adv-x="618" d="M32 -133h173v715h-173v85h370v-887h-370v87z" />
<glyph unicode="^" horiz-adv-x="500" d="M5 334l160 337h171l160 -337h-136l-109 233l-110 -233h-136z" />
<glyph unicode="_" horiz-adv-x="500" d="M0 -46h500v-117h-500v117z" />
<glyph unicode="`" horiz-adv-x="500" d="M191 549l-188 83q-42 18 -42 37q0 24 37 24h193l95 -144h-95z" />
<glyph unicode="a" horiz-adv-x="941" d="M23 116q0 71 76 109q42 22 139 34l159 19q74 9 102 22.5t28 40.5q0 68 -154 68q-107 0 -135 -11q55 -13 55 -47q0 -24 -28 -37.5t-78 -13.5q-61 0 -96.5 21t-35.5 57q0 118 339 118q204 0 283 -38q89 -42 86 -132l-1 -29v-152q0 -48 6 -62.5t25 -14.5q35 0 35 72v42h88 v-12v-12q1 -10 1 -37q0 -39 -6.5 -60t-24.5 -38q-44 -44 -158 -44q-85 0 -127 18.5t-66 65.5q-51 -49 -108 -68.5t-147 -19.5q-257 0 -257 141zM278 125q0 -26 23.5 -40.5t63.5 -14.5q93 0 141 46q29 29 29 76v38q-58 -29 -169 -45q-50 -7 -68 -20q-20 -13 -20 -40z" />
<glyph unicode="b" horiz-adv-x="950" d="M100 0v453q0 69 -2 84t-12 23q-13 9 -51 9h-50v98h351v-280q36 43 80 64q81 38 184 38q148 0 237.5 -69t89.5 -184q0 -69 -32.5 -123.5t-91.5 -86.5q-94 -51 -221 -51q-168 0 -273 94l-40 -69h-169zM328 229q0 -62 51 -105.5t125 -43.5q75 0 121.5 40t46.5 105t-45.5 106 t-118.5 41q-78 0 -129 -40.5t-51 -102.5z" />
<glyph unicode="c" horiz-adv-x="845" d="M22 230q0 71 37.5 127t106.5 88q109 51 285 51q169 0 267 -42.5t98 -116.5q0 -44 -37 -70t-99 -26q-58 0 -93 21.5t-35 56.5q0 19 9.5 31t34.5 23q-49 28 -116 28q-91 0 -147 -44.5t-56 -117.5q0 -75 56 -122t145 -47q143 0 188 102h155q-15 -47 -39 -78t-68 -59 q-95 -60 -273 -60q-201 0 -310 66.5t-109 188.5z" />
<glyph unicode="d" horiz-adv-x="989" d="M23 228q0 117 95.5 189t252.5 72q80 0 145.5 -23.5t102.5 -66.5v54q0 68 -2 83.5t-12 22.5q-13 10 -51 10h-56v98h356v-453q0 -69 2 -84t12 -22q12 -10 51 -10h50v-98h-343v79q-81 -104 -275 -104q-150 0 -239 68.5t-89 184.5zM278 228q0 -65 48 -106.5t122 -41.5 q78 0 126.5 40t48.5 105q0 68 -47 108.5t-126 40.5q-78 0 -125 -40t-47 -106z" />
<glyph unicode="e" horiz-adv-x="890" d="M167 20q-144 64 -144 209q0 73 39.5 131t110.5 89q107 47 275 47q405 0 418 -306h-588q9 -55 60 -87.5t130 -32.5q127 0 181 66h201q-43 -76 -132 -116q-96 -45 -273 -45q-175 0 -278 45zM274 285h339q-15 58 -58.5 89t-109.5 31t-110.5 -31.5t-60.5 -88.5z" />
<glyph unicode="f" horiz-adv-x="589" d="M27 0v98h50q41 0 54 12q8 7 9.5 22.5t1.5 81.5v167h-119v98h119v49q0 46 9 68.5t36 44.5q63 51 219 51q93 0 143.5 -26t50.5 -73q0 -34 -26.5 -56.5t-65.5 -22.5q-33 0 -55.5 17.5t-22.5 42.5q0 23 19 39q-15 3 -22 3q-36 0 -49 -23q-7 -13 -7 -56v-58h192v-98h-186v-167 q0 -85 9 -100.5t57 -15.5h106v-98h-522z" />
<glyph unicode="g" horiz-adv-x="953" d="M40 58q0 83 150 111q-45 19 -69 36q-29 19 -46 50t-17 64q0 54 39 94t112 60q83 23 234 23q110 0 199 -20q54 125 178 125q55 0 90.5 -27.5t35.5 -70.5q0 -34 -24.5 -58.5t-58.5 -24.5q-29 0 -50 19.5t-21 47.5q0 9 4 24q-23 0 -49.5 -17t-41.5 -41q55 -24 80 -56t25 -78 q0 -52 -35.5 -91.5t-101.5 -59.5q-71 -21 -232 -21q-77 0 -127 5q-26 2 -31 2q-20 0 -32.5 -9t-12.5 -23q0 -33 52 -35q60 -2 138 -2h178q133 0 184 -8q61 -9 97.5 -46t36.5 -90q0 -135 -212 -166q-101 -15 -317 -15q-195 0 -269 21q-103 28 -103 96q0 29 22.5 48.5 t84.5 42.5q-90 24 -90 90zM307 320q0 -44 34.5 -71t90.5 -27q59 0 93.5 25t34.5 68q0 44 -35.5 72t-91.5 28t-91 -26.5t-35 -68.5zM170 -88q0 -35 57 -50t191 -15q158 0 217.5 13t59.5 48q0 19 -19.5 24.5t-81.5 5.5h-258q-92 0 -148 8q-18 -15 -18 -34z" />
<glyph unicode="h" horiz-adv-x="1057" d="M23 0v98h50q41 0 54 12q8 7 9.5 22.5t1.5 81.5v239q0 68 -2 83.5t-12 23.5q-13 9 -51 9h-50v98h350v-286q65 59 132 84.5t155 25.5q149 0 214 -76q24 -28 33 -57t9 -79v-65q0 -69 2 -84t12 -22q12 -10 51 -10h51v-98h-466v98h50q41 0 53 12q8 7 10 24t2 86 q0 47 -6.5 69.5t-23.5 39.5q-39 37 -114 37q-99 0 -164 -70v-82q0 -68 2 -83.5t12 -22.5q13 -10 51 -10h50v-98h-465z" />
<glyph unicode="i" horiz-adv-x="518" d="M249 518q-62 0 -99 23.5t-37 62.5q0 41 38.5 66.5t100.5 25.5q59 0 96 -25.5t37 -66.5q0 -38 -37.5 -62t-98.5 -24zM28 0v98h50q41 0 53 12q8 7 10 22t2 82v51q0 68 -2 83.5t-12 22.5q-13 10 -51 10h-50v98h350v-265q0 -68 2 -83t12 -23q12 -10 51 -10h50v-98h-465z" />
<glyph unicode="j" horiz-adv-x="533" d="M291 518q-62 0 -99 23.5t-37 62.5q0 41 39 66.5t100 25.5q59 0 96 -25.5t37 -66.5q0 -38 -37.5 -62t-98.5 -24zM56 -26q33 0 55.5 -20.5t22.5 -50.5q0 -22 -20 -46q-6 -8 -6 -12q0 -7 9 -11.5t22 -4.5q54 0 54 54q0 13 -4 65q-4 70 -4 95v223q0 68 -2 83t-12 22 q-13 10 -51 10h-72v98h372v-520q0 -57 -9.5 -86.5t-36.5 -54.5q-64 -62 -204 -62q-94 0 -146.5 33.5t-52.5 93.5q0 39 24.5 65t60.5 26z" />
<glyph unicode="k" horiz-adv-x="1029" d="M23 0v98h50q41 0 54 12q8 7 9.5 22.5t1.5 81.5v239q0 68 -2 83.5t-12 23.5q-13 9 -51 9h-50v98h350v-412l210 87q20 8 27 13.5t7 12.5q0 13 -28 13h-95v98h497v-98h-23q-65 0 -129 -27q-24 -10 -26 -11l-98 -40l169 -154q13 -13 19 -18q24 -22 37 -27.5t45 -5.5h28v-98 h-469v98h33q36 0 36 18q0 7 -13 20q-2 2 -5 4.5t-5 4.5t-3 4l-76 74l-138 -62q-1 -6 -1 -16q0 -26 14.5 -36.5t48.5 -10.5h38v-98h-450z" />
<glyph unicode="l" horiz-adv-x="509" d="M23 0v98h50q41 0 54 12q8 7 9.5 22.5t1.5 81.5v239q0 68 -2 83.5t-12 23.5q-13 9 -51 9h-50v98h350v-453q0 -68 2 -83.5t12 -22.5q13 -10 51 -10h50v-98h-465z" />
<glyph unicode="m" horiz-adv-x="1561" d="M28 0v98h50q41 0 54 12q8 7 9.5 23t1.5 81v51q0 68 -2 83.5t-12 22.5q-13 10 -51 10h-50v98h350v-98q111 115 275 115q89 0 150.5 -32t84.5 -90q47 59 120 90.5t162 31.5q144 0 210 -74q24 -28 32.5 -54.5t8.5 -73.5v-80q0 -68 2 -83.5t12 -22.5q13 -10 51 -10h51v-98 h-469v98h50q41 0 53 12q9 8 10.5 22t1.5 82v31v3v5q0 47 -24 72q-38 38 -105 38q-50 0 -104 -27q-30 -14 -50 -42v-80q0 -69 2 -84t12 -22q12 -10 51 -10h51v-98h-468v98h50q41 0 53 12q9 8 10.5 22t1.5 82v25v17q0 50 -34 78t-96 28q-57 0 -98 -23t-57 -63v-62 q0 -68 2 -83.5t12 -22.5q12 -10 51 -10h51v-98h-466z" />
<glyph unicode="n" horiz-adv-x="1063" d="M28 0v98h50q41 0 54 12q8 7 9.5 22.5t1.5 81.5v51q0 69 -2 84t-12 22q-13 10 -51 10h-50v98h351v-98q92 115 282 115q162 0 225 -80q21 -26 29 -55t8 -80v-67q0 -69 2 -84t12 -22q13 -10 51 -10h51v-98h-468v98h51q40 0 53 12q8 7 10 21t2 65q0 81 -10 106 q-25 63 -136 63q-108 0 -162 -75v-76q0 -69 2 -84t12 -22q13 -10 51 -10h50v-98h-466z" />
<glyph unicode="o" horiz-adv-x="945" d="M161 25q-65 29 -101.5 83t-36.5 121q0 55 25.5 105t69.5 79q122 83 360 83q224 0 347 -83q44 -29 69.5 -78.5t25.5 -104.5q0 -67 -36.5 -121.5t-101.5 -83.5q-112 -51 -301 -51h-19q-188 0 -301 51zM278 236q0 -72 55.5 -120t138.5 -48q82 0 137.5 48t55.5 119 q0 74 -54 121t-139 47q-84 0 -139 -47.5t-55 -119.5z" />
<glyph unicode="p" horiz-adv-x="990" d="M23 -122h50q41 0 53 12q8 7 10 22t2 82v270q0 68 -2 83t-12 23q-13 9 -51 9h-50v98h339v-89q95 109 276 109q149 0 238 -69t89 -184q0 -122 -95 -192.5t-259 -70.5q-168 0 -238 81v-68q0 -68 2 -83t12 -23q13 -10 51 -10h50v-98h-465v98zM369 232q0 -64 47.5 -105 t122.5 -41q76 0 123.5 41.5t47.5 107.5q0 64 -45.5 104.5t-116.5 40.5q-80 0 -129.5 -41t-49.5 -107z" />
<glyph unicode="q" horiz-adv-x="991" d="M24 245q0 115 89 183.5t240 68.5q88 0 160.5 -29t113.5 -80v89h340v-98h-50q-42 0 -54 -11q-8 -8 -9.5 -23t-1.5 -81v-270q0 -69 2 -84t12 -22q12 -10 51 -10h50v-98h-466v98h51q41 0 54 12q8 7 9.5 22.5t1.5 81.5v68q-73 -81 -239 -81q-164 0 -259 70.5t-95 193.5z M279 237q0 -68 47.5 -109.5t123.5 -41.5t123.5 40.5t47.5 104.5q0 66 -49 107.5t-127 41.5q-74 0 -120 -39.5t-46 -103.5z" />
<glyph unicode="r" horiz-adv-x="735" d="M28 0v98h50q41 0 54 12q8 7 9.5 22t1.5 81v52q0 68 -2 83.5t-12 22.5q-13 10 -51 10h-50v98h342v-98q31 54 87 84.5t123 30.5q66 0 107 -33t41 -88q0 -46 -34 -77t-84 -31q-43 0 -73.5 23.5t-30.5 56.5q0 16 9 34q-49 1 -92.5 -39t-43.5 -85v-44q0 -68 2 -83t12 -22 q13 -10 51 -10h86v-98h-502z" />
<glyph unicode="s" horiz-adv-x="805" d="M32 0v143h144q49 -44 103 -62.5t131 -18.5q56 0 88.5 13.5t32.5 35.5q0 24 -25 32q-14 5 -57 8l-133 9q-84 6 -158 22q-64 14 -99 49t-35 85q0 49 34.5 89.5t94.5 62.5q77 28 209 28q164 0 249 -53l15 31h118v-143h-138q-56 78 -196 78q-67 0 -109.5 -16t-42.5 -41 q0 -36 87 -40q6 0 17 -0.5t16 -1.5l146 -11q118 -8 164 -26q44 -16 68.5 -49t24.5 -75q0 -45 -28 -83t-75 -57q-83 -34 -227 -34q-90 0 -152.5 12.5t-130.5 43.5l-16 -31h-120z" />
<glyph unicode="t" horiz-adv-x="624" d="M138 62q-16 33 -16 122v197h-107v98q70 -3 121.5 46.5t55.5 122.5h165v-169h192v-98h-192v-197q0 -56 12 -76.5t44 -20.5q31 0 44 22.5t13 74.5v30h87v-30q0 -101 -36 -145q-52 -64 -187 -64q-156 0 -196 87z" />
<glyph unicode="u" horiz-adv-x="1058" d="M176 63q-22 26 -29.5 54.5t-7.5 80.5v67q0 68 -2 83t-12 23q-13 10 -51 10h-50v98h353v-214q0 -51 5.5 -74.5t21.5 -39.5q35 -37 118 -37q108 0 162 75v76q0 68 -2 83t-12 23q-12 10 -51 10h-51v98h351v-265v-9v-19q0 -62 9.5 -75t55.5 -13h51v-98h-351v98 q-92 -115 -282 -115q-163 0 -226 80z" />
<glyph unicode="v" horiz-adv-x="938" d="M127 312q-1 1 -6 8.5l-9 13.5q-19 29 -34.5 38t-45.5 9h-34v98h498v-98h-64q-25 0 -35 -5.5t-10 -18.5q0 -14 19 -45l121 -190l128 190q19 29 19 45q0 24 -38 24h-57v98h344v-98h-24q-29 0 -45.5 -9t-35.5 -37q-10 -15 -16 -23l-223 -312h-239z" />
<glyph unicode="w" horiz-adv-x="1406" d="M289 0l-145 266q-3 6 -15 27l-20 35q-16 31 -33.5 42t-49.5 11h-28v98h491v-98h-70q-32 0 -43 -5t-11 -18q0 -12 17 -44l96 -180l184 345h196l191 -345l92 180q15 28 15 46q0 12 -8.5 16.5t-31.5 4.5h-71v98h346v-98h-20q-38 0 -58 -16q-10 -8 -33 -51l-170 -314h-252 l-162 291l-156 -291h-251z" />
<glyph unicode="x" horiz-adv-x="1043" d="M15 0v99h11q61 0 136 37l191 95l-200 111q-45 25 -61.5 31.5t-39.5 6.5h-26v99h541v-90h-50q-36 0 -36 -21q0 -16 29 -31l84 -42l78 42q28 16 28 31q0 9 -9.5 15t-23.5 6h-41v90h387v-99h-16q-20 0 -36.5 -6t-67.5 -30l-202 -96l184 -102q50 -27 79.5 -36t73.5 -11v-99 h-556v90h49q34 0 34 18q0 17 -24 28l-84 42l-88 -42q-29 -13 -29 -28q0 -11 7.5 -14.5t31.5 -3.5h43v-90h-397z" />
<glyph unicode="y" horiz-adv-x="902" d="M81 -131q0 40 33 67t82 27q41 0 68.5 -19.5t27.5 -49.5q0 -24 -34 -50q15 -9 30 -9q53 0 94 69l21 36l-279 366q-40 52 -57 63.5t-52 11.5h-25v98h498v-98h-54q-29 0 -39.5 -4.5t-10.5 -17.5q0 -12 19 -40l128 -186l104 172q24 39 24 53q0 23 -41 23h-57v98h335v-98h-20 q-31 0 -48.5 -10.5t-35.5 -38.5q-10 -18 -17 -27l-244 -381q-36 -56 -72 -95q-63 -71 -181 -71q-92 0 -144.5 29.5t-52.5 81.5z" />
<glyph unicode="z" horiz-adv-x="883" d="M42 0v97l433 277h-213q-55 0 -74 -20q-15 -16 -15 -54v-35h-109v214h767v-98l-425 -276h232q38 0 56.5 5.5t28.5 21.5q12 16 12 62v26h108v-220h-801z" />
<glyph unicode="{" horiz-adv-x="642" d="M150 176v110q45 7 63 24q11 11 16 35q3 15 3 17v169q0 79 52 111.5t177 32.5q7 0 64 -1l50 -1v-85h-31q-76 0 -97 -11q-13 -6 -17 -17t-4 -41v-166q0 -63 -31 -92q-16 -15 -58 -35q50 -22 69.5 -49.5t19.5 -76.5v-172q0 -30 4 -41t17 -17q21 -11 98 -11h30v-85 q-41 0 -50 -1l-48 -1h-19q-121 0 -173.5 33.5t-52.5 110.5v174q0 41 -18.5 61t-63.5 25z" />
<glyph unicode="|" horiz-adv-x="500" d="M185 -167v834h130v-834h-130z" />
<glyph unicode="}" horiz-adv-x="642" d="M66 -141h31q76 0 97 11q13 6 17 17t4 41v166q0 63 31 92q16 15 58 35q-50 22 -69.5 49.5t-19.5 76.5v172q0 30 -4 41t-17 17q-21 11 -98 11h-30v85q41 0 50 1l48 1h19q121 0 173.5 -33.5t52.5 -110.5v-174q0 -41 19 -61t64 -25v-110q-46 -7 -64 -24q-11 -11 -16 -35 q-3 -15 -3 -17v-169q0 -79 -52 -111.5t-177 -32.5q-7 0 -64 1l-50 1v85z" />
<glyph unicode="~" horiz-adv-x="667" d="M161 560l-71 47q2 3 5 9t3 8q19 44 31 62.5t32 33.5q34 26 81 26q31 0 103 -26q65 -24 87 -24q24 0 39 11t32 41l74 -43q-23 -47 -38 -69t-36 -37q-38 -28 -85 -28q-25 0 -103 28q-61 22 -81 22q-27 0 -44 -17q-11 -9 -29 -44z" />
<glyph unicode="&#xa1;" horiz-adv-x="484" d="M240 291q-53 0 -88 28.5t-35 72.5t36 74t89 30t88.5 -30t35.5 -75q0 -44 -35 -72t-91 -28zM135 1l63 248h89l64 -259q13 -55 13 -93q0 -50 -32.5 -79t-87.5 -29q-59 0 -92.5 29t-33.5 80q0 34 17 103z" />
<glyph unicode="&#xa2;" d="M88 338q0 77 51 132.5t145 79.5q47 11 154 18v69h66v-69q108 -5 173 -29q49 -17 77.5 -46t28.5 -62q0 -37 -33.5 -60t-87.5 -23q-48 0 -79 18.5t-31 47.5q0 32 36 50q-35 18 -84 22v-287q110 6 148 89h135q-14 -74 -93 -122.5t-190 -51.5v-78h-66v78q-165 1 -257.5 60 t-92.5 164zM312 344q0 -54 35.5 -94t90.5 -48v280q-61 -13 -93.5 -49t-32.5 -89z" />
<glyph unicode="&#xa3;" d="M41 80q122 73 122 183q0 10 -5 25h-120v85h95q-36 50 -36 108q0 94 94 147.5t258 53.5q175 0 274.5 -43t99.5 -119q0 -44 -34 -70t-90 -26q-51 0 -83.5 21.5t-32.5 54.5q0 39 45 57q-46 31 -130 31q-72 0 -118 -35.5t-46 -91.5q0 -24 17 -88h205v-85h-201 q-19 -50 -42.5 -78t-91.5 -82l-54 -44l65 32q100 49 197 49q43 0 93 -8l81 -13q27 -5 53 -5q53 0 72 36q15 26 16 97h103q0 -102 -12 -157q-16 -69 -58.5 -101t-119.5 -32q-73 0 -127 17q-3 1 -5.5 1.5t-4.5 1.5t-4 1.5t-3 1t-2 0.5h-1l-48 12q-101 26 -164 26 q-91 0 -195 -57z" />
<glyph unicode="&#xa4;" d="M140 116l94 94l-1 1q-35 53 -35 122q0 66 36 122l-95 95l81 80l95 -95q59 36 124 36q67 0 122 -35l94 94l80 -80l-93 -94q38 -58 38 -124t-36 -121l94 -94l-80 -81l-94 94q-64 -37 -125 -37q-67 0 -125 37l-94 -94zM329 332q0 -46 32.5 -78.5t77.5 -32.5q46 0 78.5 32.5 t32.5 78.5q0 45 -32.5 78t-76.5 33q-47 0 -79.5 -32t-32.5 -79z" />
<glyph unicode="&#xa5;" d="M182 0v104h54q57 0 70.5 15t13.5 78v10h-274v85h231l-53 79h-188v85h130l-26 39q-9 13 -28 27t-32 18q-22 5 -56 5h-20v104h450v-104h-14q-43 0 -43 -21q0 -12 22 -46l88 -136l89 133q23 35 23 50q0 11 -8.5 15.5t-31.5 4.5h-15v104h309v-104h-13q-49 0 -74 -13 q-15 -8 -36.5 -28t-33.5 -37l-8 -11h133v-85h-191l-55 -79h236v-85h-265v-17q0 -50 13 -68q10 -11 24 -14t60 -3h35v-105h-516z" />
<glyph unicode="&#xa6;" horiz-adv-x="500" d="M185 320v347h130v-347h-130zM185 153h130v-320h-130v320z" />
<glyph unicode="&#xa7;" d="M103 -82q0 38 37 65t90 27q48 0 79 -20.5t31 -51.5q0 -34 -43 -64q37 -18 91 -18q82 0 135.5 25.5t53.5 64.5q0 33 -35 51t-139 39q-131 27 -187.5 45.5t-91.5 46.5q-50 39 -50 93q0 53 37 94.5t101 60.5q-91 52 -91 127q0 47 38 90q42 47 120 73.5t176 26.5 q126 0 208 -37t82 -93q0 -38 -33.5 -62.5t-85.5 -24.5q-45 0 -76.5 19.5t-31.5 47.5q0 13 5 21t25 30l2 3q-46 14 -95 14q-65 0 -109 -21.5t-44 -53.5q0 -31 46 -51q38 -16 235 -60q219 -50 219 -162q0 -48 -34 -84.5t-108 -68.5q105 -51 105 -127q0 -93 -100.5 -151 t-261.5 -58q-181 0 -261 72q-39 36 -39 72zM243 267q0 -37 63 -63q30 -13 117 -32t115 -19q38 0 65 19.5t27 46.5q0 39 -63 61q-52 19 -128.5 37t-102.5 18q-39 0 -66 -19.5t-27 -48.5z" />
<glyph unicode="&#xa8;" horiz-adv-x="500" d="M428 541q-53 0 -87 22t-34 57q0 37 33.5 60t89.5 23q53 0 86 -23t33 -60q0 -35 -34 -57t-87 -22zM72 541q-54 0 -88 22t-34 57q0 37 33.5 60t89.5 23q53 0 86.5 -23t33.5 -60q0 -35 -34 -57t-87 -22z" />
<glyph unicode="&#xa9;" horiz-adv-x="1185" d="M118 143q-85 89 -85 191q0 120 116 219q72 62 196.5 101t250.5 39q151 0 279 -48t202.5 -131t74.5 -181t-75.5 -180.5t-206.5 -130t-287 -47.5q-136 0 -265 46.5t-200 121.5zM209 168q61 -50 166.5 -82t209.5 -32q200 0 341 81.5t141 197.5q0 91 -91 167q-61 50 -169 82 t-215 32q-197 0 -335.5 -82t-138.5 -199q0 -91 91 -165zM279 335q0 94 82.5 148.5t225.5 54.5q120 0 189 -44l9 29h84v-143h-93q-43 91 -157 91q-74 0 -119.5 -37t-45.5 -98q0 -62 46.5 -100.5t120.5 -38.5q80 0 131 49q19 18 30 51l1 2h96q-11 -43 -33 -73 q-72 -97 -252 -97q-148 0 -231.5 54.5t-83.5 151.5z" />
<glyph unicode="&#xaa;" horiz-adv-x="518" d="M162 399q-134 0 -134 71q0 63 112 75l82 9q35 4 49 10t14 18q0 30 -75 30q-13 0 -55 -3l4 -2q13 -7 13 -20q0 -29 -57 -29q-33 0 -52 11t-19 31q0 61 176 61q133 0 169 -35q13 -12 17.5 -25t4.5 -41v-75q0 -23 2.5 -28.5t10.5 -5.5q14 0 14 32v24h52v-3v-29 q0 -40 -23 -57t-76 -17q-78 0 -100 39q-44 -41 -129 -41zM206 452q39 0 61 15t22 42v13q-28 -12 -82 -20q-42 -5 -42 -26q0 -24 41 -24zM35 267v68h449v-68h-449z" />
<glyph unicode="&#xab;" horiz-adv-x="723" d="M363 254q0 18 8.5 31t38.5 39l138 121h99l-89 -121q-32 -45 -32 -67q0 -15 8.5 -31.5t35.5 -56.5l73 -108h-88l-138 116q-54 44 -54 77zM128 177q-54 47 -54 77q0 18 9 31.5t37 38.5l139 121h98l-88 -121q-32 -44 -32 -67q0 -24 43 -88l73 -108h-88z" />
<glyph unicode="&#xac;" horiz-adv-x="500" d="M33 150v117h433v-267h-130v150h-303z" />
<glyph unicode="&#xad;" horiz-adv-x="426" d="M0 169v166h426v-166h-426z" />
<glyph unicode="&#xae;" horiz-adv-x="1185" d="M118 143q-85 89 -85 191q0 120 116 219q72 62 196.5 101t250.5 39q151 0 279 -48t202.5 -131t74.5 -181t-75.5 -180.5t-206.5 -130t-287 -47.5q-136 0 -265 46.5t-200 121.5zM209 168q61 -50 166.5 -82t209.5 -32q200 0 341 81.5t141 197.5q0 91 -91 167q-61 50 -169 82 t-215 32q-197 0 -335.5 -82t-138.5 -199q0 -91 91 -165zM280 147v66h22q35 0 41 7.5t6 48.5v135q0 41 -6 48.5t-41 7.5h-22v67h438q67 0 98 -11q64 -25 64 -82q0 -68 -100 -89l10 -2q66 -13 66 -82l1 -9v-19q2 -23 5.5 -28.5t13.5 -5.5q12 0 16.5 7.5t4.5 26.5v29h63v-22 q0 -51 -18 -72q-28 -33 -116 -33q-67 0 -94.5 18.5t-33.5 67.5l-4 31q-5 34 -15 42t-50 8h-122v-33q0 -41 6 -48.5t41 -7.5h29v-66h-303zM507 368h120q45 0 60 11q20 12 20 37q0 24 -20 35q-13 7 -41 8q-5 0 -21 2h-118v-93z" />
<glyph unicode="&#xaf;" horiz-adv-x="500" d="M21 570v101h459v-101h-459z" />
<glyph unicode="&#xb0;" horiz-adv-x="500" d="M251 357q-65 0 -110 44.5t-45 109.5q0 61 45.5 105t109.5 44t109 -44.5t45 -106.5t-45.5 -107t-108.5 -45zM251 433q32 0 54.5 22.5t22.5 53.5t-23 53t-55 22q-31 0 -54 -22t-23 -52q0 -32 22.5 -54.5t55.5 -22.5z" />
<glyph unicode="&#xb1;" d="M125 356v123h247v178h133v-178h247v-123h-247v-179h-133v179h-247zM125 0v123h627v-123h-627z" />
<glyph unicode="&#xb2;" horiz-adv-x="551" d="M23 259q-2 109 40 160t152 70l53 9q44 7 61 18t17 30q0 23 -24.5 36.5t-67.5 13.5q-44 0 -82 -14q24 -14 24 -34q0 -23 -21 -37.5t-55 -14.5q-37 0 -60 17.5t-23 46.5q0 48 58.5 74.5t164.5 26.5q249 0 249 -129q0 -79 -91 -108q-33 -11 -96 -17l-70 -6 q-75 -6 -103.5 -19.5t-39.5 -48.5q32 18 57 24.5t67 6.5q19 0 66 -5l67 -7q19 -2 29 -2q31 0 44 12t18 44h60q1 -9 1 -21q0 -70 -29 -102t-94 -32q-51 0 -107 12l-69 15q-45 10 -67 10q-45 0 -53 -29h-76z" />
<glyph unicode="&#xb3;" horiz-adv-x="551" d="M29 358q0 30 24 49t62 19q34 0 55 -15.5t21 -39.5q0 -25 -34 -47q46 -10 78 -10q52 0 81 16.5t29 46.5q0 54 -100 54h-42v64h44q54 0 77.5 11t23.5 37q0 55 -112 55q-33 0 -71 -13q29 -17 29 -39q0 -21 -21 -35.5t-52 -14.5q-39 0 -63 18t-24 47q0 27 23 49t64 35 q53 16 152 16q111 0 170.5 -27.5t59.5 -79.5q0 -32 -21.5 -53t-68.5 -35q55 -10 79 -31t24 -58q0 -59 -67 -92t-188 -33q-110 0 -171 28t-61 78z" />
<glyph unicode="&#xb4;" horiz-adv-x="500" d="M161 549l95 144h194q36 0 36 -24q0 -18 -42 -37l-188 -83h-95z" />
<glyph unicode="&#xb5;" horiz-adv-x="500" d="M156 51v-224h-129v653h129v-253q0 -46 6.5 -68.5t25.5 -39.5q28 -26 66 -26q41 0 68 32q25 32 25 105v250h129v-480h-129v56q-33 -66 -96 -66q-59 0 -95 61z" />
<glyph unicode="&#xb6;" d="M105 304q-36 23 -56.5 65t-20.5 92q0 59 27.5 104.5t76.5 69.5q66 32 187 32h482v-107h-107v-780h-150v780h-116v-780h-150v481q-5 -1 -12 -2l-10.5 -1.5t-5.5 -0.5q-30 0 -72.5 14t-72.5 33z" />
<glyph unicode="&#xb7;" horiz-adv-x="434" d="M214 149q-51 0 -86.5 30.5t-35.5 74.5t35 72.5t90 28.5q54 0 89 -28.5t35 -72.5q0 -45 -36.5 -75t-90.5 -30z" />
<glyph unicode="&#xb8;" horiz-adv-x="500" d="M152 -100l81 100h80l-54 -68q23 4 39 4q48 0 78 -23t30 -60q0 -45 -44.5 -73.5t-114.5 -28.5q-72 0 -153 27l29 51q66 -19 106 -19q25 0 40 10.5t15 27.5q0 16 -14 26t-35 10t-44 -9z" />
<glyph unicode="&#xb9;" horiz-adv-x="551" d="M100 262v69h67q33 0 39.5 7.5t6.5 46.5v138h-113v69q65 0 94.5 13.5t41.5 48.5h132v-278q0 -31 7 -38t37 -7h63v-69h-375z" />
<glyph unicode="&#xba;" horiz-adv-x="520" d="M255 399q-110 0 -168.5 33t-58.5 96q0 65 61 99.5t174 34.5q108 0 168.5 -35.5t60.5 -99.5q0 -62 -58.5 -95t-168.5 -33h-10zM260 452q40 0 67.5 22.5t27.5 55.5q0 35 -26.5 57.5t-68.5 22.5q-41 0 -68 -22.5t-27 -56.5t27 -56.5t68 -22.5zM35 267v68h451v-68h-451z" />
<glyph unicode="&#xbb;" horiz-adv-x="724" d="M369 61l73 108q27 40 35.5 56.5t8.5 31.5q0 22 -33 67l-88 121h99l138 -121q30 -26 38.5 -39t8.5 -32q0 -30 -54 -76l-138 -116h-88zM79 61l73 108q44 65 44 88q0 24 -32 67l-89 121h99l138 -121q30 -26 38.5 -39t8.5 -31q0 -33 -54 -77l-138 -116h-88z" />
<glyph unicode="&#xbc;" horiz-adv-x="1276" d="M335 -14l487 696l117 -1l-488 -696zM100 262v69h67q33 0 39.5 7.5t6.5 46.5v138h-113v69q65 0 94.5 13.5t41.5 48.5h132v-278q0 -31 7 -38t37 -7h63v-69h-375zM750 115v79l253 198h133v-210h109v-67h-109v-12q0 -23 7.5 -28.5t36.5 -5.5h65v-69h-373v69h73q26 0 35 7 t9 27v12h-239zM845 182h144v115z" />
<glyph unicode="&#xbd;" horiz-adv-x="1276" d="M335 -14l487 696l117 -1l-488 -696zM100 262v69h67q33 0 39.5 7.5t6.5 46.5v138h-113v69q65 0 94.5 13.5t41.5 48.5h132v-278q0 -31 7 -38t37 -7h63v-69h-375zM749 -3q-2 107 39.5 157t152.5 72l52 10q45 9 61.5 19t16.5 29q0 23 -24.5 36.5t-67.5 13.5t-82 -14 q25 -15 25 -35q0 -23 -21.5 -37.5t-55.5 -14.5q-37 0 -60 17.5t-23 46.5q0 49 58 75.5t165 26.5q249 0 249 -129q0 -79 -90 -108q-35 -11 -96 -17l-70 -6q-75 -6 -104 -19.5t-39 -48.5q53 30 124 30q21 0 65 -4l68 -7q17 -2 29 -2q31 0 44 12t17 44h61v-21q0 -70 -29 -102 t-94 -32q-46 0 -106 12l-69 15q-41 9 -67 9q-45 0 -53 -28h-76z" />
<glyph unicode="&#xbe;" horiz-adv-x="1276" d="M335 -14l486 696l118 -1l-488 -696zM29 358q0 30 24 49t62 19q34 0 55 -15.5t21 -39.5q0 -25 -34 -47q46 -10 78 -10q52 0 81 16.5t29 46.5q0 54 -100 54h-42v64h44q54 0 77.5 11t23.5 37q0 55 -112 55q-33 0 -71 -13q29 -17 29 -39q0 -21 -21 -35.5t-52 -14.5 q-39 0 -63 18t-24 47q0 27 23 49t64 35q53 16 152 16q111 0 170.5 -27.5t59.5 -79.5q0 -32 -21.5 -53t-68.5 -35q55 -10 79 -31t24 -58q0 -59 -67 -92t-188 -33q-110 0 -171 28t-61 78zM750 115v79l253 198h133v-210h108v-67h-108v-12q0 -23 7.5 -28.5t36.5 -5.5h65v-69 h-373v69h73q26 0 35 7t9 27v12h-239zM845 182h144v115z" />
<glyph unicode="&#xbf;" horiz-adv-x="863" d="M338 392q0 44 36.5 74t90.5 30q51 0 86.5 -30.5t35.5 -73.5q0 -44 -35 -72t-89 -28q-55 0 -90 28t-35 72zM74 -20q0 40 20 76t54 58q37 24 94 42l56 18q66 22 87 36t24 43h117q-2 -52 -21 -82t-69 -60l-27 -16q-72 -43 -72 -103q0 -49 40.5 -77.5t109.5 -28.5 q83 0 135 33q-59 21 -59 69q0 35 33.5 58t85.5 23q58 0 94.5 -29.5t36.5 -76.5q0 -88 -113 -133q-91 -37 -262 -37q-194 0 -280 50q-84 48 -84 137z" />
<glyph unicode="&#xc0;" horiz-adv-x="1175" d="M383 813q-32 12 -42.5 20t-10.5 19q0 23 38 23h205l103 -133h-103zM-10 0v107h28q49 0 70 14.5t61 76.5l305 469h273l307 -488q31 -49 49.5 -60.5t65.5 -11.5h36v-107h-565v107h91q51 0 51 22q0 5 -12 27l-33 58h-408l-27 -46q-14 -24 -14 -35q0 -15 11 -20.5t41 -5.5h83 v-107h-413zM367 312h289l-143 229z" />
<glyph unicode="&#xc1;" horiz-adv-x="1175" d="M504 742l103 133h205q39 0 39 -23q0 -11 -10.5 -19t-43.5 -20l-190 -71h-103zM-10 0v107h28q49 0 70 14.5t61 76.5l305 469h273l307 -488q31 -49 49.5 -60.5t65.5 -11.5h36v-107h-565v107h91q51 0 51 22q0 5 -12 27l-33 58h-408l-27 -46q-14 -24 -14 -35q0 -15 11 -20.5 t41 -5.5h83v-107h-413zM367 312h289l-143 229z" />
<glyph unicode="&#xc2;" horiz-adv-x="1175" d="M329 742l155 133h208l153 -133h-183l-92 75l-86 -75h-155zM-10 0v107h28q49 0 70 14.5t61 76.5l305 469h273l307 -488q31 -49 49.5 -60.5t65.5 -11.5h36v-107h-565v107h91q51 0 51 22q0 5 -12 27l-33 58h-408l-27 -46q-14 -24 -14 -35q0 -15 11 -20.5t41 -5.5h83v-107 h-413zM367 312h289l-143 229z" />
<glyph unicode="&#xc3;" horiz-adv-x="1175" d="M335 731q4 72 42.5 113.5t102.5 41.5q47 0 111 -22l43 -15q44 -16 72 -16q46 0 56 52h78q-6 -68 -43 -111q-37 -44 -102 -44q-43 0 -105 19l-55 16l-21 7q-30 9 -47 9q-46 0 -57 -50h-75zM-10 0v107h28q49 0 70 14.5t61 76.5l305 469h273l307 -488q31 -49 49.5 -60.5 t65.5 -11.5h36v-107h-565v107h91q51 0 51 22q0 5 -12 27l-33 58h-408l-27 -46q-14 -24 -14 -35q0 -15 11 -20.5t41 -5.5h83v-107h-413zM367 312h289l-143 229z" />
<glyph unicode="&#xc4;" horiz-adv-x="1175" d="M663 807q0 37 34 59.5t89 22.5q53 0 86 -23t33 -60q0 -34 -34 -56t-87 -22t-87 22t-34 57zM390 728q-54 0 -88 22t-34 57q0 37 34 59.5t89 22.5q53 0 86.5 -23t33.5 -60q0 -34 -34 -56t-87 -22zM-10 0v107h28q49 0 70 14.5t61 76.5l305 469h273l307 -488 q31 -49 49.5 -60.5t65.5 -11.5h36v-107h-565v107h91q51 0 51 22q0 5 -12 27l-33 58h-408l-27 -46q-14 -24 -14 -35q0 -15 11 -20.5t41 -5.5h83v-107h-413zM367 312h289l-143 229z" />
<glyph unicode="&#xc5;" horiz-adv-x="1175" d="M399 808q0 43 50 67t137 24q91 0 140.5 -24.5t49.5 -68.5q0 -22 -17.5 -42.5t-43.5 -29.5q-47 -16 -128 -16q-188 0 -188 90zM505 805q0 -21 22 -33t60 -12t60.5 12t22.5 32q0 52 -83 52q-39 0 -60.5 -13.5t-21.5 -37.5zM-10 0v107h28q49 0 70 14.5t61 76.5l305 469h273 l307 -488q31 -49 49.5 -60.5t65.5 -11.5h36v-107h-565v107h91q51 0 51 22q0 5 -12 27l-33 58h-408l-27 -46q-14 -24 -14 -35q0 -15 11 -20.5t41 -5.5h83v-107h-413zM367 312h289l-143 229z" />
<glyph unicode="&#xc6;" horiz-adv-x="1633" d="M-2 0v101h25q44 0 68 15t83 79l262 285q46 49 46 63q0 9 -9 14q-6 3 -37 3h-104v107h1243v-261h-124v41q0 41 -9.5 63t-32.5 36q-24 14 -99 14h-340v-167h153q35 0 46.5 3t20.5 13q13 14 13 49v43h120v-321h-120v33q0 44 -17 59q-15 14 -76 14h-140v-179h360q42 0 62.5 6 t34.5 23q24 29 24 100v37h124v-273h-1002v107h66q54 0 68 12q10 9 13 25t3 68v32h-338l-71 -77q-26 -33 -27 -39q0 -21 52 -21h97v-107h-438zM478 351h245v215h-37z" />
<glyph unicode="&#xc7;" horiz-adv-x="1051" d="M266 22q-233 85 -233 314q0 95 44.5 168t127.5 116q144 73 336 73q147 0 247 -42q31 -13 69 -39l16 55h131v-243h-147q-22 51 -52 82q-78 78 -211 78q-127 0 -203.5 -67t-76.5 -179q0 -113 78.5 -184t203.5 -71q136 0 222 89q34 36 52 94h149q-30 -135 -148.5 -211 t-303.5 -80l-36 -46q24 4 40 4q50 0 81.5 -24t31.5 -63q0 -47 -46 -76.5t-119 -29.5q-70 0 -160 28l31 54q69 -20 110 -20q26 0 41.5 10.5t15.5 28.5q0 16 -14.5 27t-36.5 11q-21 0 -46 -9l-40 26l65 81q-124 9 -219 45z" />
<glyph unicode="&#xc8;" horiz-adv-x="1126" d="M416 813q-32 12 -42.5 20t-10.5 19q0 23 38 23h205l103 -133h-103zM37 0v107h75q54 0 68 12q10 9 13 25t3 68v243q0 54 -3 70.5t-16 24.5q-15 10 -65 10h-75v107h1031v-262h-125v28q0 70 -29 99q-19 19 -38 23.5t-76 4.5h-352v-166h168q52 0 64.5 11.5t12.5 59.5v35h123 v-319h-123v32q0 47 -19 63q-13 11 -63 11h-163v-180h368q48 0 70 6t35 24q22 28 22 99v36h125v-272h-1031z" />
<glyph unicode="&#xc9;" horiz-adv-x="1126" d="M490 742l103 133h205q39 0 39 -23q0 -11 -10.5 -19t-43.5 -20l-190 -71h-103zM37 0v107h75q54 0 68 12q10 9 13 25t3 68v243q0 54 -3 70.5t-16 24.5q-15 10 -65 10h-75v107h1031v-262h-125v28q0 70 -29 99q-19 19 -38 23.5t-76 4.5h-352v-166h168q52 0 64.5 11.5 t12.5 59.5v35h123v-319h-123v32q0 47 -19 63q-13 11 -63 11h-163v-180h368q48 0 70 6t35 24q22 28 22 99v36h125v-272h-1031z" />
<glyph unicode="&#xca;" horiz-adv-x="1126" d="M333 742l155 133h208l153 -133h-183l-92 75l-86 -75h-155zM37 0v107h75q54 0 68 12q10 9 13 25t3 68v243q0 54 -3 70.5t-16 24.5q-15 10 -65 10h-75v107h1031v-262h-125v28q0 70 -29 99q-19 19 -38 23.5t-76 4.5h-352v-166h168q52 0 64.5 11.5t12.5 59.5v35h123v-319 h-123v32q0 47 -19 63q-13 11 -63 11h-163v-180h368q48 0 70 6t35 24q22 28 22 99v36h125v-272h-1031z" />
<glyph unicode="&#xcb;" horiz-adv-x="1126" d="M653 807q0 37 34 59.5t89 22.5q53 0 86 -23t33 -60q0 -34 -34 -56t-87 -22t-87 22t-34 57zM380 728q-54 0 -88 22t-34 57q0 37 34 59.5t89 22.5q53 0 86.5 -23t33.5 -60q0 -34 -34 -56t-87 -22zM37 0v107h75q54 0 68 12q10 9 13 25t3 68v243q0 54 -3 70.5t-16 24.5 q-15 10 -65 10h-75v107h1031v-262h-125v28q0 70 -29 99q-19 19 -38 23.5t-76 4.5h-352v-166h168q52 0 64.5 11.5t12.5 59.5v35h123v-319h-123v32q0 47 -19 63q-13 11 -63 11h-163v-180h368q48 0 70 6t35 24q22 28 22 99v36h125v-272h-1031z" />
<glyph unicode="&#xcc;" horiz-adv-x="636" d="M318 742l-190 71q-32 12 -42.5 20t-10.5 19q0 23 38 23h205l103 -133h-103zM37 0v107h75q54 0 68 12q10 9 13 25t3 68v243q0 54 -3 70.5t-16 24.5q-15 10 -65 10h-75v107h563v-107h-75q-54 0 -68 -12q-10 -9 -13 -25t-3 -68v-243q0 -54 3 -70.5t16 -24.5q15 -10 65 -10 h75v-107h-563z" />
<glyph unicode="&#xcd;" horiz-adv-x="636" d="M218 742l103 133h205q39 0 39 -23q0 -11 -10.5 -19t-43.5 -20l-190 -71h-103zM37 0v107h75q54 0 68 12q10 9 13 25t3 68v243q0 54 -3 70.5t-16 24.5q-15 10 -65 10h-75v107h563v-107h-75q-54 0 -68 -12q-10 -9 -13 -25t-3 -68v-243q0 -54 3 -70.5t16 -24.5q15 -10 65 -10 h75v-107h-563z" />
<glyph unicode="&#xce;" horiz-adv-x="636" d="M61 742l155 133h208l153 -133h-183l-92 75l-86 -75h-155zM37 0v107h75q54 0 68 12q10 9 13 25t3 68v243q0 54 -3 70.5t-16 24.5q-15 10 -65 10h-75v107h563v-107h-75q-54 0 -68 -12q-10 -9 -13 -25t-3 -68v-243q0 -54 3 -70.5t16 -24.5q15 -10 65 -10h75v-107h-563z" />
<glyph unicode="&#xcf;" horiz-adv-x="636" d="M477 728q-53 0 -87 22t-34 57q0 37 34 59.5t89 22.5q53 0 86 -23t33 -60q0 -34 -34 -56t-87 -22zM161 728q-54 0 -88 22t-34 57q0 37 34 59.5t89 22.5q53 0 86.5 -23t33.5 -60q0 -34 -34 -56t-87 -22zM37 0v107h75q54 0 68 12q10 9 13 25t3 68v243q0 54 -3 70.5t-16 24.5 q-15 10 -65 10h-75v107h563v-107h-75q-54 0 -68 -12q-10 -9 -13 -25t-3 -68v-243q0 -54 3 -70.5t16 -24.5q15 -10 65 -10h75v-107h-563z" />
<glyph unicode="&#xd0;" horiz-adv-x="1259" d="M36 0v107h75q54 0 67 12q11 9 14 24.5t3 68.5v78h-159v107h159v58q0 55 -3 71t-16 24q-15 10 -65 10h-75v107h714q174 0 280 -42q94 -38 145.5 -112.5t51.5 -172.5q0 -97 -52 -174t-141 -112q-134 -54 -329 -54h-669zM447 107h220q132 0 198 43q91 62 91 182 q0 69 -30.5 122.5t-85.5 80.5q-50 25 -175 25h-218v-163h253v-107h-253v-183z" />
<glyph unicode="&#xd1;" horiz-adv-x="1269" d="M413 731q4 72 42.5 113.5t102.5 41.5q47 0 111 -22l43 -15q44 -16 72 -16q46 0 56 52h78q-6 -68 -43 -111q-37 -44 -102 -44q-43 0 -105 19l-55 16l-21 7q-30 9 -47 9q-46 0 -57 -50h-75zM37 0v107h75q54 0 68 12q10 9 13 25t3 68v243q0 54 -3 70.5t-16 24.5 q-15 10 -65 10h-75v107h446l481 -453v241q0 54 -3 70.5t-16 24.5q-15 10 -65 10h-75v107h428v-107h-56q-53 0 -67 -12q-10 -8 -13 -24.5t-3 -68.5v-455h-276l-492 461v-249q0 -54 3 -70.5t16 -24.5q15 -10 65 -10h75v-107h-448z" />
<glyph unicode="&#xd2;" horiz-adv-x="1187" d="M407 813q-32 12 -42.5 20t-10.5 19q0 23 38 23h205l103 -133h-103zM213 42q-85 40 -133 117t-48 173q0 103 53.5 182.5t148.5 119.5q142 59 365 59q211 0 353 -59q95 -40 148.5 -119.5t53.5 -182.5q0 -96 -48 -173t-133 -117q-143 -67 -380 -67t-380 67zM309 337 q0 -113 77.5 -183t203.5 -70q128 0 208 69t80 180q0 110 -78 180.5t-200 70.5q-128 0 -217 -72q-74 -62 -74 -175z" />
<glyph unicode="&#xd3;" horiz-adv-x="1187" d="M500 742l103 133h205q39 0 39 -23q0 -11 -10.5 -19t-43.5 -20l-190 -71h-103zM213 42q-85 40 -133 117t-48 173q0 103 53.5 182.5t148.5 119.5q142 59 365 59q211 0 353 -59q95 -40 148.5 -119.5t53.5 -182.5q0 -96 -48 -173t-133 -117q-143 -67 -380 -67t-380 67z M309 337q0 -113 77.5 -183t203.5 -70q128 0 208 69t80 180q0 110 -78 180.5t-200 70.5q-128 0 -217 -72q-74 -62 -74 -175z" />
<glyph unicode="&#xd4;" horiz-adv-x="1187" d="M343 742l155 133h208l153 -133h-183l-92 75l-86 -75h-155zM213 42q-85 40 -133 117t-48 173q0 103 53.5 182.5t148.5 119.5q142 59 365 59q211 0 353 -59q95 -40 148.5 -119.5t53.5 -182.5q0 -96 -48 -173t-133 -117q-143 -67 -380 -67t-380 67zM309 337 q0 -113 77.5 -183t203.5 -70q128 0 208 69t80 180q0 110 -78 180.5t-200 70.5q-128 0 -217 -72q-74 -62 -74 -175z" />
<glyph unicode="&#xd5;" horiz-adv-x="1187" d="M355 731q4 72 42.5 113.5t102.5 41.5q47 0 111 -22l43 -15q44 -16 72 -16q46 0 56 52h78q-6 -68 -43 -111q-37 -44 -102 -44q-43 0 -105 19l-55 16l-21 7q-30 9 -47 9q-46 0 -57 -50h-75zM213 42q-85 40 -133 117t-48 173q0 103 53.5 182.5t148.5 119.5q142 59 365 59 q211 0 353 -59q95 -40 148.5 -119.5t53.5 -182.5q0 -96 -48 -173t-133 -117q-143 -67 -380 -67t-380 67zM309 337q0 -113 77.5 -183t203.5 -70q128 0 208 69t80 180q0 110 -78 180.5t-200 70.5q-128 0 -217 -72q-74 -62 -74 -175z" />
<glyph unicode="&#xd6;" horiz-adv-x="1187" d="M677 807q0 37 34 59.5t89 22.5q53 0 86 -23t33 -60q0 -34 -34 -56t-87 -22t-87 22t-34 57zM404 728q-54 0 -88 22t-34 57q0 37 34 59.5t89 22.5q53 0 86.5 -23t33.5 -60q0 -34 -34 -56t-87 -22zM213 42q-85 40 -133 117t-48 173q0 103 53.5 182.5t148.5 119.5 q142 59 365 59q211 0 353 -59q95 -40 148.5 -119.5t53.5 -182.5q0 -96 -48 -173t-133 -117q-143 -67 -380 -67t-380 67zM309 337q0 -113 77.5 -183t203.5 -70q128 0 208 69t80 180q0 110 -78 180.5t-200 70.5q-128 0 -217 -72q-74 -62 -74 -175z" />
<glyph unicode="&#xd7;" d="M192 174l159 159l-159 160l87 86l159 -159l159 159l87 -86l-159 -160l159 -159l-87 -87l-159 160l-159 -160z" />
<glyph unicode="&#xd8;" horiz-adv-x="1187" d="M27 36l107 67q-100 82 -100 229q0 106 55.5 187t153.5 120q138 54 336 54q121 0 226.5 -18t156.5 -47l136 85l50 -67l-109 -69q41 -29 65 -66q50 -77 50 -176q0 -95 -47.5 -170.5t-134.5 -118.5q-145 -71 -370 -71q-239 0 -396 76l-129 -82zM334 229l458 291 q-82 64 -199 64q-107 0 -189 -57q-94 -65 -94 -196q0 -57 24 -102zM380 160q80 -76 215 -76q127 0 204.5 68t77.5 179q0 69 -33 122z" />
<glyph unicode="&#xd9;" horiz-adv-x="1183" d="M445 813q-32 12 -42.5 20t-10.5 19q0 23 38 23h205l103 -133h-103zM226 70q-40 36 -56.5 78t-16.5 107v200q0 54 -3 70.5t-16 24.5q-15 10 -65 10h-75v107h575v-107h-75q-54 0 -68 -12q-11 -9 -13.5 -25t-2.5 -68v-144q0 -104 36 -148q30 -37 87 -58t127 -21 q72 0 129 21.5t83 59.5q17 24 23 51t6 82v157q0 55 -3 71t-16 24q-15 10 -65 10h-75v107h448v-107h-75q-54 0 -68 -12q-10 -9 -13 -25t-3 -68v-171q0 -82 -13 -124.5t-49 -80.5q-101 -104 -362 -104q-276 0 -381 95z" />
<glyph unicode="&#xda;" horiz-adv-x="1183" d="M532 742l103 133h205q39 0 39 -23q0 -11 -10.5 -19t-43.5 -20l-190 -71h-103zM226 70q-40 36 -56.5 78t-16.5 107v200q0 54 -3 70.5t-16 24.5q-15 10 -65 10h-75v107h575v-107h-75q-54 0 -68 -12q-11 -9 -13.5 -25t-2.5 -68v-144q0 -104 36 -148q30 -37 87 -58t127 -21 q72 0 129 21.5t83 59.5q17 24 23 51t6 82v157q0 55 -3 71t-16 24q-15 10 -65 10h-75v107h448v-107h-75q-54 0 -68 -12q-10 -9 -13 -25t-3 -68v-171q0 -82 -13 -124.5t-49 -80.5q-101 -104 -362 -104q-276 0 -381 95z" />
<glyph unicode="&#xdb;" horiz-adv-x="1183" d="M381 742l155 133h208l153 -133h-183l-92 75l-86 -75h-155zM226 70q-40 36 -56.5 78t-16.5 107v200q0 54 -3 70.5t-16 24.5q-15 10 -65 10h-75v107h575v-107h-75q-54 0 -68 -12q-11 -9 -13.5 -25t-2.5 -68v-144q0 -104 36 -148q30 -37 87 -58t127 -21q72 0 129 21.5 t83 59.5q17 24 23 51t6 82v157q0 55 -3 71t-16 24q-15 10 -65 10h-75v107h448v-107h-75q-54 0 -68 -12q-10 -9 -13 -25t-3 -68v-171q0 -82 -13 -124.5t-49 -80.5q-101 -104 -362 -104q-276 0 -381 95z" />
<glyph unicode="&#xdc;" horiz-adv-x="1183" d="M708 807q0 37 34 59.5t89 22.5q53 0 86 -23t33 -60q0 -34 -34 -56t-87 -22t-87 22t-34 57zM435 728q-54 0 -88 22t-34 57q0 37 34 59.5t89 22.5q53 0 86.5 -23t33.5 -60q0 -34 -34 -56t-87 -22zM226 70q-40 36 -56.5 78t-16.5 107v200q0 54 -3 70.5t-16 24.5 q-15 10 -65 10h-75v107h575v-107h-75q-54 0 -68 -12q-11 -9 -13.5 -25t-2.5 -68v-144q0 -104 36 -148q30 -37 87 -58t127 -21q72 0 129 21.5t83 59.5q17 24 23 51t6 82v157q0 55 -3 71t-16 24q-15 10 -65 10h-75v107h448v-107h-75q-54 0 -68 -12q-10 -9 -13 -25t-3 -68v-171 q0 -82 -13 -124.5t-49 -80.5q-101 -104 -362 -104q-276 0 -381 95z" />
<glyph unicode="&#xdd;" horiz-adv-x="1108" d="M514 742l103 133h205q39 0 39 -23q0 -11 -10.5 -19t-43.5 -20l-190 -71h-103zM284 0v107h87q54 0 68 12q10 9 13 25t3 68v18l-308 280q-34 31 -56 40.5t-60 9.5h-33v107h585v-107h-67q-46 0 -46 -20q0 -8 4.5 -14.5t30.5 -32.5l137 -136l134 133q25 25 32 34t7 17 q0 19 -41 19h-68v107h403v-107h-26q-48 0 -70 -13l-8 -7q-8 -6 -26.5 -22t-39.5 -36l-238 -231v-39q0 -49 2 -63t11 -25q10 -11 24 -14t60 -3h62v-107h-576z" />
<glyph unicode="&#xde;" horiz-adv-x="1129" d="M36 0v107h75q54 0 67 12q11 9 14 24.5t3 68.5v243q0 55 -3 71t-16 24q-15 10 -65 10h-75v107h411v-94h348q145 0 214 -38q96 -55 96 -148q0 -59 -42 -105t-116 -67q-71 -20 -197 -20h-303q0 -59 13.5 -73.5t70.5 -14.5h96v-107h-591zM447 302h231q71 0 100 13 q22 9 36 28.5t14 40.5q0 22 -16.5 42t-41.5 30q-27 10 -95 10h-228v-164z" />
<glyph unicode="&#xdf;" horiz-adv-x="983" d="M15 0v98h50q41 0 54 12q8 7 9.5 22.5t1.5 80.5v223q0 50 2 67.5t11 41.5q54 153 388 153q192 0 280 -35q93 -37 93 -116q0 -114 -195 -132q90 -7 127 -23q123 -51 123 -183q0 -106 -79 -168.5t-212 -62.5q-117 0 -171 45t-54 143v12h88v-1v-6q0 -49 20.5 -75.5 t58.5 -26.5q94 0 94 135q0 100 -69 132q-33 16 -104 16h-60v101h65q50 0 76 9q42 15 42 58q0 38 -36.5 60.5t-97.5 22.5q-113 0 -139 -55q-16 -32 -16 -146v-402h-350z" />
<glyph unicode="&#xe0;" horiz-adv-x="941" d="M243 632q-42 18 -42 37q0 24 37 24h193l95 -144h-95zM23 116q0 71 76 109q42 22 139 34l159 19q74 9 102 22.5t28 40.5q0 68 -154 68q-107 0 -135 -11q55 -13 55 -47q0 -24 -28 -37.5t-78 -13.5q-61 0 -96.5 21t-35.5 57q0 118 339 118q204 0 283 -38q89 -42 86 -132 l-1 -29v-152q0 -48 6 -62.5t25 -14.5q35 0 35 72v42h88v-12v-12q1 -10 1 -37q0 -39 -6.5 -60t-24.5 -38q-44 -44 -158 -44q-85 0 -127 18.5t-66 65.5q-51 -49 -108 -68.5t-147 -19.5q-257 0 -257 141zM278 125q0 -26 23.5 -40.5t63.5 -14.5q93 0 141 46q29 29 29 76v38 q-58 -29 -169 -45q-50 -7 -68 -20q-20 -13 -20 -40z" />
<glyph unicode="&#xe1;" horiz-adv-x="941" d="M328 549l95 144h194q36 0 36 -24q0 -18 -42 -37l-188 -83h-95zM23 116q0 71 76 109q42 22 139 34l159 19q74 9 102 22.5t28 40.5q0 68 -154 68q-107 0 -135 -11q55 -13 55 -47q0 -24 -28 -37.5t-78 -13.5q-61 0 -96.5 21t-35.5 57q0 118 339 118q204 0 283 -38 q89 -42 86 -132l-1 -29v-152q0 -48 6 -62.5t25 -14.5q35 0 35 72v42h88v-12v-12q1 -10 1 -37q0 -39 -6.5 -60t-24.5 -38q-44 -44 -158 -44q-85 0 -127 18.5t-66 65.5q-51 -49 -108 -68.5t-147 -19.5q-257 0 -257 141zM278 125q0 -26 23.5 -40.5t63.5 -14.5q93 0 141 46 q29 29 29 76v38q-58 -29 -169 -45q-50 -7 -68 -20q-20 -13 -20 -40z" />
<glyph unicode="&#xe2;" horiz-adv-x="941" d="M173 551l166 142h182l161 -142h-180l-89 75l-88 -75h-152zM23 116q0 71 76 109q42 22 139 34l159 19q74 9 102 22.5t28 40.5q0 68 -154 68q-107 0 -135 -11q55 -13 55 -47q0 -24 -28 -37.5t-78 -13.5q-61 0 -96.5 21t-35.5 57q0 118 339 118q204 0 283 -38 q89 -42 86 -132l-1 -29v-152q0 -48 6 -62.5t25 -14.5q35 0 35 72v42h88v-12v-12q1 -10 1 -37q0 -39 -6.5 -60t-24.5 -38q-44 -44 -158 -44q-85 0 -127 18.5t-66 65.5q-51 -49 -108 -68.5t-147 -19.5q-257 0 -257 141zM278 125q0 -26 23.5 -40.5t63.5 -14.5q93 0 141 46 q29 29 29 76v38q-58 -29 -169 -45q-50 -7 -68 -20q-20 -13 -20 -40z" />
<glyph unicode="&#xe3;" horiz-adv-x="941" d="M181 544q4 70 42 111.5t99 41.5q36 0 91 -21q17 -7 21 -7l26 -9q42 -14 70 -14q48 0 58 52h78q-5 -71 -44 -113t-98 -42q-43 0 -109 23l-34 12q-50 17 -72 17q-43 0 -53 -51h-75zM23 116q0 71 76 109q42 22 139 34l159 19q74 9 102 22.5t28 40.5q0 68 -154 68 q-107 0 -135 -11q55 -13 55 -47q0 -24 -28 -37.5t-78 -13.5q-61 0 -96.5 21t-35.5 57q0 118 339 118q204 0 283 -38q89 -42 86 -132l-1 -29v-152q0 -48 6 -62.5t25 -14.5q35 0 35 72v42h88v-12v-12q1 -10 1 -37q0 -39 -6.5 -60t-24.5 -38q-44 -44 -158 -44q-85 0 -127 18.5 t-66 65.5q-51 -49 -108 -68.5t-147 -19.5q-257 0 -257 141zM278 125q0 -26 23.5 -40.5t63.5 -14.5q93 0 141 46q29 29 29 76v38q-58 -29 -169 -45q-50 -7 -68 -20q-20 -13 -20 -40z" />
<glyph unicode="&#xe4;" horiz-adv-x="941" d="M485 620q0 37 33.5 60t89.5 23q53 0 86 -23t33 -60q0 -35 -34 -57t-87 -22t-87 22t-34 57zM250 541q-54 0 -88 22t-34 57q0 37 33.5 60t89.5 23q53 0 86.5 -23t33.5 -60q0 -35 -34 -57t-87 -22zM23 116q0 71 76 109q42 22 139 34l159 19q74 9 102 22.5t28 40.5 q0 68 -154 68q-107 0 -135 -11q55 -13 55 -47q0 -24 -28 -37.5t-78 -13.5q-61 0 -96.5 21t-35.5 57q0 118 339 118q204 0 283 -38q89 -42 86 -132l-1 -29v-152q0 -48 6 -62.5t25 -14.5q35 0 35 72v42h88v-12v-12q1 -10 1 -37q0 -39 -6.5 -60t-24.5 -38q-44 -44 -158 -44 q-85 0 -127 18.5t-66 65.5q-51 -49 -108 -68.5t-147 -19.5q-257 0 -257 141zM278 125q0 -26 23.5 -40.5t63.5 -14.5q93 0 141 46q29 29 29 76v38q-58 -29 -169 -45q-50 -7 -68 -20q-20 -13 -20 -40z" />
<glyph unicode="&#xe5;" horiz-adv-x="941" d="M238 622q0 42 50 66t137 24q91 0 140.5 -24t49.5 -68q0 -22 -17.5 -42.5t-43.5 -29.5q-47 -16 -128 -16q-188 0 -188 90zM344 618q0 -20 22 -32t60 -12t60.5 12t22.5 32q0 24 -21.5 37.5t-61.5 13.5q-39 0 -60.5 -13.5t-21.5 -37.5zM23 116q0 71 76 109q42 22 139 34 l159 19q74 9 102 22.5t28 40.5q0 68 -154 68q-107 0 -135 -11q55 -13 55 -47q0 -24 -28 -37.5t-78 -13.5q-61 0 -96.5 21t-35.5 57q0 118 339 118q204 0 283 -38q89 -42 86 -132l-1 -29v-152q0 -48 6 -62.5t25 -14.5q35 0 35 72v42h88v-12v-12q1 -10 1 -37q0 -39 -6.5 -60 t-24.5 -38q-44 -44 -158 -44q-85 0 -127 18.5t-66 65.5q-51 -49 -108 -68.5t-147 -19.5q-257 0 -257 141zM278 125q0 -26 23.5 -40.5t63.5 -14.5q93 0 141 46q29 29 29 76v38q-58 -29 -169 -45q-50 -7 -68 -20q-20 -13 -20 -40z" />
<glyph unicode="&#xe6;" horiz-adv-x="1373" d="M23 121q0 35 24.5 65t66.5 46q41 15 114 25l160 22q72 10 89.5 14t31.5 12q26 15 26 40q0 35 -44 50.5t-141 15.5q-64 0 -106 -10q49 -18 49 -48q0 -24 -30.5 -39t-78.5 -15q-60 0 -94.5 21.5t-34.5 59.5q0 52 74 82q86 35 254 35q196 0 294 -49q104 49 256 49 q404 0 416 -306h-590q34 -121 204 -121q112 0 168 66h204q-36 -65 -99 -99q-114 -62 -293 -62q-131 0 -226 27.5t-135 76.5q-39 -37 -65 -52q-90 -53 -242 -53q-117 0 -184.5 39.5t-67.5 107.5zM757 289h333q-7 46 -37 72q-49 44 -125 44q-124 0 -171 -116zM278 129 q0 -28 28 -45t74 -17q71 0 122 37q24 17 33.5 35t9.5 46q0 5 -0.5 11t-1 16.5t-0.5 20.5q-40 -23 -68 -30.5t-132 -21.5q-65 -9 -65 -52z" />
<glyph unicode="&#xe7;" horiz-adv-x="845" d="M83 80q-61 62 -61 150q0 71 37.5 127t106.5 88q109 51 285 51q169 0 267 -42.5t98 -116.5q0 -44 -37 -70t-99 -26q-58 0 -93 21.5t-35 56.5q0 19 9.5 31t34.5 23q-49 28 -116 28q-91 0 -147 -44.5t-56 -117.5q0 -75 56 -122t145 -47q143 0 188 102h155q-26 -95 -120 -146 t-242 -51l-34 -43q23 4 39 4q48 0 78 -23t30 -60q0 -45 -44.5 -73.5t-114.5 -28.5q-72 0 -153 27l29 51q64 -19 106 -19q25 0 40 10.5t15 27.5q0 16 -14 26t-35 10q-20 0 -45 -9l-38 25l61 76l-5 1l-76 8q-135 15 -215 95z" />
<glyph unicode="&#xe8;" horiz-adv-x="890" d="M264 632q-42 18 -42 37q0 24 37 24h193l95 -144h-95zM167 20q-144 64 -144 209q0 73 39.5 131t110.5 89q107 47 275 47q405 0 418 -306h-588q9 -55 60 -87.5t130 -32.5q127 0 181 66h201q-43 -76 -132 -116q-96 -45 -273 -45q-175 0 -278 45zM274 285h339 q-15 58 -58.5 89t-109.5 31t-110.5 -31.5t-60.5 -88.5z" />
<glyph unicode="&#xe9;" horiz-adv-x="890" d="M346 549l95 144h194q36 0 36 -24q0 -18 -42 -37l-188 -83h-95zM167 20q-144 64 -144 209q0 73 39.5 131t110.5 89q107 47 275 47q405 0 418 -306h-588q9 -55 60 -87.5t130 -32.5q127 0 181 66h201q-43 -76 -132 -116q-96 -45 -273 -45q-175 0 -278 45zM274 285h339 q-15 58 -58.5 89t-109.5 31t-110.5 -31.5t-60.5 -88.5z" />
<glyph unicode="&#xea;" horiz-adv-x="890" d="M204 551l166 142h182l161 -142h-180l-89 75l-88 -75h-152zM167 20q-144 64 -144 209q0 73 39.5 131t110.5 89q107 47 275 47q405 0 418 -306h-588q9 -55 60 -87.5t130 -32.5q127 0 181 66h201q-43 -76 -132 -116q-96 -45 -273 -45q-175 0 -278 45zM274 285h339 q-15 58 -58.5 89t-109.5 31t-110.5 -31.5t-60.5 -88.5z" />
<glyph unicode="&#xeb;" horiz-adv-x="890" d="M516 620q0 37 33.5 60t89.5 23q53 0 86 -23t33 -60q0 -35 -34 -57t-87 -22t-87 22t-34 57zM281 541q-54 0 -88 22t-34 57q0 37 33.5 60t89.5 23q53 0 86.5 -23t33.5 -60q0 -35 -34 -57t-87 -22zM167 20q-144 64 -144 209q0 73 39.5 131t110.5 89q107 47 275 47 q405 0 418 -306h-588q9 -55 60 -87.5t130 -32.5q127 0 181 66h201q-43 -76 -132 -116q-96 -45 -273 -45q-175 0 -278 45zM274 285h339q-15 58 -58.5 89t-109.5 31t-110.5 -31.5t-60.5 -88.5z" />
<glyph unicode="&#xec;" horiz-adv-x="518" d="M233 549l-188 83q-42 18 -42 37q0 24 37 24h193l95 -144h-95zM28 0v98h50q41 0 53 12q8 7 10 22t2 82v51q0 68 -2 83.5t-12 22.5q-13 10 -51 10h-50v98h351l-1 -265v-10v-15q0 -63 9.5 -77t55.5 -14h51v-98h-466z" />
<glyph unicode="&#xed;" horiz-adv-x="518" d="M136 549l95 144h194q36 0 36 -24q0 -18 -42 -37l-188 -83h-95zM28 0v98h50q41 0 53 12q8 7 10 22t2 82v51q0 68 -2 83.5t-12 22.5q-13 10 -51 10h-50v98h351l-1 -265v-10v-15q0 -63 9.5 -77t55.5 -14h51v-98h-466z" />
<glyph unicode="&#xee;" horiz-adv-x="518" d="M-5 551l149 142h182l144 -142h-172l-80 75l-78 -75h-145zM28 0v98h50q41 0 53 12q8 7 10 22t2 82v51q0 68 -2 83.5t-12 22.5q-13 10 -51 10h-50v98h351l-1 -265v-10v-15q0 -63 9.5 -77t55.5 -14h51v-98h-466z" />
<glyph unicode="&#xef;" horiz-adv-x="518" d="M372 541q-51 0 -84.5 22.5t-33.5 56.5q0 37 33 60t86 23q51 0 84 -23.5t33 -59.5q0 -34 -33.5 -56.5t-84.5 -22.5zM93 541q-51 0 -84.5 22.5t-33.5 56.5q0 37 33 60t86 23q51 0 84 -23.5t33 -59.5q0 -34 -33.5 -56.5t-84.5 -22.5zM28 0v98h50q41 0 53 12q8 7 10 22t2 82 v51q0 68 -2 83.5t-12 22.5q-13 10 -51 10h-50v98h351l-1 -265v-10v-15q0 -63 9.5 -77t55.5 -14h51v-98h-466z" />
<glyph unicode="&#xf0;" horiz-adv-x="945" d="M161 25q-65 29 -101.5 83.5t-36.5 121.5q0 55 26.5 105.5t69.5 78.5q57 37 143.5 60t170.5 23q36 0 105 -9l-36 30q-25 24 -31 28q-1 1 -23 15l-98 -20l-38 48l86 21q-4 3 -8.5 7.5t-7.5 7t-4 3.5q-7 5 -20 16t-14 12q-4 3 -24 23h136q32 -19 63 -43l118 26l42 -49 l-95 -20q199 -129 267.5 -203t68.5 -159q0 -68 -36.5 -122.5t-101.5 -83.5q-112 -51 -301 -51h-19q-188 0 -301 51zM278 236q0 -72 55.5 -120t138.5 -48q82 0 137.5 48t55.5 119q0 74 -54 121t-139 47q-84 0 -139 -47.5t-55 -119.5z" />
<glyph unicode="&#xf1;" horiz-adv-x="1063" d="M288 544q4 70 42 111.5t99 41.5q36 0 91 -21q18 -7 21 -7l26 -9q42 -14 70 -14q48 0 58 52h78q-5 -71 -44 -113t-98 -42q-43 0 -109 23l-34 12q-50 17 -72 17q-42 0 -53 -51h-75zM28 0v98h50q41 0 54 12q8 7 9.5 22.5t1.5 81.5v51q0 69 -2 84t-12 22q-13 10 -51 10h-50 v98h351v-98q92 115 282 115q162 0 225 -80q21 -26 29 -55t8 -80v-67q0 -69 2 -84t12 -22q13 -10 51 -10h51v-98h-468v98h51q40 0 53 12q8 7 10 21t2 65q0 81 -10 106q-25 63 -136 63q-108 0 -162 -75v-76q0 -69 2 -84t12 -22q13 -10 51 -10h50v-98h-466z" />
<glyph unicode="&#xf2;" horiz-adv-x="945" d="M292 632q-42 18 -42 37q0 24 37 24h193l95 -144h-95zM161 25q-65 29 -101.5 83t-36.5 121q0 55 25.5 105t69.5 79q122 83 360 83q224 0 347 -83q44 -29 69.5 -78.5t25.5 -104.5q0 -67 -36.5 -121.5t-101.5 -83.5q-112 -51 -301 -51h-19q-188 0 -301 51zM278 236 q0 -72 55.5 -120t138.5 -48q82 0 137.5 48t55.5 119q0 74 -54 121t-139 47q-84 0 -139 -47.5t-55 -119.5z" />
<glyph unicode="&#xf3;" horiz-adv-x="945" d="M376 549l95 144h194q36 0 36 -24q0 -18 -42 -37l-188 -83h-95zM161 25q-65 29 -101.5 83t-36.5 121q0 55 25.5 105t69.5 79q122 83 360 83q224 0 347 -83q44 -29 69.5 -78.5t25.5 -104.5q0 -67 -36.5 -121.5t-101.5 -83.5q-112 -51 -301 -51h-19q-188 0 -301 51zM278 236 q0 -72 55.5 -120t138.5 -48q82 0 137.5 48t55.5 119q0 74 -54 121t-139 47q-84 0 -139 -47.5t-55 -119.5z" />
<glyph unicode="&#xf4;" horiz-adv-x="945" d="M229 551l166 142h182l161 -142h-180l-89 75l-88 -75h-152zM161 25q-65 29 -101.5 83t-36.5 121q0 55 25.5 105t69.5 79q122 83 360 83q224 0 347 -83q44 -29 69.5 -78.5t25.5 -104.5q0 -67 -36.5 -121.5t-101.5 -83.5q-112 -51 -301 -51h-19q-188 0 -301 51zM278 236 q0 -72 55.5 -120t138.5 -48q82 0 137.5 48t55.5 119q0 74 -54 121t-139 47q-84 0 -139 -47.5t-55 -119.5z" />
<glyph unicode="&#xf5;" horiz-adv-x="945" d="M242 544q4 70 42 111.5t99 41.5q36 0 91 -21q18 -7 21 -7l26 -9q42 -14 70 -14q48 0 58 52h78q-5 -71 -44 -113t-98 -42q-43 0 -109 23l-34 12q-50 17 -72 17q-42 0 -53 -51h-75zM161 25q-65 29 -101.5 83t-36.5 121q0 55 25.5 105t69.5 79q122 83 360 83q224 0 347 -83 q44 -29 69.5 -78.5t25.5 -104.5q0 -67 -36.5 -121.5t-101.5 -83.5q-112 -51 -301 -51h-19q-188 0 -301 51zM278 236q0 -72 55.5 -120t138.5 -48q82 0 137.5 48t55.5 119q0 74 -54 121t-139 47q-84 0 -139 -47.5t-55 -119.5z" />
<glyph unicode="&#xf6;" horiz-adv-x="945" d="M541 620q0 37 33.5 60t89.5 23q53 0 86 -23t33 -60q0 -35 -34 -57t-87 -22t-87 22t-34 57zM306 541q-54 0 -88 22t-34 57q0 37 33.5 60t89.5 23q53 0 86.5 -23t33.5 -60q0 -35 -34 -57t-87 -22zM161 25q-65 29 -101.5 83t-36.5 121q0 55 25.5 105t69.5 79q122 83 360 83 q224 0 347 -83q44 -29 69.5 -78.5t25.5 -104.5q0 -67 -36.5 -121.5t-101.5 -83.5q-112 -51 -301 -51h-19q-188 0 -301 51zM278 236q0 -72 55.5 -120t138.5 -48q82 0 137.5 48t55.5 119q0 74 -54 121t-139 47q-84 0 -139 -47.5t-55 -119.5z" />
<glyph unicode="&#xf7;" d="M436 429q-38 0 -64.5 22.5t-26.5 54.5q0 33 26 54t67 21t67 -21t26 -54t-27 -55t-68 -22zM125 272v123h627v-123h-627zM345 162q0 33 26 54t67 21t67 -21t26 -54t-27 -55t-68 -22q-38 0 -64.5 22.5t-26.5 54.5z" />
<glyph unicode="&#xf8;" horiz-adv-x="945" d="M12 18l87 50q-74 64 -74 160q0 108 77 172q117 96 363 96q186 0 294 -46l114 67l45 -62l-84 -47q46 -37 66.5 -77t20.5 -95q0 -129 -113.5 -195t-334.5 -66q-188 0 -307 43l-112 -65zM289 178l311 182q-44 36 -132 36q-89 0 -145 -51q-43 -40 -43 -111q0 -28 9 -56z M333 115q55 -45 141 -45q85 0 139.5 44.5t54.5 115.5q0 32 -22 67z" />
<glyph unicode="&#xf9;" horiz-adv-x="1058" d="M315 632q-42 18 -42 37q0 24 37 24h193l95 -144h-95zM176 63q-22 26 -29.5 54.5t-7.5 80.5v67q0 68 -2 83t-12 23q-13 10 -51 10h-50v98h353v-214q0 -51 5.5 -74.5t21.5 -39.5q35 -37 118 -37q108 0 162 75v76q0 68 -2 83t-12 23q-12 10 -51 10h-51v98h351v-265v-9v-19 q0 -62 9.5 -75t55.5 -13h51v-98h-351v98q-92 -115 -282 -115q-163 0 -226 80z" />
<glyph unicode="&#xfa;" horiz-adv-x="1058" d="M413 549l95 144h194q36 0 36 -24q0 -18 -42 -37l-188 -83h-95zM176 63q-22 26 -29.5 54.5t-7.5 80.5v67q0 68 -2 83t-12 23q-13 10 -51 10h-50v98h353v-214q0 -51 5.5 -74.5t21.5 -39.5q35 -37 118 -37q108 0 162 75v76q0 68 -2 83t-12 23q-12 10 -51 10h-51v98h351v-265 v-9v-19q0 -62 9.5 -75t55.5 -13h51v-98h-351v98q-92 -115 -282 -115q-163 0 -226 80z" />
<glyph unicode="&#xfb;" horiz-adv-x="1058" d="M256 551l166 142h182l161 -142h-180l-89 75l-88 -75h-152zM176 63q-22 26 -29.5 54.5t-7.5 80.5v67q0 68 -2 83t-12 23q-13 10 -51 10h-50v98h353v-214q0 -51 5.5 -74.5t21.5 -39.5q35 -37 118 -37q108 0 162 75v76q0 68 -2 83t-12 23q-12 10 -51 10h-51v98h351v-265v-9 v-19q0 -62 9.5 -75t55.5 -13h51v-98h-351v98q-92 -115 -282 -115q-163 0 -226 80z" />
<glyph unicode="&#xfc;" horiz-adv-x="1058" d="M567 620q0 37 33.5 60t89.5 23q53 0 86 -23t33 -60q0 -35 -34 -57t-87 -22t-87 22t-34 57zM332 541q-54 0 -88 22t-34 57q0 37 33.5 60t89.5 23q53 0 86.5 -23t33.5 -60q0 -35 -34 -57t-87 -22zM176 63q-22 26 -29.5 54.5t-7.5 80.5v67q0 68 -2 83t-12 23q-13 10 -51 10 h-50v98h353v-214q0 -51 5.5 -74.5t21.5 -39.5q35 -37 118 -37q108 0 162 75v76q0 68 -2 83t-12 23q-12 10 -51 10h-51v98h351v-265v-9v-19q0 -62 9.5 -75t55.5 -13h51v-98h-351v98q-92 -115 -282 -115q-163 0 -226 80z" />
<glyph unicode="&#xfd;" horiz-adv-x="902" d="M392 549l95 144h194q36 0 36 -24q0 -18 -42 -37l-188 -83h-95zM81 -131q0 40 33 67t82 27q41 0 68.5 -19.5t27.5 -49.5q0 -24 -34 -50q15 -9 30 -9q53 0 94 69l21 36l-279 366q-40 52 -57 63.5t-52 11.5h-25v98h498v-98h-54q-29 0 -39.5 -4.5t-10.5 -17.5q0 -12 19 -40 l128 -186l104 172q24 39 24 53q0 23 -41 23h-57v98h335v-98h-20q-31 0 -48.5 -10.5t-35.5 -38.5q-10 -18 -17 -27l-244 -381q-36 -56 -72 -95q-63 -71 -181 -71q-92 0 -144.5 29.5t-52.5 81.5z" />
<glyph unicode="&#xfe;" horiz-adv-x="990" d="M23 -122h50q41 0 53 12q8 7 10 22t2 82v460q0 68 -2 83t-12 23q-13 9 -51 9h-50v98h339v-279q95 109 276 109q149 0 238 -69t89 -184q0 -122 -95 -192.5t-259 -70.5q-168 0 -238 81v-68q0 -68 2 -83t12 -23q13 -10 51 -10h50v-98h-465v98zM369 232q0 -64 47.5 -105 t122.5 -41q76 0 123.5 41.5t47.5 107.5q0 64 -45.5 104.5t-116.5 40.5q-80 0 -129.5 -41t-49.5 -107z" />
<glyph unicode="&#xff;" horiz-adv-x="902" d="M538 620q0 37 33.5 60t89.5 23q53 0 86 -23t33 -60q0 -35 -34 -57t-87 -22t-87 22t-34 57zM303 541q-54 0 -88 22t-34 57q0 37 33.5 60t89.5 23q53 0 86.5 -23t33.5 -60q0 -35 -34 -57t-87 -22zM81 -131q0 40 33 67t82 27q41 0 68.5 -19.5t27.5 -49.5q0 -24 -34 -50 q15 -9 30 -9q53 0 94 69l21 36l-279 366q-40 52 -57 63.5t-52 11.5h-25v98h498v-98h-54q-29 0 -39.5 -4.5t-10.5 -17.5q0 -12 19 -40l128 -186l104 172q24 39 24 53q0 23 -41 23h-57v98h335v-98h-20q-31 0 -48.5 -10.5t-35.5 -38.5q-10 -18 -17 -27l-244 -381 q-36 -56 -72 -95q-63 -71 -181 -71q-92 0 -144.5 29.5t-52.5 81.5z" />
<glyph unicode="&#x152;" horiz-adv-x="1681" d="M32 329q0 167 138 265.5t372 98.5q84 0 193 -18q44 -8 130 -8h758v-264h-125v15q0 78 -24 109q-16 21 -37.5 27t-80.5 6h-341v-165h154q55 0 66.5 12t11.5 68v24h120v-320h-120v18q0 56 -16 73.5t-68 17.5h-148v-181h352q51 0 73.5 7t36.5 27q21 29 21 96v32h125v-269 h-744q-59 0 -102 -6q-147 -20 -230 -20q-245 0 -380 93t-135 262zM399 136q76 -58 182 -58q61 0 112.5 19.5t77.5 52.5v366q-69 68 -187 68q-126 0 -205 -73q-70 -62 -70 -172q0 -135 90 -203z" />
<glyph unicode="&#x153;" horiz-adv-x="1491" d="M155 29q-62 32 -97 85.5t-35 118.5q0 69 39.5 125t111.5 89q108 49 275 49q208 0 318 -72q55 39 122.5 55.5t168.5 16.5q237 0 340 -119q64 -72 68 -188h-592q6 -39 38 -69q55 -51 160 -51q70 0 110.5 15.5t64.5 52.5h204q-21 -38 -46 -61.5t-62 -42.5q-115 -59 -292 -59 q-192 0 -305 70q-104 -70 -309 -70q-172 0 -282 55zM873 287h335q-13 54 -56 83.5t-107 29.5q-134 0 -172 -113zM286 235q0 -74 52.5 -120t137.5 -46q84 0 136.5 45.5t52.5 118.5q0 75 -52 121t-137 46q-86 0 -138 -45t-52 -120z" />
<glyph unicode="&#x178;" horiz-adv-x="1108" d="M683 807q0 37 34 59.5t89 22.5q53 0 86 -23t33 -60q0 -34 -34 -56t-87 -22t-87 22t-34 57zM410 728q-54 0 -88 22t-34 57q0 37 34 59.5t89 22.5q53 0 86.5 -23t33.5 -60q0 -34 -34 -56t-87 -22zM284 0v107h87q54 0 68 12q10 9 13 25t3 68v18l-308 280q-34 31 -56 40.5 t-60 9.5h-33v107h585v-107h-67q-46 0 -46 -20q0 -8 4.5 -14.5t30.5 -32.5l137 -136l134 133q25 25 32 34t7 17q0 19 -41 19h-68v107h403v-107h-26q-48 0 -70 -13l-8 -7q-8 -6 -26.5 -22t-39.5 -36l-238 -231v-39q0 -49 2 -63t11 -25q10 -11 24 -14t60 -3h62v-107h-576z" />
<glyph unicode="&#x2c6;" horiz-adv-x="500" d="M-4 551l166 142h182l161 -142h-180l-89 75l-88 -75h-152z" />
<glyph unicode="&#x2dc;" horiz-adv-x="500" d="M7 544q4 70 42 111.5t99 41.5q36 0 91 -21q17 -7 21 -7l26 -9q42 -14 70 -14q48 0 58 52h78q-5 -71 -44 -113t-98 -42q-43 0 -109 23l-34 12q-50 17 -72 17q-43 0 -53 -51h-75z" />
<glyph unicode="&#x2000;" horiz-adv-x="449" />
<glyph unicode="&#x2001;" horiz-adv-x="899" />
<glyph unicode="&#x2002;" horiz-adv-x="449" />
<glyph unicode="&#x2003;" horiz-adv-x="899" />
<glyph unicode="&#x2004;" horiz-adv-x="299" />
<glyph unicode="&#x2005;" horiz-adv-x="224" />
<glyph unicode="&#x2006;" horiz-adv-x="149" />
<glyph unicode="&#x2007;" horiz-adv-x="149" />
<glyph unicode="&#x2008;" horiz-adv-x="112" />
<glyph unicode="&#x2009;" horiz-adv-x="179" />
<glyph unicode="&#x200a;" horiz-adv-x="49" />
<glyph unicode="&#x2010;" horiz-adv-x="426" d="M0 169v166h426v-166h-426z" />
<glyph unicode="&#x2011;" horiz-adv-x="426" d="M0 169v166h426v-166h-426z" />
<glyph unicode="&#x2013;" horiz-adv-x="832" d="M28 169v166h780v-166h-780z" />
<glyph unicode="&#x2014;" horiz-adv-x="1291" d="M7 169v166h1278v-166h-1278z" />
<glyph unicode="&#x2018;" horiz-adv-x="445" d="M236 322q-62 0 -103 43.5t-41 110.5q0 89 64 144.5t171 59.5v-68q-58 -4 -90 -22q-24 -13 -39.5 -37.5t-15.5 -50.5q0 -9 1 -16q32 29 70 29q41 0 70.5 -27.5t29.5 -66.5q0 -42 -33.5 -70.5t-83.5 -28.5z" />
<glyph unicode="&#x2019;" horiz-adv-x="445" d="M118 322v68q58 4 90 22q24 13 39.5 37.5t15.5 50.5q0 9 -1 16q-32 -29 -70 -29q-41 0 -70.5 27.5t-29.5 66.5q0 42 33.5 70.5t83.5 28.5q62 0 103 -43.5t41 -110.5q0 -89 -64 -144.5t-171 -59.5z" />
<glyph unicode="&#x201a;" horiz-adv-x="445" d="M92 93q0 42 33.5 70.5t83.5 28.5q62 0 103 -43.5t41 -110.5q0 -89 -64 -144.5t-171 -59.5v68q55 4 90 22q24 14 39.5 38.5t15.5 49.5q0 9 -1 17q-31 -30 -70 -30q-41 0 -70.5 27.5t-29.5 66.5z" />
<glyph unicode="&#x201c;" horiz-adv-x="770" d="M417 476q0 89 64 144.5t171 59.5v-68q-56 -4 -90 -22q-24 -13 -39.5 -37.5t-15.5 -50.5q0 -9 1 -16q32 29 70 29q41 0 70.5 -27.5t29.5 -66.5q0 -42 -33.5 -70.5t-83.5 -28.5q-62 0 -103 43.5t-41 110.5zM236 322q-62 0 -103 43.5t-41 110.5q0 89 64 144.5t171 59.5v-68 q-58 -4 -90 -22q-24 -13 -39.5 -37.5t-15.5 -50.5q0 -9 1 -16q32 29 70 29q41 0 70.5 -27.5t29.5 -66.5q0 -42 -33.5 -70.5t-83.5 -28.5z" />
<glyph unicode="&#x201d;" horiz-adv-x="770" d="M443 322v68q58 4 90 22q24 13 39.5 37.5t15.5 50.5q0 9 -1 16q-32 -29 -70 -29q-41 0 -70.5 27.5t-29.5 66.5q0 42 33.5 70.5t83.5 28.5q62 0 103 -43.5t41 -110.5q0 -89 -64 -144.5t-171 -59.5zM118 322v68q58 4 90 22q24 13 39.5 37.5t15.5 50.5q0 9 -1 16 q-32 -29 -70 -29q-41 0 -70.5 27.5t-29.5 66.5q0 42 33.5 70.5t83.5 28.5q62 0 103 -43.5t41 -110.5q0 -89 -64 -144.5t-171 -59.5z" />
<glyph unicode="&#x201e;" horiz-adv-x="770" d="M417 93q0 42 33.5 70.5t83.5 28.5q62 0 103 -43.5t41 -110.5q0 -89 -64 -144.5t-171 -59.5v68q58 4 90 22q24 13 39.5 37.5t15.5 50.5q0 9 -1 16q-32 -29 -70 -29q-41 0 -70.5 27.5t-29.5 66.5zM92 93q0 42 33.5 70.5t83.5 28.5q62 0 103 -43.5t41 -110.5 q0 -89 -64 -144.5t-171 -59.5v68q58 4 90 22q24 13 39.5 37.5t15.5 50.5q0 9 -1 16q-32 -29 -70 -29q-41 0 -70.5 27.5t-29.5 66.5z" />
<glyph unicode="&#x2022;" horiz-adv-x="667" d="M335 201q-57 0 -98 40.5t-41 97.5q0 58 41 98.5t100 40.5q55 0 95.5 -41t40.5 -97q0 -58 -40.5 -98.5t-97.5 -40.5z" />
<glyph unicode="&#x2026;" horiz-adv-x="1301" d="M959 91q0 44 35 72.5t90 28.5t90 -28.5t35 -72.5t-36.5 -74t-90.5 -30q-52 0 -87.5 30t-35.5 74zM525 91q0 44 35 72.5t90 28.5t90 -28.5t35 -72.5t-36.5 -74t-90.5 -30q-52 0 -87.5 30t-35.5 74zM92 91q0 44 35 72.5t90 28.5t90 -28.5t35 -72.5t-36.5 -74t-90.5 -30 q-52 0 -87.5 30t-35.5 74z" />
<glyph unicode="&#x202f;" horiz-adv-x="179" />
<glyph unicode="&#x2039;" horiz-adv-x="434" d="M128 177q-54 47 -54 77q0 18 9 31.5t37 38.5l139 121h98l-88 -121q-32 -44 -32 -67q0 -24 43 -88l73 -108h-88z" />
<glyph unicode="&#x203a;" horiz-adv-x="434" d="M79 61l73 108q44 65 44 88q0 22 -32 67l-89 121h99l138 -121q30 -26 38.5 -39t8.5 -32q0 -32 -54 -76l-138 -116h-88z" />
<glyph unicode="&#x205f;" horiz-adv-x="224" />
<glyph unicode="&#x20ac;" horiz-adv-x="1148" d="M28 244l37 67h68v24v23h-105l37 67h78q25 89 96 150q63 55 171 86.5t231 31.5q144 0 247 -42q31 -13 69 -39l16 55h131v-243h-147q-22 51 -52 82q-78 78 -212 78q-98 0 -169 -42.5t-97 -116.5h376l-37 -67h-352q0 -34 1 -47h327l-37 -67h-276q28 -73 100 -116.5 t167 -43.5q136 0 222 89q34 34 52 93h149q-18 -66 -44 -108.5t-71 -78.5q-128 -104 -352 -104q-159 0 -286 47q-180 66 -222 222h-116z" />
<glyph unicode="&#x2122;" horiz-adv-x="1589" d="M634 287v66h48q35 0 41 7.5t6 48.5v136q0 41 -6.5 48.5t-40.5 7.5h-48v66h306l168 -245l170 245h292v-66h-48q-34 0 -40.5 -7.5t-6.5 -48.5v-136q0 -41 6 -48.5t41 -7.5h48v-66h-348v66h48q35 0 41 7.5t6 48.5v174l-203 -296h-102l-198 285v-163q0 -41 6 -48.5t41 -7.5 h40v-66h-267zM134 286v67h48q35 0 41 7.5t6 48.5v192h-75q-36 0 -50 -14.5t-14 -51.5v-21h-79v153h593v-153h-81v24q0 36 -12 49.5t-45 13.5h-79v-192q0 -41 6 -48.5t41 -7.5h48v-67h-348z" />
</font>
</defs>
</svg>
